<svg width="1070" height="575" viewBox="0 0 1070 575" fill="none" xmlns="http://www.w3.org/2000/svg">
<rect width="1070" height="575" fill="#D9D9D9"/>
<line x1="2.28606e-05" y1="80.5426" x2="1069" y2="80.596" stroke="black" stroke-width="0.914824"/>
<line x1="-0.00126792" y1="236.543" x2="1070" y2="233.577" stroke="black" stroke-width="0.914824"/>
<line x1="-0.000435797" y1="318.543" x2="1068" y2="317.525" stroke="black" stroke-width="0.914824"/>
<path d="M173.792 0.0366211L173.792 575" stroke="black" stroke-width="0.914824"/>
<path d="M620 0L620 574.963" stroke="black" stroke-width="0.914824"/>
<path d="M799 0L797 568" stroke="black" stroke-width="0.914824"/>
<path d="M350.386 0.0366211L350.386 575" stroke="black" stroke-width="0.914824"/>
<path d="M494 0L494 574.963" stroke="black" stroke-width="0.914824"/>
<path d="M17.5781 46.0474V24.7569H30.3441V27.044H20.1563V34.2378H29.3877V36.5249H20.1563V46.0474H17.5781ZM34.427 46.0474V30.0795H36.8804V46.0474H34.427ZM35.6745 27.4182C35.1963 27.4182 34.7839 27.2554 34.4374 26.9296C34.0978 26.6039 33.928 26.2123 33.928 25.7549C33.928 25.2975 34.0978 24.9059 34.4374 24.5802C34.7839 24.2545 35.1963 24.0916 35.6745 24.0916C36.1527 24.0916 36.5616 24.2545 36.9012 24.5802C37.2477 24.9059 37.421 25.2975 37.421 25.7549C37.421 26.2123 37.2477 26.6039 36.9012 26.9296C36.5616 27.2554 36.1527 27.4182 35.6745 27.4182ZM41.374 46.0474V30.0795H43.7442V32.4913H43.9105C44.2016 31.7013 44.7283 31.0602 45.4907 30.5681C46.253 30.0761 47.1124 29.83 48.0688 29.83C48.249 29.83 48.4742 29.8335 48.7445 29.8404C49.0148 29.8474 49.2193 29.8578 49.3579 29.8716V32.3666C49.2747 32.3458 49.0841 32.3146 48.7861 32.273C48.495 32.2245 48.1866 32.2003 47.8609 32.2003C47.0847 32.2003 46.3916 32.3631 45.7817 32.6889C45.1788 33.0077 44.7006 33.4512 44.3471 34.0195C44.0006 34.5809 43.8274 35.2219 43.8274 35.9427V46.0474H41.374ZM63.5766 33.6557L61.3727 34.2794C61.2341 33.9121 61.0297 33.5552 60.7594 33.2086C60.496 32.8552 60.1356 32.5641 59.6782 32.3354C59.2208 32.1067 58.6352 31.9923 57.9214 31.9923C56.9442 31.9923 56.1298 32.2176 55.4784 32.6681C54.8338 33.1116 54.5116 33.6764 54.5116 34.3626C54.5116 34.9724 54.7333 35.4541 55.1769 35.8076C55.6204 36.161 56.3135 36.4556 57.256 36.6912L59.6263 37.2734C61.0539 37.6199 62.1178 38.1501 62.8177 38.8639C63.5177 39.5708 63.8677 40.4822 63.8677 41.598C63.8677 42.5128 63.6044 43.3306 63.0776 44.0514C62.5579 44.7722 61.8301 45.3405 60.8945 45.7563C59.9589 46.1721 58.8708 46.38 57.6303 46.38C56.0016 46.38 54.6536 46.0266 53.5863 45.3197C52.519 44.6128 51.8433 43.5801 51.5592 42.2217L53.8878 41.6396C54.1096 42.499 54.5289 43.1435 55.1457 43.5732C55.7694 44.0029 56.5838 44.2177 57.5887 44.2177C58.7322 44.2177 59.6401 43.9751 60.3124 43.49C60.9916 42.998 61.3312 42.4089 61.3312 41.7227C61.3312 41.1683 61.1371 40.704 60.749 40.3297C60.3609 39.9485 59.7649 39.6644 58.9609 39.4773L56.2996 38.8535C54.8373 38.507 53.7631 37.9699 53.0769 37.2422C52.3978 36.5076 52.0582 35.5893 52.0582 34.4873C52.0582 33.5864 52.3111 32.7893 52.8171 32.0963C53.3299 31.4032 54.0264 30.8592 54.9066 30.4642C55.7937 30.0691 56.7986 29.8716 57.9214 29.8716C59.5015 29.8716 60.7421 30.2181 61.643 30.9112C62.5509 31.6042 63.1955 32.5191 63.5766 33.6557ZM74.5051 30.0795V32.1587H66.2301V30.0795H74.5051ZM68.6419 26.2539H71.0953V41.4732C71.0953 42.1663 71.1958 42.6861 71.3968 43.0326C71.6047 43.3722 71.8681 43.6009 72.1869 43.7187C72.5126 43.8296 72.8557 43.8851 73.2161 43.8851C73.4864 43.8851 73.7081 43.8712 73.8814 43.8435C74.0547 43.8088 74.1933 43.7811 74.2972 43.7603L74.7962 45.9642C74.6299 46.0266 74.3977 46.0889 74.0997 46.1513C73.8017 46.2206 73.424 46.2553 72.9666 46.2553C72.2735 46.2553 71.5943 46.1063 70.929 45.8083C70.2706 45.5103 69.7231 45.0563 69.2865 44.4464C68.8568 43.8365 68.6419 43.0673 68.6419 42.1386V26.2539ZM103.644 24.7569V46.0474H101.149L89.5478 29.331H89.3398V46.0474H86.7617V24.7569H89.2567L100.9 41.5148H101.108V24.7569H103.644ZM113.169 46.4216C112.158 46.4216 111.239 46.231 110.415 45.8498C109.59 45.4617 108.935 44.9038 108.45 44.1761C107.965 43.4415 107.722 42.5544 107.722 41.5148C107.722 40.6 107.902 39.8584 108.263 39.2901C108.623 38.7149 109.105 38.2644 109.708 37.9387C110.311 37.613 110.976 37.3704 111.704 37.211C112.438 37.0447 113.176 36.913 113.918 36.816C114.888 36.6912 115.675 36.5976 116.278 36.5353C116.888 36.466 117.331 36.3516 117.608 36.1922C117.893 36.0328 118.035 35.7556 118.035 35.3606V35.2774C118.035 34.2517 117.754 33.4547 117.193 32.8864C116.638 32.3181 115.796 32.0339 114.666 32.0339C113.495 32.0339 112.577 32.2904 111.912 32.8032C111.246 33.3161 110.778 33.8636 110.508 34.4457L108.179 33.6141C108.595 32.6438 109.15 31.8884 109.843 31.3478C110.543 30.8003 111.305 30.4191 112.13 30.2043C112.962 29.9825 113.779 29.8716 114.583 29.8716C115.096 29.8716 115.685 29.934 116.351 30.0587C117.023 30.1766 117.671 30.4226 118.295 30.7968C118.925 31.1711 119.448 31.7359 119.864 32.4913C120.28 33.2468 120.488 34.2586 120.488 35.5269V46.0474H118.035V43.8851H117.91C117.744 44.2316 117.466 44.6024 117.078 44.9974C116.69 45.3924 116.174 45.7286 115.529 46.0058C114.885 46.283 114.098 46.4216 113.169 46.4216ZM113.544 44.2177C114.514 44.2177 115.332 44.0271 115.997 43.646C116.669 43.2648 117.175 42.7727 117.515 42.1698C117.861 41.5668 118.035 40.9327 118.035 40.2673V38.0219C117.931 38.1466 117.702 38.261 117.349 38.3649C117.002 38.4619 116.6 38.5486 116.143 38.6248C115.692 38.6941 115.252 38.7565 114.822 38.8119C114.4 38.8605 114.057 38.902 113.793 38.9367C113.156 39.0199 112.56 39.155 112.005 39.3421C111.458 39.5223 111.014 39.7961 110.674 40.1634C110.342 40.5238 110.175 41.0158 110.175 41.6396C110.175 42.492 110.491 43.1366 111.121 43.5732C111.759 44.0029 112.566 44.2177 113.544 44.2177ZM124.966 46.0474V30.0795H127.336V32.5745H127.544C127.877 31.7221 128.414 31.0602 129.155 30.5889C129.897 30.1107 130.788 29.8716 131.827 29.8716C132.881 29.8716 133.757 30.1107 134.457 30.5889C135.164 31.0602 135.715 31.7221 136.11 32.5745H136.277C136.685 31.7498 137.299 31.0948 138.117 30.6097C138.934 30.1176 139.915 29.8716 141.059 29.8716C142.486 29.8716 143.654 30.3186 144.562 31.2127C145.47 32.0998 145.924 33.4824 145.924 35.3606V46.0474H143.47V35.3606C143.47 34.1824 143.148 33.3403 142.504 32.8344C141.859 32.3285 141.1 32.0755 140.227 32.0755C139.104 32.0755 138.234 32.4151 137.618 33.0943C137.001 33.7665 136.692 34.619 136.692 35.6516V46.0474H134.197V35.1111C134.197 34.2032 133.903 33.472 133.314 32.9176C132.725 32.3562 131.966 32.0755 131.037 32.0755C130.399 32.0755 129.803 32.2453 129.249 32.5849C128.702 32.9245 128.258 33.3958 127.918 33.9987C127.586 34.5947 127.419 35.2843 127.419 36.0675V46.0474H124.966ZM157.104 46.38C155.566 46.38 154.239 46.0404 153.123 45.3612C152.014 44.6751 151.158 43.7187 150.555 42.492C149.959 41.2584 149.661 39.8238 149.661 38.1882C149.661 36.5526 149.959 35.1111 150.555 33.8636C151.158 32.6092 151.997 31.632 153.071 30.932C154.152 30.2251 155.413 29.8716 156.855 29.8716C157.687 29.8716 158.508 30.0102 159.319 30.2874C160.13 30.5647 160.868 31.0151 161.533 31.6389C162.198 32.2557 162.728 33.0735 163.124 34.0923C163.519 35.1111 163.716 36.3655 163.716 37.8555V38.8951H151.408V36.7744H161.221C161.221 35.8734 161.041 35.0695 160.681 34.3626C160.327 33.6557 159.821 33.0978 159.163 32.6889C158.511 32.28 157.742 32.0755 156.855 32.0755C155.878 32.0755 155.032 32.3181 154.318 32.8032C153.611 33.2814 153.067 33.9052 152.686 34.6744C152.305 35.4437 152.114 36.2684 152.114 37.1486V38.5624C152.114 39.7683 152.322 40.7906 152.738 41.6292C153.161 42.4608 153.747 43.095 154.495 43.5316C155.244 43.9613 156.113 44.1761 157.104 44.1761C157.749 44.1761 158.331 44.086 158.851 43.9058C159.378 43.7187 159.832 43.4415 160.213 43.0742C160.594 42.6999 160.888 42.2356 161.096 41.6812L163.467 42.3465C163.217 43.1504 162.798 43.8573 162.209 44.4672C161.62 45.0702 160.892 45.5414 160.026 45.881C159.159 46.2137 158.186 46.38 157.104 46.38Z" fill="black"/>
<path d="M186.578 47V25.7096H189.156V44.7129H199.053V47H186.578ZM207.411 47.3742C206.399 47.3742 205.481 47.1837 204.656 46.8025C203.832 46.4144 203.177 45.8565 202.692 45.1288C202.206 44.3941 201.964 43.507 201.964 42.4675C201.964 41.5526 202.144 40.8111 202.504 40.2428C202.865 39.6675 203.346 39.2171 203.949 38.8913C204.552 38.5656 205.218 38.323 205.945 38.1636C206.68 37.9973 207.418 37.8656 208.16 37.7686C209.13 37.6438 209.917 37.5503 210.519 37.4879C211.129 37.4186 211.573 37.3043 211.85 37.1449C212.134 36.9854 212.276 36.7082 212.276 36.3132V36.23C212.276 35.2043 211.996 34.4073 211.434 33.839C210.88 33.2707 210.038 32.9866 208.908 32.9866C207.737 32.9866 206.819 33.243 206.153 33.7558C205.488 34.2687 205.02 34.8162 204.75 35.3984L202.421 34.5667C202.837 33.5964 203.391 32.841 204.085 32.3004C204.785 31.7529 205.547 31.3718 206.372 31.1569C207.203 30.9351 208.021 30.8242 208.825 30.8242C209.338 30.8242 209.927 30.8866 210.592 31.0114C211.265 31.1292 211.913 31.3752 212.536 31.7495C213.167 32.1237 213.69 32.6885 214.106 33.444C214.522 34.1994 214.73 35.2112 214.73 36.4795V47H212.276V44.8377H212.152C211.985 45.1842 211.708 45.555 211.32 45.95C210.932 46.3451 210.416 46.6812 209.771 46.9584C209.126 47.2356 208.34 47.3742 207.411 47.3742ZM207.785 45.1704C208.756 45.1704 209.573 44.9798 210.239 44.5986C210.911 44.2174 211.417 43.7253 211.757 43.1224C212.103 42.5194 212.276 41.8853 212.276 41.22V38.9745C212.172 39.0992 211.944 39.2136 211.59 39.3176C211.244 39.4146 210.842 39.5012 210.384 39.5775C209.934 39.6468 209.494 39.7091 209.064 39.7646C208.641 39.8131 208.298 39.8547 208.035 39.8893C207.397 39.9725 206.801 40.1076 206.247 40.2948C205.699 40.4749 205.256 40.7487 204.916 41.116C204.584 41.4764 204.417 41.9685 204.417 42.5922C204.417 43.4447 204.733 44.0892 205.363 44.5258C206.001 44.9555 206.808 45.1704 207.785 45.1704ZM230.518 34.6083L228.314 35.232C228.176 34.8647 227.971 34.5078 227.701 34.1613C227.438 33.8078 227.077 33.5167 226.62 33.288C226.162 33.0593 225.577 32.945 224.863 32.945C223.886 32.945 223.071 33.1702 222.42 33.6207C221.775 34.0643 221.453 34.6291 221.453 35.3152C221.453 35.9251 221.675 36.4068 222.119 36.7602C222.562 37.1137 223.255 37.4082 224.198 37.6438L226.568 38.226C227.996 38.5725 229.059 39.1027 229.759 39.8166C230.459 40.5235 230.809 41.4348 230.809 42.5506C230.809 43.4655 230.546 44.2832 230.019 45.004C229.499 45.7248 228.772 46.2931 227.836 46.7089C226.901 47.1247 225.812 47.3327 224.572 47.3327C222.943 47.3327 221.595 46.9792 220.528 46.2723C219.461 45.5654 218.785 44.5327 218.501 43.1744L220.829 42.5922C221.051 43.4516 221.471 44.0961 222.087 44.5258C222.711 44.9555 223.525 45.1704 224.53 45.1704C225.674 45.1704 226.582 44.9278 227.254 44.4427C227.933 43.9506 228.273 43.3615 228.273 42.6754C228.273 42.1209 228.079 41.6566 227.691 41.2824C227.303 40.9012 226.707 40.617 225.903 40.4299L223.241 39.8062C221.779 39.4596 220.705 38.9225 220.019 38.1948C219.339 37.4602 219 36.5419 219 35.44C219 34.539 219.253 33.742 219.759 33.0489C220.272 32.3559 220.968 31.8118 221.848 31.4168C222.735 31.0218 223.74 30.8242 224.863 30.8242C226.443 30.8242 227.684 31.1708 228.585 31.8638C229.493 32.5569 230.137 33.4717 230.518 34.6083ZM241.447 31.0322V33.1113H233.172V31.0322H241.447ZM235.584 27.2065H238.037V42.4259C238.037 43.1189 238.137 43.6387 238.338 43.9852C238.546 44.3248 238.81 44.5535 239.129 44.6714C239.454 44.7822 239.797 44.8377 240.158 44.8377C240.428 44.8377 240.65 44.8238 240.823 44.7961C240.996 44.7615 241.135 44.7337 241.239 44.7129L241.738 46.9168C241.572 46.9792 241.339 47.0416 241.041 47.104C240.743 47.1733 240.366 47.2079 239.908 47.2079C239.215 47.2079 238.536 47.0589 237.871 46.7609C237.212 46.4629 236.665 46.0089 236.228 45.3991C235.798 44.7892 235.584 44.0199 235.584 43.0912V27.2065ZM270.586 25.7096V47H268.091L256.489 30.2837H256.281V47H253.703V25.7096H256.198L267.842 42.4675H268.049V25.7096H270.586ZM280.111 47.3742C279.099 47.3742 278.181 47.1837 277.356 46.8025C276.531 46.4144 275.877 45.8565 275.391 45.1288C274.906 44.3941 274.664 43.507 274.664 42.4675C274.664 41.5526 274.844 40.8111 275.204 40.2428C275.565 39.6675 276.046 39.2171 276.649 38.8913C277.252 38.5656 277.918 38.323 278.645 38.1636C279.38 37.9973 280.118 37.8656 280.86 37.7686C281.83 37.6438 282.616 37.5503 283.219 37.4879C283.829 37.4186 284.273 37.3043 284.55 37.1449C284.834 36.9854 284.976 36.7082 284.976 36.3132V36.23C284.976 35.2043 284.696 34.4073 284.134 33.839C283.58 33.2707 282.738 32.9866 281.608 32.9866C280.437 32.9866 279.519 33.243 278.853 33.7558C278.188 34.2687 277.72 34.8162 277.45 35.3984L275.121 34.5667C275.537 33.5964 276.091 32.841 276.784 32.3004C277.484 31.7529 278.247 31.3718 279.072 31.1569C279.903 30.9351 280.721 30.8242 281.525 30.8242C282.038 30.8242 282.627 30.8866 283.292 31.0114C283.964 31.1292 284.612 31.3752 285.236 31.7495C285.867 32.1237 286.39 32.6885 286.806 33.444C287.222 34.1994 287.43 35.2112 287.43 36.4795V47H284.976V44.8377H284.852C284.685 45.1842 284.408 45.555 284.02 45.95C283.632 46.3451 283.115 46.6812 282.471 46.9584C281.826 47.2356 281.04 47.3742 280.111 47.3742ZM280.485 45.1704C281.456 45.1704 282.273 44.9798 282.939 44.5986C283.611 44.2174 284.117 43.7253 284.457 43.1224C284.803 42.5194 284.976 41.8853 284.976 41.22V38.9745C284.872 39.0992 284.644 39.2136 284.29 39.3176C283.944 39.4146 283.542 39.5012 283.084 39.5775C282.634 39.6468 282.194 39.7091 281.764 39.7646C281.341 39.8131 280.998 39.8547 280.735 39.8893C280.097 39.9725 279.501 40.1076 278.947 40.2948C278.399 40.4749 277.956 40.7487 277.616 41.116C277.283 41.4764 277.117 41.9685 277.117 42.5922C277.117 43.4447 277.432 44.0892 278.063 44.5258C278.701 44.9555 279.508 45.1704 280.485 45.1704ZM291.908 47V31.0322H294.278V33.5271H294.486C294.818 32.6747 295.356 32.0128 296.097 31.5416C296.839 31.0634 297.729 30.8242 298.769 30.8242C299.822 30.8242 300.699 31.0634 301.399 31.5416C302.106 32.0128 302.657 32.6747 303.052 33.5271H303.218C303.627 32.7024 304.24 32.0475 305.058 31.5623C305.876 31.0703 306.857 30.8242 308 30.8242C309.428 30.8242 310.596 31.2713 311.504 32.1653C312.411 33.0524 312.865 34.435 312.865 36.3132V47H310.412V36.3132C310.412 35.135 310.09 34.293 309.445 33.787C308.801 33.2811 308.042 33.0281 307.169 33.0281C306.046 33.0281 305.176 33.3677 304.559 34.0469C303.942 34.7192 303.634 35.5716 303.634 36.6043V47H301.139V36.0637C301.139 35.1558 300.844 34.4246 300.255 33.8702C299.666 33.3088 298.907 33.0281 297.979 33.0281C297.341 33.0281 296.745 33.1979 296.191 33.5375C295.643 33.8771 295.2 34.3484 294.86 34.9514C294.527 35.5474 294.361 36.237 294.361 37.0201V47H291.908ZM324.046 47.3327C322.507 47.3327 321.18 46.9931 320.064 46.3139C318.956 45.6278 318.1 44.6714 317.497 43.4447C316.901 42.211 316.603 40.7764 316.603 39.1408C316.603 37.5052 316.901 36.0637 317.497 34.8162C318.1 33.5618 318.938 32.5846 320.012 31.8846C321.094 31.1777 322.355 30.8242 323.797 30.8242C324.628 30.8242 325.449 30.9629 326.26 31.2401C327.071 31.5173 327.809 31.9678 328.475 32.5915C329.14 33.2083 329.67 34.0261 330.065 35.0449C330.46 36.0637 330.658 37.3181 330.658 38.8082V39.8477H318.349V37.727H328.163C328.163 36.826 327.983 36.0221 327.622 35.3152C327.269 34.6083 326.763 34.0504 326.104 33.6415C325.453 33.2326 324.684 33.0281 323.797 33.0281C322.819 33.0281 321.974 33.2707 321.26 33.7558C320.553 34.234 320.009 34.8578 319.628 35.6271C319.247 36.3964 319.056 37.2211 319.056 38.1013V39.5151C319.056 40.721 319.264 41.7432 319.68 42.5818C320.103 43.4135 320.688 44.0476 321.437 44.4842C322.185 44.9139 323.055 45.1288 324.046 45.1288C324.691 45.1288 325.273 45.0387 325.793 44.8585C326.319 44.6714 326.773 44.3941 327.154 44.0268C327.536 43.6526 327.83 43.1882 328.038 42.6338L330.408 43.2991C330.159 44.1031 329.739 44.81 329.15 45.4198C328.561 46.0228 327.834 46.4941 326.967 46.8337C326.101 47.1663 325.127 47.3327 324.046 47.3327Z" fill="black"/>
<path d="M530.245 47V31.0322H532.699V47H530.245ZM531.493 28.3709C531.015 28.3709 530.602 28.208 530.256 27.8823C529.916 27.5565 529.746 27.165 529.746 26.7075C529.746 26.2501 529.916 25.8586 530.256 25.5328C530.602 25.2071 531.015 25.0442 531.493 25.0442C531.971 25.0442 532.38 25.2071 532.72 25.5328C533.066 25.8586 533.239 26.2501 533.239 26.7075C533.239 27.165 533.066 27.5565 532.72 27.8823C532.38 28.208 531.971 28.3709 531.493 28.3709ZM544.137 31.0322V33.1113H535.862V31.0322H544.137ZM538.274 27.2065H540.727V42.4259C540.727 43.1189 540.827 43.6387 541.028 43.9852C541.236 44.3248 541.5 44.5535 541.819 44.6714C542.144 44.7822 542.487 44.8377 542.848 44.8377C543.118 44.8377 543.34 44.8238 543.513 44.7961C543.686 44.7615 543.825 44.7337 543.929 44.7129L544.428 46.9168C544.262 46.9792 544.029 47.0416 543.731 47.104C543.433 47.1733 543.056 47.2079 542.598 47.2079C541.905 47.2079 541.226 47.0589 540.561 46.7609C539.902 46.4629 539.355 46.0089 538.918 45.3991C538.488 44.7892 538.274 44.0199 538.274 43.0912V27.2065ZM554.351 47.3327C552.812 47.3327 551.485 46.9931 550.369 46.3139C549.26 45.6278 548.404 44.6714 547.801 43.4447C547.205 42.211 546.907 40.7764 546.907 39.1408C546.907 37.5052 547.205 36.0637 547.801 34.8162C548.404 33.5618 549.243 32.5846 550.317 31.8846C551.398 31.1777 552.66 30.8242 554.101 30.8242C554.933 30.8242 555.754 30.9629 556.565 31.2401C557.376 31.5173 558.114 31.9678 558.779 32.5915C559.444 33.2083 559.975 34.0261 560.37 35.0449C560.765 36.0637 560.962 37.3181 560.962 38.8082V39.8477H548.654V37.727H558.467C558.467 36.826 558.287 36.0221 557.927 35.3152C557.573 34.6083 557.067 34.0504 556.409 33.6415C555.757 33.2326 554.988 33.0281 554.101 33.0281C553.124 33.0281 552.278 33.2707 551.565 33.7558C550.858 34.234 550.314 34.8578 549.932 35.6271C549.551 36.3964 549.361 37.2211 549.361 38.1013V39.5151C549.361 40.721 549.569 41.7432 549.984 42.5818C550.407 43.4135 550.993 44.0476 551.741 44.4842C552.49 44.9139 553.36 45.1288 554.351 45.1288C554.995 45.1288 555.577 45.0387 556.097 44.8585C556.624 44.6714 557.078 44.3941 557.459 44.0268C557.84 43.6526 558.135 43.1882 558.343 42.6338L560.713 43.2991C560.463 44.1031 560.044 44.81 559.455 45.4198C558.866 46.0228 558.138 46.4941 557.272 46.8337C556.405 47.1663 555.432 47.3327 554.351 47.3327ZM564.694 47V31.0322H567.065V33.5271H567.272C567.605 32.6747 568.142 32.0128 568.884 31.5416C569.625 31.0634 570.516 30.8242 571.555 30.8242C572.609 30.8242 573.486 31.0634 574.186 31.5416C574.893 32.0128 575.443 32.6747 575.839 33.5271H576.005C576.414 32.7024 577.027 32.0475 577.845 31.5623C578.663 31.0703 579.643 30.8242 580.787 30.8242C582.215 30.8242 583.382 31.2713 584.29 32.1653C585.198 33.0524 585.652 34.435 585.652 36.3132V47H583.199V36.3132C583.199 35.135 582.876 34.293 582.232 33.787C581.587 33.2811 580.828 33.0281 579.955 33.0281C578.833 33.0281 577.963 33.3677 577.346 34.0469C576.729 34.7192 576.421 35.5716 576.421 36.6043V47H573.926V36.0637C573.926 35.1558 573.631 34.4246 573.042 33.8702C572.453 33.3088 571.694 33.0281 570.765 33.0281C570.128 33.0281 569.532 33.1979 568.977 33.5375C568.43 33.8771 567.986 34.3484 567.647 34.9514C567.314 35.5474 567.148 36.237 567.148 37.0201V47H564.694ZM601.448 34.6083L599.245 35.232C599.106 34.8647 598.901 34.5078 598.631 34.1613C598.368 33.8078 598.007 33.5167 597.55 33.288C597.093 33.0593 596.507 32.945 595.793 32.945C594.816 32.945 594.002 33.1702 593.35 33.6207C592.706 34.0643 592.383 34.6291 592.383 35.3152C592.383 35.9251 592.605 36.4068 593.049 36.7602C593.492 37.1137 594.185 37.4082 595.128 37.6438L597.498 38.226C598.926 38.5725 599.99 39.1027 600.69 39.8166C601.389 40.5235 601.739 41.4348 601.739 42.5506C601.739 43.4655 601.476 44.2832 600.949 45.004C600.43 45.7248 599.702 46.2931 598.766 46.7089C597.831 47.1247 596.743 47.3327 595.502 47.3327C593.873 47.3327 592.525 46.9792 591.458 46.2723C590.391 45.5654 589.715 44.5327 589.431 43.1744L591.76 42.5922C591.981 43.4516 592.401 44.0961 593.017 44.5258C593.641 44.9555 594.456 45.1704 595.46 45.1704C596.604 45.1704 597.512 44.9278 598.184 44.4427C598.863 43.9506 599.203 43.3615 599.203 42.6754C599.203 42.1209 599.009 41.6566 598.621 41.2824C598.233 40.9012 597.637 40.617 596.833 40.4299L594.171 39.8062C592.709 39.4596 591.635 38.9225 590.949 38.1948C590.27 37.4602 589.93 36.5419 589.93 35.44C589.93 34.539 590.183 33.742 590.689 33.0489C591.202 32.3559 591.898 31.8118 592.778 31.4168C593.665 31.0218 594.67 30.8242 595.793 30.8242C597.373 30.8242 598.614 31.1708 599.515 31.8638C600.423 32.5569 601.067 33.4717 601.448 34.6083Z" fill="black"/>
<path d="M688.148 45H681.578V23.7096H688.439C690.505 23.7096 692.272 24.1358 693.741 24.9882C695.21 25.8337 696.337 27.05 697.12 28.6371C697.903 30.2173 698.294 32.1093 698.294 34.3132C698.294 36.5309 697.899 38.4403 697.109 40.0412C696.319 41.6352 695.169 42.8619 693.658 43.7213C692.147 44.5738 690.311 45 688.148 45ZM684.156 42.7129H687.982C689.742 42.7129 691.201 42.3733 692.359 41.6942C693.516 41.015 694.379 40.0482 694.947 38.7938C695.515 37.5393 695.799 36.0458 695.799 34.3132C695.799 32.5944 695.519 31.1148 694.957 29.8742C694.396 28.6267 693.557 27.6703 692.442 27.005C691.326 26.3327 689.936 25.9966 688.273 25.9966H684.156V42.7129ZM706.985 45.3742C705.973 45.3742 705.055 45.1837 704.23 44.8025C703.406 44.4144 702.751 43.8565 702.266 43.1288C701.781 42.3941 701.538 41.507 701.538 40.4675C701.538 39.5526 701.718 38.8111 702.079 38.2428C702.439 37.6675 702.921 37.2171 703.524 36.8913C704.126 36.5656 704.792 36.323 705.519 36.1636C706.254 35.9973 706.992 35.8656 707.734 35.7686C708.704 35.6438 709.491 35.5503 710.094 35.4879C710.704 35.4186 711.147 35.3043 711.424 35.1449C711.708 34.9854 711.85 34.7082 711.85 34.3132V34.23C711.85 33.2043 711.57 32.4073 711.008 31.839C710.454 31.2707 709.612 30.9866 708.482 30.9866C707.311 30.9866 706.393 31.243 705.727 31.7558C705.062 32.2687 704.594 32.8162 704.324 33.3984L701.995 32.5667C702.411 31.5964 702.966 30.841 703.659 30.3004C704.359 29.7529 705.121 29.3718 705.946 29.1569C706.777 28.9351 707.595 28.8242 708.399 28.8242C708.912 28.8242 709.501 28.8866 710.166 29.0114C710.839 29.1292 711.487 29.3752 712.11 29.7495C712.741 30.1237 713.264 30.6885 713.68 31.444C714.096 32.1994 714.304 33.2112 714.304 34.4795V45H711.85V42.8377H711.726C711.559 43.1842 711.282 43.555 710.894 43.95C710.506 44.3451 709.99 44.6812 709.345 44.9584C708.701 45.2356 707.914 45.3742 706.985 45.3742ZM707.36 43.1704C708.33 43.1704 709.148 42.9798 709.813 42.5986C710.485 42.2174 710.991 41.7253 711.331 41.1224C711.677 40.5194 711.85 39.8853 711.85 39.22V36.9745C711.747 37.0992 711.518 37.2136 711.164 37.3176C710.818 37.4146 710.416 37.5012 709.958 37.5775C709.508 37.6468 709.068 37.7091 708.638 37.7646C708.215 37.8131 707.872 37.8547 707.609 37.8893C706.971 37.9725 706.375 38.1076 705.821 38.2948C705.273 38.4749 704.83 38.7487 704.49 39.116C704.158 39.4764 703.991 39.9685 703.991 40.5922C703.991 41.4447 704.307 42.0892 704.937 42.5258C705.575 42.9555 706.382 43.1704 707.36 43.1704ZM725.726 29.0322V31.1113H717.451V29.0322H725.726ZM719.863 25.2065H722.316V40.4259C722.316 41.1189 722.417 41.6387 722.618 41.9852C722.826 42.3248 723.089 42.5535 723.408 42.6714C723.734 42.7822 724.077 42.8377 724.437 42.8377C724.707 42.8377 724.929 42.8238 725.102 42.7961C725.276 42.7615 725.414 42.7337 725.518 42.7129L726.017 44.9168C725.851 44.9792 725.619 45.0416 725.321 45.104C725.023 45.1733 724.645 45.2079 724.188 45.2079C723.495 45.2079 722.815 45.0589 722.15 44.7609C721.492 44.4629 720.944 44.0089 720.508 43.3991C720.078 42.7892 719.863 42.0199 719.863 41.0912V25.2065ZM735.94 45.3327C734.401 45.3327 733.074 44.9931 731.958 44.3139C730.85 43.6278 729.994 42.6714 729.391 41.4447C728.795 40.211 728.497 38.7764 728.497 37.1408C728.497 35.5052 728.795 34.0637 729.391 32.8162C729.994 31.5618 730.832 30.5846 731.906 29.8846C732.988 29.1777 734.249 28.8242 735.69 28.8242C736.522 28.8242 737.343 28.9629 738.154 29.2401C738.965 29.5173 739.703 29.9678 740.369 30.5915C741.034 31.2083 741.564 32.0261 741.959 33.0449C742.354 34.0637 742.552 35.3181 742.552 36.8082V37.8477H730.243V35.727H740.057C740.057 34.826 739.877 34.0221 739.516 33.3152C739.163 32.6083 738.657 32.0504 737.998 31.6415C737.347 31.2326 736.578 31.0281 735.69 31.0281C734.713 31.0281 733.868 31.2707 733.154 31.7558C732.447 32.234 731.903 32.8578 731.522 33.6271C731.141 34.3964 730.95 35.2211 730.95 36.1013V37.5151C730.95 38.721 731.158 39.7432 731.574 40.5818C731.997 41.4135 732.582 42.0476 733.331 42.4842C734.079 42.9139 734.949 43.1288 735.94 43.1288C736.585 43.1288 737.167 43.0387 737.686 42.8585C738.213 42.6714 738.667 42.3941 739.048 42.0268C739.429 41.6526 739.724 41.1882 739.932 40.6338L742.302 41.2991C742.053 42.1031 741.633 42.81 741.044 43.4198C740.455 44.0228 739.728 44.4941 738.861 44.8337C737.995 45.1663 737.021 45.3327 735.94 45.3327Z" fill="black"/>
<path d="M384.578 47V25.7096H397.427V27.9966H387.156V35.1905H396.762V37.4775H387.156V44.7129H397.594V47H384.578ZM401.741 47V31.0322H404.112V33.5271H404.32C404.652 32.6747 405.189 32.0128 405.931 31.5416C406.673 31.0634 407.563 30.8242 408.603 30.8242C409.656 30.8242 410.533 31.0634 411.233 31.5416C411.94 32.0128 412.491 32.6747 412.886 33.5271H413.052C413.461 32.7024 414.074 32.0475 414.892 31.5623C415.71 31.0703 416.691 30.8242 417.834 30.8242C419.262 30.8242 420.43 31.2713 421.337 32.1653C422.245 33.0524 422.699 34.435 422.699 36.3132V47H420.246V36.3132C420.246 35.135 419.924 34.293 419.279 33.787C418.635 33.2811 417.876 33.0281 417.002 33.0281C415.88 33.0281 415.01 33.3677 414.393 34.0469C413.776 34.7192 413.468 35.5716 413.468 36.6043V47H410.973V36.0637C410.973 35.1558 410.678 34.4246 410.089 33.8702C409.5 33.3088 408.741 33.0281 407.813 33.0281C407.175 33.0281 406.579 33.1979 406.025 33.5375C405.477 33.8771 405.033 34.3484 404.694 34.9514C404.361 35.5474 404.195 36.237 404.195 37.0201V47H401.741ZM431.884 47.3742C430.872 47.3742 429.954 47.1837 429.129 46.8025C428.304 46.4144 427.649 45.8565 427.164 45.1288C426.679 44.3941 426.437 43.507 426.437 42.4675C426.437 41.5526 426.617 40.8111 426.977 40.2428C427.337 39.6675 427.819 39.2171 428.422 38.8913C429.025 38.5656 429.69 38.323 430.418 38.1636C431.153 37.9973 431.891 37.8656 432.632 37.7686C433.603 37.6438 434.389 37.5503 434.992 37.4879C435.602 37.4186 436.046 37.3043 436.323 37.1449C436.607 36.9854 436.749 36.7082 436.749 36.3132V36.23C436.749 35.2043 436.468 34.4073 435.907 33.839C435.353 33.2707 434.511 32.9866 433.381 32.9866C432.21 32.9866 431.291 33.243 430.626 33.7558C429.961 34.2687 429.493 34.8162 429.223 35.3984L426.894 34.5667C427.31 33.5964 427.864 32.841 428.557 32.3004C429.257 31.7529 430.02 31.3718 430.844 31.1569C431.676 30.9351 432.494 30.8242 433.298 30.8242C433.811 30.8242 434.4 30.8866 435.065 31.0114C435.737 31.1292 436.385 31.3752 437.009 31.7495C437.64 32.1237 438.163 32.6885 438.579 33.444C438.995 34.1994 439.202 35.2112 439.202 36.4795V47H436.749V44.8377H436.624C436.458 45.1842 436.181 45.555 435.793 45.95C435.405 46.3451 434.888 46.6812 434.244 46.9584C433.599 47.2356 432.813 47.3742 431.884 47.3742ZM432.258 45.1704C433.228 45.1704 434.046 44.9798 434.712 44.5986C435.384 44.2174 435.89 43.7253 436.229 43.1224C436.576 42.5194 436.749 41.8853 436.749 41.22V38.9745C436.645 39.0992 436.416 39.2136 436.063 39.3176C435.716 39.4146 435.314 39.5012 434.857 39.5775C434.407 39.6468 433.967 39.7091 433.537 39.7646C433.114 39.8131 432.771 39.8547 432.508 39.8893C431.87 39.9725 431.274 40.1076 430.72 40.2948C430.172 40.4749 429.729 40.7487 429.389 41.116C429.056 41.4764 428.89 41.9685 428.89 42.5922C428.89 43.4447 429.205 44.0892 429.836 44.5258C430.474 44.9555 431.281 45.1704 432.258 45.1704ZM443.68 47V31.0322H446.134V47H443.68ZM444.928 28.3709C444.45 28.3709 444.037 28.208 443.691 27.8823C443.351 27.5565 443.181 27.165 443.181 26.7075C443.181 26.2501 443.351 25.8586 443.691 25.5328C444.037 25.2071 444.45 25.0442 444.928 25.0442C445.406 25.0442 445.815 25.2071 446.155 25.5328C446.501 25.8586 446.674 26.2501 446.674 26.7075C446.674 27.165 446.501 27.5565 446.155 27.8823C445.815 28.208 445.406 28.3709 444.928 28.3709ZM453.081 25.7096V47H450.627V25.7096H453.081Z" fill="black"/>
<path d="M209.871 168V166.129L221.348 148.997H209.746V146.71H224.425V148.581L212.948 165.713H224.55V168H209.871ZM233.241 168.374C232.229 168.374 231.311 168.184 230.486 167.802C229.661 167.414 229.006 166.856 228.521 166.129C228.036 165.394 227.793 164.507 227.793 163.467C227.793 162.553 227.974 161.811 228.334 161.243C228.694 160.668 229.176 160.217 229.779 159.891C230.382 159.566 231.047 159.323 231.775 159.164C232.51 158.997 233.248 158.866 233.989 158.769C234.96 158.644 235.746 158.55 236.349 158.488C236.959 158.419 237.403 158.304 237.68 158.145C237.964 157.985 238.106 157.708 238.106 157.313V157.23C238.106 156.204 237.825 155.407 237.264 154.839C236.71 154.271 235.867 153.987 234.738 153.987C233.567 153.987 232.648 154.243 231.983 154.756C231.318 155.269 230.85 155.816 230.58 156.398L228.251 155.567C228.667 154.596 229.221 153.841 229.914 153.3C230.614 152.753 231.377 152.372 232.201 152.157C233.033 151.935 233.851 151.824 234.655 151.824C235.167 151.824 235.757 151.887 236.422 152.011C237.094 152.129 237.742 152.375 238.366 152.749C238.997 153.124 239.52 153.689 239.936 154.444C240.352 155.199 240.559 156.211 240.559 157.48V168H238.106V165.838H237.981C237.815 166.184 237.538 166.555 237.15 166.95C236.762 167.345 236.245 167.681 235.601 167.958C234.956 168.236 234.17 168.374 233.241 168.374ZM233.615 166.17C234.585 166.17 235.403 165.98 236.068 165.599C236.741 165.217 237.247 164.725 237.586 164.122C237.933 163.519 238.106 162.885 238.106 162.22V159.974C238.002 160.099 237.773 160.214 237.42 160.318C237.073 160.415 236.671 160.501 236.214 160.577C235.764 160.647 235.323 160.709 234.894 160.765C234.471 160.813 234.128 160.855 233.865 160.889C233.227 160.972 232.631 161.108 232.077 161.295C231.529 161.475 231.085 161.749 230.746 162.116C230.413 162.476 230.247 162.968 230.247 163.592C230.247 164.445 230.562 165.089 231.193 165.526C231.83 165.956 232.638 166.17 233.615 166.17ZM247.491 158.394V168H245.037V146.71H247.491V154.527H247.699C248.073 153.702 248.634 153.047 249.383 152.562C250.138 152.07 251.143 151.824 252.398 151.824C253.486 151.824 254.439 152.043 255.256 152.479C256.074 152.909 256.708 153.571 257.159 154.465C257.616 155.352 257.845 156.482 257.845 157.854V168H255.392V158.02C255.392 156.752 255.062 155.771 254.404 155.078C253.752 154.378 252.848 154.028 251.691 154.028C250.887 154.028 250.166 154.198 249.528 154.538C248.898 154.877 248.399 155.373 248.031 156.024C247.671 156.676 247.491 157.466 247.491 158.394ZM265.951 168L261.086 152.032H263.664L267.115 164.258H267.282L270.691 152.032H273.311L276.679 164.216H276.846L280.297 152.032H282.875L278.01 168H275.598L272.105 155.733H271.856L268.363 168H265.951ZM292.27 168.333C290.732 168.333 289.405 167.993 288.289 167.314C287.18 166.628 286.324 165.671 285.721 164.445C285.125 163.211 284.827 161.776 284.827 160.141C284.827 158.505 285.125 157.064 285.721 155.816C286.324 154.562 287.163 153.585 288.237 152.885C289.318 152.178 290.579 151.824 292.021 151.824C292.853 151.824 293.674 151.963 294.485 152.24C295.296 152.517 296.034 152.968 296.699 153.592C297.364 154.208 297.894 155.026 298.289 156.045C298.685 157.064 298.882 158.318 298.882 159.808V160.848H286.573V158.727H296.387C296.387 157.826 296.207 157.022 295.846 156.315C295.493 155.608 294.987 155.05 294.329 154.641C293.677 154.233 292.908 154.028 292.021 154.028C291.044 154.028 290.198 154.271 289.484 154.756C288.777 155.234 288.233 155.858 287.852 156.627C287.471 157.396 287.28 158.221 287.28 159.101V160.515C287.28 161.721 287.488 162.743 287.904 163.582C288.327 164.413 288.913 165.048 289.661 165.484C290.41 165.914 291.279 166.129 292.27 166.129C292.915 166.129 293.497 166.039 294.017 165.858C294.544 165.671 294.998 165.394 295.379 165.027C295.76 164.653 296.054 164.188 296.262 163.634L298.633 164.299C298.383 165.103 297.964 165.81 297.375 166.42C296.786 167.023 296.058 167.494 295.192 167.834C294.325 168.166 293.352 168.333 292.27 168.333Z" fill="black"/>
<path d="M371.938 156.318C371.128 156.318 370.432 156.214 369.849 156.006C369.267 155.802 368.782 155.532 368.393 155.196C368.01 154.865 367.705 154.509 367.477 154.131L368.812 153.193C368.964 153.392 369.156 153.619 369.388 153.875C369.62 154.135 369.937 154.36 370.339 154.55C370.747 154.744 371.279 154.841 371.938 154.841C372.818 154.841 373.545 154.628 374.118 154.202C374.691 153.776 374.977 153.108 374.977 152.199V149.983H374.835C374.712 150.182 374.537 150.428 374.31 150.722C374.087 151.01 373.765 151.268 373.344 151.496C372.927 151.718 372.364 151.83 371.653 151.83C370.773 151.83 369.982 151.621 369.281 151.205C368.585 150.788 368.034 150.182 367.626 149.386C367.224 148.591 367.023 147.625 367.023 146.489C367.023 145.371 367.219 144.398 367.612 143.57C368.005 142.736 368.552 142.092 369.253 141.638C369.954 141.179 370.763 140.949 371.682 140.949C372.392 140.949 372.955 141.067 373.372 141.304C373.794 141.536 374.116 141.801 374.338 142.099C374.565 142.393 374.741 142.634 374.864 142.824H375.034V141.091H376.653V152.312C376.653 153.25 376.44 154.012 376.014 154.599C375.593 155.191 375.025 155.625 374.31 155.899C373.599 156.179 372.809 156.318 371.938 156.318ZM371.881 150.324C372.553 150.324 373.121 150.17 373.585 149.862C374.049 149.554 374.402 149.112 374.643 148.534C374.885 147.956 375.006 147.265 375.006 146.46C375.006 145.674 374.887 144.981 374.651 144.379C374.414 143.778 374.063 143.307 373.599 142.966C373.135 142.625 372.563 142.455 371.881 142.455C371.17 142.455 370.579 142.634 370.105 142.994C369.636 143.354 369.284 143.837 369.047 144.443C368.815 145.049 368.699 145.722 368.699 146.46C368.699 147.218 368.817 147.888 369.054 148.47C369.295 149.048 369.651 149.502 370.119 149.834C370.593 150.161 371.18 150.324 371.881 150.324ZM382.932 152.256C382.241 152.256 381.613 152.125 381.05 151.865C380.486 151.6 380.039 151.219 379.707 150.722C379.376 150.22 379.21 149.614 379.21 148.903C379.21 148.278 379.333 147.772 379.58 147.384C379.826 146.991 380.155 146.683 380.567 146.46C380.979 146.238 381.433 146.072 381.93 145.963C382.432 145.849 382.937 145.759 383.443 145.693C384.106 145.608 384.643 145.544 385.055 145.501C385.472 145.454 385.775 145.376 385.964 145.267C386.159 145.158 386.256 144.969 386.256 144.699V144.642C386.256 143.941 386.064 143.397 385.68 143.009C385.302 142.62 384.726 142.426 383.955 142.426C383.154 142.426 382.527 142.601 382.072 142.952C381.618 143.302 381.298 143.676 381.114 144.074L379.523 143.506C379.807 142.843 380.186 142.327 380.659 141.957C381.137 141.583 381.658 141.323 382.222 141.176C382.79 141.025 383.348 140.949 383.898 140.949C384.248 140.949 384.651 140.991 385.105 141.077C385.564 141.157 386.007 141.325 386.433 141.581C386.864 141.837 387.222 142.223 387.506 142.739C387.79 143.255 387.932 143.946 387.932 144.812V152H386.256V150.523H386.17C386.057 150.759 385.867 151.013 385.602 151.283C385.337 151.553 384.984 151.782 384.544 151.972C384.104 152.161 383.566 152.256 382.932 152.256ZM383.188 150.75C383.85 150.75 384.409 150.62 384.864 150.359C385.323 150.099 385.669 149.763 385.901 149.351C386.137 148.939 386.256 148.506 386.256 148.051V146.517C386.185 146.602 386.028 146.68 385.787 146.751C385.55 146.818 385.276 146.877 384.963 146.929C384.655 146.976 384.355 147.019 384.061 147.057C383.772 147.09 383.538 147.118 383.358 147.142C382.922 147.199 382.515 147.291 382.136 147.419C381.762 147.542 381.459 147.729 381.227 147.98C381 148.226 380.886 148.562 380.886 148.989C380.886 149.571 381.102 150.011 381.533 150.31C381.968 150.603 382.52 150.75 383.188 150.75ZM395.11 152.227C394.201 152.227 393.399 151.998 392.703 151.538C392.007 151.074 391.462 150.421 391.069 149.578C390.676 148.731 390.48 147.729 390.48 146.574C390.48 145.428 390.676 144.434 391.069 143.591C391.462 142.748 392.009 142.097 392.71 141.638C393.411 141.179 394.22 140.949 395.139 140.949C395.849 140.949 396.41 141.067 396.822 141.304C397.239 141.536 397.556 141.801 397.774 142.099C397.996 142.393 398.169 142.634 398.292 142.824H398.434V137.455H400.11V152H398.491V150.324H398.292C398.169 150.523 397.994 150.774 397.767 151.077C397.539 151.375 397.215 151.643 396.794 151.879C396.372 152.111 395.811 152.227 395.11 152.227ZM395.338 150.722C396.01 150.722 396.578 150.546 397.042 150.196C397.506 149.841 397.859 149.351 398.1 148.726C398.342 148.096 398.463 147.369 398.463 146.545C398.463 145.731 398.344 145.018 398.108 144.408C397.871 143.792 397.52 143.314 397.056 142.973C396.592 142.627 396.02 142.455 395.338 142.455C394.627 142.455 394.036 142.637 393.562 143.001C393.093 143.361 392.741 143.851 392.504 144.472C392.272 145.087 392.156 145.778 392.156 146.545C392.156 147.322 392.274 148.027 392.511 148.662C392.752 149.292 393.108 149.794 393.576 150.168C394.05 150.537 394.637 150.722 395.338 150.722ZM407.987 152.227C406.936 152.227 406.029 151.995 405.267 151.531C404.509 151.062 403.924 150.409 403.512 149.571C403.105 148.728 402.902 147.748 402.902 146.631C402.902 145.513 403.105 144.528 403.512 143.676C403.924 142.819 404.497 142.152 405.231 141.673C405.97 141.19 406.832 140.949 407.816 140.949C408.385 140.949 408.946 141.044 409.5 141.233C410.054 141.422 410.558 141.73 411.012 142.156C411.467 142.578 411.829 143.136 412.099 143.832C412.369 144.528 412.504 145.385 412.504 146.403V147.114H404.095V145.665H410.799C410.799 145.049 410.676 144.5 410.43 144.017C410.189 143.534 409.843 143.153 409.393 142.874C408.948 142.594 408.422 142.455 407.816 142.455C407.149 142.455 406.571 142.62 406.083 142.952C405.6 143.278 405.229 143.705 404.968 144.23C404.708 144.756 404.578 145.319 404.578 145.92V146.886C404.578 147.71 404.72 148.409 405.004 148.982C405.293 149.55 405.693 149.983 406.204 150.281C406.716 150.575 407.31 150.722 407.987 150.722C408.427 150.722 408.825 150.66 409.18 150.537C409.54 150.409 409.85 150.22 410.11 149.969C410.371 149.713 410.572 149.396 410.714 149.017L412.333 149.472C412.163 150.021 411.877 150.504 411.474 150.92C411.072 151.332 410.574 151.654 409.983 151.886C409.391 152.114 408.725 152.227 407.987 152.227ZM419.627 152.227C418.576 152.227 417.67 151.995 416.907 151.531C416.15 151.062 415.565 150.409 415.153 149.571C414.746 148.728 414.542 147.748 414.542 146.631C414.542 145.513 414.746 144.528 415.153 143.676C415.565 142.819 416.138 142.152 416.872 141.673C417.61 141.19 418.472 140.949 419.457 140.949C420.025 140.949 420.586 141.044 421.14 141.233C421.694 141.422 422.199 141.73 422.653 142.156C423.108 142.578 423.47 143.136 423.74 143.832C424.01 144.528 424.145 145.385 424.145 146.403V147.114H415.735V145.665H422.44C422.44 145.049 422.317 144.5 422.071 144.017C421.829 143.534 421.484 143.153 421.034 142.874C420.589 142.594 420.063 142.455 419.457 142.455C418.789 142.455 418.212 142.62 417.724 142.952C417.241 143.278 416.869 143.705 416.609 144.23C416.349 144.756 416.218 145.319 416.218 145.92V146.886C416.218 147.71 416.36 148.409 416.645 148.982C416.933 149.55 417.333 149.983 417.845 150.281C418.356 150.575 418.95 150.722 419.627 150.722C420.068 150.722 420.466 150.66 420.821 150.537C421.181 150.409 421.491 150.22 421.751 149.969C422.011 149.713 422.213 149.396 422.355 149.017L423.974 149.472C423.804 150.021 423.517 150.504 423.115 150.92C422.712 151.332 422.215 151.654 421.623 151.886C421.031 152.114 420.366 152.227 419.627 152.227ZM426.694 152V141.091H428.314V142.739H428.427C428.626 142.199 428.986 141.761 429.507 141.425C430.028 141.089 430.615 140.92 431.268 140.92C431.391 140.92 431.545 140.923 431.73 140.928C431.914 140.932 432.054 140.939 432.149 140.949V142.653C432.092 142.639 431.962 142.618 431.758 142.589C431.559 142.556 431.349 142.54 431.126 142.54C430.596 142.54 430.122 142.651 429.706 142.874C429.294 143.091 428.967 143.394 428.725 143.783C428.489 144.166 428.37 144.604 428.37 145.097V152H426.694ZM375.915 179.835C374.466 179.835 373.185 179.636 372.072 179.239C370.96 178.846 370.025 178.266 369.267 177.499C368.509 176.732 367.937 175.792 367.548 174.679C367.16 173.566 366.966 172.293 366.966 170.858C366.966 169.471 367.162 168.23 367.555 167.136C367.953 166.043 368.528 165.115 369.281 164.352C370.039 163.585 370.957 163 372.037 162.598C373.121 162.196 374.348 161.994 375.716 161.994C377.046 161.994 378.211 162.212 379.21 162.648C380.214 163.079 381.052 163.663 381.724 164.402C382.402 165.136 382.908 165.962 383.244 166.881C383.585 167.799 383.756 168.746 383.756 169.722C383.756 170.408 383.723 171.104 383.656 171.81C383.59 172.515 383.45 173.164 383.237 173.756C383.024 174.343 382.695 174.816 382.25 175.176C381.81 175.536 381.213 175.716 380.46 175.716C380.129 175.716 379.764 175.664 379.366 175.56C378.969 175.455 378.616 175.283 378.308 175.041C378 174.8 377.818 174.475 377.761 174.068H377.676C377.563 174.343 377.387 174.603 377.151 174.849C376.919 175.096 376.613 175.292 376.234 175.439C375.86 175.586 375.403 175.65 374.864 175.631C374.248 175.607 373.706 175.47 373.237 175.219C372.768 174.963 372.375 174.617 372.058 174.182C371.746 173.741 371.509 173.232 371.348 172.655C371.192 172.072 371.114 171.445 371.114 170.773C371.114 170.134 371.208 169.549 371.398 169.018C371.587 168.488 371.85 168.024 372.186 167.626C372.527 167.229 372.925 166.911 373.379 166.675C373.839 166.433 374.333 166.284 374.864 166.227C375.337 166.18 375.768 166.201 376.156 166.291C376.545 166.376 376.864 166.507 377.115 166.682C377.366 166.852 377.525 167.042 377.591 167.25H377.676V166.455H379.182V172.875C379.182 173.273 379.293 173.623 379.516 173.926C379.738 174.229 380.063 174.381 380.489 174.381C380.972 174.381 381.341 174.215 381.597 173.884C381.857 173.552 382.035 173.041 382.129 172.349C382.229 171.658 382.278 170.773 382.278 169.693C382.278 169.059 382.191 168.434 382.016 167.818C381.845 167.198 381.585 166.618 381.234 166.078C380.889 165.538 380.451 165.062 379.92 164.651C379.39 164.239 378.768 163.917 378.053 163.685C377.342 163.448 376.535 163.33 375.631 163.33C374.518 163.33 373.521 163.502 372.641 163.848C371.765 164.189 371.019 164.688 370.403 165.347C369.793 166 369.326 166.795 369.004 167.733C368.687 168.666 368.528 169.726 368.528 170.915C368.528 172.122 368.687 173.195 369.004 174.132C369.326 175.07 369.8 175.86 370.425 176.504C371.054 177.148 371.833 177.636 372.761 177.967C373.689 178.304 374.759 178.472 375.972 178.472C376.492 178.472 377.006 178.422 377.513 178.322C378.019 178.223 378.467 178.114 378.855 177.996C379.243 177.877 379.523 177.79 379.693 177.733L380.091 179.04C379.797 179.163 379.414 179.286 378.94 179.409C378.472 179.532 377.97 179.634 377.435 179.714C376.904 179.795 376.398 179.835 375.915 179.835ZM375.091 174.182C375.725 174.182 376.239 174.054 376.632 173.798C377.025 173.543 377.312 173.157 377.491 172.641C377.671 172.125 377.761 171.473 377.761 170.688C377.761 169.892 377.662 169.272 377.463 168.827C377.264 168.382 376.971 168.069 376.582 167.889C376.194 167.709 375.716 167.619 375.148 167.619C374.608 167.619 374.146 167.761 373.763 168.045C373.384 168.325 373.093 168.699 372.889 169.168C372.69 169.632 372.591 170.138 372.591 170.688C372.591 171.294 372.671 171.864 372.832 172.399C372.993 172.929 373.256 173.36 373.621 173.692C373.985 174.018 374.475 174.182 375.091 174.182ZM390.668 180.318C389.858 180.318 389.162 180.214 388.58 180.006C387.998 179.802 387.512 179.532 387.124 179.196C386.74 178.865 386.435 178.509 386.208 178.131L387.543 177.193C387.694 177.392 387.886 177.619 388.118 177.875C388.35 178.135 388.667 178.36 389.07 178.55C389.477 178.744 390.01 178.841 390.668 178.841C391.549 178.841 392.275 178.628 392.848 178.202C393.421 177.776 393.708 177.108 393.708 176.199V173.983H393.566C393.443 174.182 393.267 174.428 393.04 174.722C392.818 175.01 392.496 175.268 392.074 175.496C391.658 175.718 391.094 175.83 390.384 175.83C389.503 175.83 388.712 175.621 388.012 175.205C387.316 174.788 386.764 174.182 386.357 173.386C385.954 172.591 385.753 171.625 385.753 170.489C385.753 169.371 385.95 168.398 386.343 167.57C386.736 166.736 387.283 166.092 387.983 165.638C388.684 165.179 389.494 164.949 390.412 164.949C391.123 164.949 391.686 165.067 392.103 165.304C392.524 165.536 392.846 165.801 393.069 166.099C393.296 166.393 393.471 166.634 393.594 166.824H393.765V165.091H395.384V176.312C395.384 177.25 395.171 178.012 394.745 178.599C394.323 179.191 393.755 179.625 393.04 179.899C392.33 180.179 391.539 180.318 390.668 180.318ZM390.611 174.324C391.283 174.324 391.852 174.17 392.316 173.862C392.78 173.554 393.132 173.112 393.374 172.534C393.615 171.956 393.736 171.265 393.736 170.46C393.736 169.674 393.618 168.981 393.381 168.379C393.144 167.778 392.794 167.307 392.33 166.966C391.866 166.625 391.293 166.455 390.611 166.455C389.901 166.455 389.309 166.634 388.836 166.994C388.367 167.354 388.014 167.837 387.777 168.443C387.545 169.049 387.429 169.722 387.429 170.46C387.429 171.218 387.548 171.888 387.784 172.47C388.026 173.048 388.381 173.502 388.85 173.834C389.323 174.161 389.91 174.324 390.611 174.324ZM398.452 176V165.091H400.071V166.795H400.213C400.441 166.213 400.808 165.761 401.314 165.439C401.821 165.112 402.429 164.949 403.14 164.949C403.859 164.949 404.458 165.112 404.936 165.439C405.419 165.761 405.796 166.213 406.066 166.795H406.179C406.459 166.232 406.878 165.785 407.436 165.453C407.995 165.117 408.665 164.949 409.446 164.949C410.422 164.949 411.22 165.254 411.84 165.865C412.46 166.471 412.77 167.416 412.77 168.699V176H411.094V168.699C411.094 167.894 410.874 167.319 410.434 166.973C409.993 166.627 409.475 166.455 408.878 166.455C408.111 166.455 407.517 166.687 407.096 167.151C406.674 167.61 406.463 168.192 406.463 168.898V176H404.759V168.528C404.759 167.908 404.558 167.409 404.155 167.03C403.753 166.646 403.234 166.455 402.6 166.455C402.164 166.455 401.757 166.571 401.378 166.803C401.004 167.035 400.701 167.357 400.469 167.768C400.242 168.176 400.128 168.647 400.128 169.182V176H398.452ZM419.045 176.256C418.354 176.256 417.726 176.125 417.163 175.865C416.6 175.6 416.152 175.219 415.821 174.722C415.489 174.22 415.324 173.614 415.324 172.903C415.324 172.278 415.447 171.772 415.693 171.384C415.939 170.991 416.268 170.683 416.68 170.46C417.092 170.238 417.547 170.072 418.044 169.963C418.546 169.849 419.05 169.759 419.556 169.693C420.219 169.608 420.757 169.544 421.169 169.501C421.585 169.454 421.888 169.376 422.078 169.267C422.272 169.158 422.369 168.969 422.369 168.699V168.642C422.369 167.941 422.177 167.397 421.794 167.009C421.415 166.62 420.84 166.426 420.068 166.426C419.268 166.426 418.64 166.601 418.186 166.952C417.731 167.302 417.412 167.676 417.227 168.074L415.636 167.506C415.92 166.843 416.299 166.327 416.772 165.957C417.251 165.583 417.771 165.323 418.335 165.176C418.903 165.025 419.462 164.949 420.011 164.949C420.361 164.949 420.764 164.991 421.218 165.077C421.678 165.157 422.12 165.325 422.547 165.581C422.977 165.837 423.335 166.223 423.619 166.739C423.903 167.255 424.045 167.946 424.045 168.812V176H422.369V174.523H422.284C422.17 174.759 421.981 175.013 421.716 175.283C421.45 175.553 421.098 175.782 420.657 175.972C420.217 176.161 419.68 176.256 419.045 176.256ZM419.301 174.75C419.964 174.75 420.522 174.62 420.977 174.359C421.436 174.099 421.782 173.763 422.014 173.351C422.251 172.939 422.369 172.506 422.369 172.051V170.517C422.298 170.602 422.142 170.68 421.9 170.751C421.663 170.818 421.389 170.877 421.076 170.929C420.769 170.976 420.468 171.019 420.174 171.057C419.886 171.09 419.651 171.118 419.471 171.142C419.036 171.199 418.628 171.291 418.25 171.419C417.876 171.542 417.573 171.729 417.341 171.98C417.113 172.226 417 172.562 417 172.989C417 173.571 417.215 174.011 417.646 174.31C418.082 174.603 418.633 174.75 419.301 174.75ZM427.104 176V165.091H428.781V176H427.104ZM427.957 163.273C427.63 163.273 427.348 163.161 427.112 162.939C426.879 162.716 426.763 162.449 426.763 162.136C426.763 161.824 426.879 161.556 427.112 161.334C427.348 161.111 427.63 161 427.957 161C428.283 161 428.563 161.111 428.795 161.334C429.031 161.556 429.15 161.824 429.15 162.136C429.15 162.449 429.031 162.716 428.795 162.939C428.563 163.161 428.283 163.273 427.957 163.273ZM433.527 161.455V176H431.85V161.455H433.527ZM437.818 176.114C437.468 176.114 437.167 175.988 436.916 175.737C436.665 175.486 436.54 175.186 436.54 174.835C436.54 174.485 436.665 174.184 436.916 173.933C437.167 173.682 437.468 173.557 437.818 173.557C438.169 173.557 438.469 173.682 438.72 173.933C438.971 174.184 439.097 174.485 439.097 174.835C439.097 175.067 439.037 175.28 438.919 175.474C438.805 175.669 438.652 175.825 438.457 175.943C438.268 176.057 438.055 176.114 437.818 176.114ZM446.536 176.227C445.513 176.227 444.633 175.986 443.894 175.503C443.156 175.02 442.587 174.355 442.19 173.507C441.792 172.66 441.593 171.691 441.593 170.602C441.593 169.494 441.797 168.517 442.204 167.669C442.616 166.817 443.189 166.152 443.923 165.673C444.661 165.19 445.523 164.949 446.508 164.949C447.275 164.949 447.966 165.091 448.582 165.375C449.197 165.659 449.701 166.057 450.094 166.568C450.487 167.08 450.731 167.676 450.826 168.358H449.15C449.022 167.861 448.738 167.42 448.298 167.037C447.862 166.649 447.275 166.455 446.536 166.455C445.883 166.455 445.31 166.625 444.817 166.966C444.33 167.302 443.949 167.778 443.674 168.393C443.404 169.004 443.269 169.722 443.269 170.545C443.269 171.388 443.402 172.122 443.667 172.747C443.937 173.372 444.316 173.857 444.803 174.203C445.296 174.549 445.873 174.722 446.536 174.722C446.972 174.722 447.367 174.646 447.722 174.494C448.077 174.343 448.378 174.125 448.624 173.841C448.871 173.557 449.046 173.216 449.15 172.818H450.826C450.731 173.462 450.497 174.042 450.123 174.558C449.754 175.07 449.263 175.477 448.653 175.78C448.047 176.078 447.341 176.227 446.536 176.227ZM457.708 176.227C456.723 176.227 455.859 175.993 455.116 175.524C454.377 175.055 453.799 174.4 453.383 173.557C452.971 172.714 452.765 171.729 452.765 170.602C452.765 169.466 452.971 168.474 453.383 167.626C453.799 166.779 454.377 166.121 455.116 165.652C455.859 165.183 456.723 164.949 457.708 164.949C458.693 164.949 459.555 165.183 460.293 165.652C461.037 166.121 461.614 166.779 462.026 167.626C462.443 168.474 462.651 169.466 462.651 170.602C462.651 171.729 462.443 172.714 462.026 173.557C461.614 174.4 461.037 175.055 460.293 175.524C459.555 175.993 458.693 176.227 457.708 176.227ZM457.708 174.722C458.456 174.722 459.072 174.53 459.555 174.146C460.038 173.763 460.395 173.259 460.627 172.634C460.859 172.009 460.975 171.331 460.975 170.602C460.975 169.873 460.859 169.194 460.627 168.564C460.395 167.934 460.038 167.425 459.555 167.037C459.072 166.649 458.456 166.455 457.708 166.455C456.96 166.455 456.344 166.649 455.862 167.037C455.379 167.425 455.021 167.934 454.789 168.564C454.557 169.194 454.441 169.873 454.441 170.602C454.441 171.331 454.557 172.009 454.789 172.634C455.021 173.259 455.379 173.763 455.862 174.146C456.344 174.53 456.96 174.722 457.708 174.722ZM465.21 176V165.091H466.829V166.795H466.971C467.199 166.213 467.565 165.761 468.072 165.439C468.579 165.112 469.187 164.949 469.897 164.949C470.617 164.949 471.216 165.112 471.694 165.439C472.177 165.761 472.554 166.213 472.824 166.795H472.937C473.217 166.232 473.636 165.785 474.194 165.453C474.753 165.117 475.423 164.949 476.204 164.949C477.18 164.949 477.977 165.254 478.598 165.865C479.218 166.471 479.528 167.416 479.528 168.699V176H477.852V168.699C477.852 167.894 477.632 167.319 477.191 166.973C476.751 166.627 476.233 166.455 475.636 166.455C474.869 166.455 474.275 166.687 473.853 167.151C473.432 167.61 473.221 168.192 473.221 168.898V176H471.517V168.528C471.517 167.908 471.315 167.409 470.913 167.03C470.511 166.646 469.992 166.455 469.358 166.455C468.922 166.455 468.515 166.571 468.136 166.803C467.762 167.035 467.459 167.357 467.227 167.768C467 168.176 466.886 168.647 466.886 169.182V176H465.21Z" fill="black"/>
<path d="M551.869 167L561.392 148.163V147.997H550.414V145.71H564.053V148.121L554.572 167H551.869Z" fill="black"/>
<path d="M42.1322 152.363C41.9035 151.663 41.602 151.036 41.2277 150.481C40.8604 149.92 40.4203 149.442 39.9075 149.047C39.4015 148.652 38.8263 148.35 38.1818 148.142C37.5372 147.934 36.8303 147.83 36.0611 147.83C34.7997 147.83 33.6527 148.156 32.6201 148.807C31.5874 149.459 30.7662 150.419 30.1563 151.687C29.5464 152.955 29.2415 154.511 29.2415 156.355C29.2415 158.198 29.5499 159.754 30.1667 161.022C30.7835 162.291 31.6186 163.251 32.672 163.902C33.7255 164.554 34.9106 164.879 36.2274 164.879C37.4472 164.879 38.5214 164.619 39.4501 164.1C40.3857 163.573 41.1134 162.831 41.6332 161.875C42.1599 160.912 42.4232 159.778 42.4232 158.476L43.2133 158.642H36.8095V156.355H44.9182V158.642C44.9182 160.395 44.544 161.92 43.7955 163.216C43.0539 164.512 42.0282 165.517 40.7183 166.231C39.4154 166.938 37.9184 167.291 36.2274 167.291C34.3423 167.291 32.6859 166.848 31.2582 165.96C29.8375 165.073 28.7286 163.812 27.9316 162.176C27.1415 160.541 26.7465 158.6 26.7465 156.355C26.7465 154.671 26.9717 153.156 27.4222 151.812C27.8796 150.46 28.5242 149.31 29.3558 148.36C30.1875 147.411 31.1716 146.683 32.3082 146.177C33.4448 145.671 34.6957 145.418 36.0611 145.418C37.1838 145.418 38.2303 145.588 39.2006 145.928C40.1778 146.261 41.0475 146.735 41.8099 147.352C42.5792 147.962 43.2202 148.693 43.7331 149.546C44.246 150.391 44.5994 151.33 44.7935 152.363H42.1322ZM51.4545 157.394V167H49.0011V145.71H51.4545V153.527H51.6624C52.0367 152.702 52.5981 152.047 53.3465 151.562C54.102 151.07 55.1069 150.824 56.3613 150.824C57.4494 150.824 58.4023 151.043 59.2201 151.479C60.0379 151.909 60.6721 152.571 61.1226 153.465C61.58 154.352 61.8087 155.482 61.8087 156.854V167H59.3553V157.02C59.3553 155.752 59.0261 154.771 58.3677 154.078C57.7162 153.378 56.8118 153.028 55.6544 153.028C54.8505 153.028 54.1297 153.198 53.4921 153.538C52.8614 153.877 52.3624 154.373 51.9951 155.024C51.6347 155.676 51.4545 156.466 51.4545 157.394ZM70.9959 167.374C69.984 167.374 69.0658 167.184 68.241 166.802C67.4163 166.414 66.7614 165.856 66.2762 165.129C65.7911 164.394 65.5485 163.507 65.5485 162.467C65.5485 161.553 65.7287 160.811 66.0891 160.243C66.4495 159.668 66.9312 159.217 67.5341 158.891C68.1371 158.566 68.8024 158.323 69.5301 158.164C70.2647 157.997 71.0028 157.866 71.7444 157.769C72.7147 157.644 73.5013 157.55 74.1042 157.488C74.7141 157.419 75.1576 157.304 75.4349 157.145C75.719 156.985 75.8611 156.708 75.8611 156.313V156.23C75.8611 155.204 75.5804 154.407 75.019 153.839C74.4646 153.271 73.6225 152.987 72.4929 152.987C71.3216 152.987 70.4033 153.243 69.738 153.756C69.0727 154.269 68.6049 154.816 68.3346 155.398L66.0059 154.567C66.4218 153.596 66.9762 152.841 67.6693 152.3C68.3692 151.753 69.1316 151.372 69.9563 151.157C70.788 150.935 71.6058 150.824 72.4097 150.824C72.9226 150.824 73.5117 150.887 74.177 151.011C74.8492 151.129 75.4972 151.375 76.121 151.749C76.7517 152.124 77.2749 152.689 77.6907 153.444C78.1066 154.199 78.3145 155.211 78.3145 156.48V167H75.8611V164.838H75.7363C75.57 165.184 75.2928 165.555 74.9047 165.95C74.5166 166.345 74.0003 166.681 73.3557 166.958C72.7112 167.236 71.9246 167.374 70.9959 167.374ZM71.3701 165.17C72.3404 165.17 73.1582 164.98 73.8235 164.599C74.4958 164.217 75.0017 163.725 75.3413 163.122C75.6878 162.519 75.8611 161.885 75.8611 161.22V158.974C75.7571 159.099 75.5284 159.214 75.175 159.318C74.8285 159.415 74.4265 159.501 73.9691 159.577C73.5186 159.647 73.0785 159.709 72.6488 159.765C72.2261 159.813 71.883 159.855 71.6196 159.889C70.982 159.972 70.386 160.108 69.8316 160.295C69.2841 160.475 68.8405 160.749 68.5009 161.116C68.1683 161.476 68.0019 161.968 68.0019 162.592C68.0019 163.445 68.3173 164.089 68.9479 164.526C69.5855 164.956 70.3929 165.17 71.3701 165.17ZM88.822 167.333C87.4913 167.333 86.3166 166.997 85.2978 166.324C84.279 165.645 83.482 164.689 82.9068 163.455C82.3316 162.215 82.044 160.749 82.044 159.058C82.044 157.38 82.3316 155.925 82.9068 154.691C83.482 153.458 84.2825 152.505 85.3082 151.833C86.3339 151.16 87.519 150.824 88.8635 150.824C89.9031 150.824 90.7244 150.998 91.3273 151.344C91.9372 151.684 92.4016 152.072 92.7204 152.508C93.0461 152.938 93.2991 153.292 93.4793 153.569H93.6872V145.71H96.1406V167H93.7703V164.547H93.4793C93.2991 164.838 93.0426 165.205 92.71 165.649C92.3773 166.085 91.9026 166.477 91.2858 166.823C90.6689 167.163 89.8477 167.333 88.822 167.333ZM89.1546 165.129C90.1388 165.129 90.9704 164.872 91.6496 164.359C92.3288 163.84 92.8451 163.122 93.1986 162.208C93.552 161.286 93.7287 160.222 93.7287 159.016C93.7287 157.824 93.5555 156.781 93.209 155.887C92.8624 154.986 92.3496 154.286 91.6704 153.787C90.9912 153.281 90.1526 153.028 89.1546 153.028C88.1151 153.028 87.2487 153.295 86.5557 153.829C85.8696 154.355 85.3533 155.073 85.0067 155.981C84.6671 156.881 84.4973 157.893 84.4973 159.016C84.4973 160.153 84.6706 161.185 85.0171 162.114C85.3706 163.036 85.8904 163.77 86.5765 164.318C87.2695 164.858 88.1289 165.129 89.1546 165.129ZM107.669 167.333C106.131 167.333 104.804 166.993 103.688 166.314C102.579 165.628 101.723 164.671 101.12 163.445C100.524 162.211 100.226 160.776 100.226 159.141C100.226 157.505 100.524 156.064 101.12 154.816C101.723 153.562 102.562 152.585 103.636 151.885C104.717 151.178 105.978 150.824 107.42 150.824C108.252 150.824 109.073 150.963 109.884 151.24C110.695 151.517 111.433 151.968 112.098 152.592C112.763 153.208 113.294 154.026 113.689 155.045C114.084 156.064 114.281 157.318 114.281 158.808V159.848H101.973V157.727H111.786C111.786 156.826 111.606 156.022 111.246 155.315C110.892 154.608 110.386 154.05 109.728 153.641C109.076 153.233 108.307 153.028 107.42 153.028C106.443 153.028 105.597 153.271 104.883 153.756C104.176 154.234 103.632 154.858 103.251 155.627C102.87 156.396 102.679 157.221 102.679 158.101V159.515C102.679 160.721 102.887 161.743 103.303 162.582C103.726 163.413 104.312 164.048 105.06 164.484C105.809 164.914 106.678 165.129 107.669 165.129C108.314 165.129 108.896 165.039 109.416 164.858C109.943 164.671 110.397 164.394 110.778 164.027C111.159 163.653 111.453 163.188 111.661 162.634L114.032 163.299C113.782 164.103 113.363 164.81 112.774 165.42C112.185 166.023 111.457 166.494 110.591 166.834C109.724 167.166 108.751 167.333 107.669 167.333ZM124.708 167.333C123.169 167.333 121.842 166.993 120.726 166.314C119.618 165.628 118.762 164.671 118.159 163.445C117.563 162.211 117.265 160.776 117.265 159.141C117.265 157.505 117.563 156.064 118.159 154.816C118.762 153.562 119.6 152.585 120.674 151.885C121.756 151.178 123.017 150.824 124.459 150.824C125.29 150.824 126.111 150.963 126.922 151.24C127.733 151.517 128.471 151.968 129.137 152.592C129.802 153.208 130.332 154.026 130.727 155.045C131.122 156.064 131.32 157.318 131.32 158.808V159.848H119.011V157.727H128.825C128.825 156.826 128.645 156.022 128.284 155.315C127.931 154.608 127.425 154.05 126.766 153.641C126.115 153.233 125.346 153.028 124.459 153.028C123.481 153.028 122.636 153.271 121.922 153.756C121.215 154.234 120.671 154.858 120.29 155.627C119.909 156.396 119.718 157.221 119.718 158.101V159.515C119.718 160.721 119.926 161.743 120.342 162.582C120.765 163.413 121.35 164.048 122.099 164.484C122.847 164.914 123.717 165.129 124.708 165.129C125.353 165.129 125.935 165.039 126.454 164.858C126.981 164.671 127.435 164.394 127.816 164.027C128.198 163.653 128.492 163.188 128.7 162.634L131.07 163.299C130.821 164.103 130.401 164.81 129.812 165.42C129.223 166.023 128.496 166.494 127.629 166.834C126.763 167.166 125.789 167.333 124.708 167.333ZM135.052 167V151.032H137.422V153.444H137.588C137.879 152.654 138.406 152.013 139.168 151.521C139.931 151.029 140.79 150.783 141.747 150.783C141.927 150.783 142.152 150.786 142.422 150.793C142.693 150.8 142.897 150.81 143.036 150.824V153.319C142.953 153.298 142.762 153.267 142.464 153.226C142.173 153.177 141.864 153.153 141.539 153.153C140.762 153.153 140.069 153.316 139.46 153.641C138.857 153.96 138.378 154.404 138.025 154.972C137.678 155.534 137.505 156.175 137.505 156.895V167H135.052Z" fill="black"/>
<path d="M649.943 144.545V162H647.83V146.761H647.727L643.466 149.591V147.443L647.83 144.545H649.943ZM654.963 162V160.466L660.724 154.159C661.401 153.42 661.957 152.778 662.395 152.233C662.832 151.682 663.156 151.165 663.366 150.682C663.582 150.193 663.69 149.682 663.69 149.148C663.69 148.534 663.543 148.003 663.247 147.554C662.957 147.105 662.56 146.759 662.054 146.514C661.548 146.27 660.98 146.148 660.349 146.148C659.679 146.148 659.094 146.287 658.594 146.565C658.099 146.838 657.716 147.222 657.443 147.716C657.176 148.21 657.043 148.79 657.043 149.455H655.031C655.031 148.432 655.267 147.534 655.739 146.761C656.21 145.989 656.852 145.386 657.665 144.955C658.483 144.523 659.401 144.307 660.418 144.307C661.44 144.307 662.347 144.523 663.136 144.955C663.926 145.386 664.545 145.969 664.994 146.702C665.443 147.435 665.668 148.25 665.668 149.148C665.668 149.79 665.551 150.418 665.318 151.031C665.091 151.639 664.693 152.318 664.125 153.068C663.562 153.812 662.781 154.722 661.781 155.795L657.861 159.989V160.125H665.974V162H654.963ZM675.699 143.727L670.074 164.625H668.233L673.858 143.727H675.699ZM678.049 162V160.466L683.81 154.159C684.487 153.42 685.043 152.778 685.481 152.233C685.918 151.682 686.242 151.165 686.452 150.682C686.668 150.193 686.776 149.682 686.776 149.148C686.776 148.534 686.629 148.003 686.333 147.554C686.043 147.105 685.646 146.759 685.14 146.514C684.634 146.27 684.066 146.148 683.435 146.148C682.765 146.148 682.18 146.287 681.68 146.565C681.185 146.838 680.802 147.222 680.529 147.716C680.262 148.21 680.129 148.79 680.129 149.455H678.117C678.117 148.432 678.353 147.534 678.825 146.761C679.296 145.989 679.938 145.386 680.751 144.955C681.569 144.523 682.487 144.307 683.504 144.307C684.526 144.307 685.433 144.523 686.222 144.955C687.012 145.386 687.631 145.969 688.08 146.702C688.529 147.435 688.754 148.25 688.754 149.148C688.754 149.79 688.637 150.418 688.404 151.031C688.177 151.639 687.779 152.318 687.211 153.068C686.648 153.812 685.867 154.722 684.867 155.795L680.947 159.989V160.125H689.06V162H678.049ZM692.58 162V160.466L698.342 154.159C699.018 153.42 699.575 152.778 700.012 152.233C700.45 151.682 700.773 151.165 700.984 150.682C701.2 150.193 701.308 149.682 701.308 149.148C701.308 148.534 701.16 148.003 700.864 147.554C700.575 147.105 700.177 146.759 699.671 146.514C699.165 146.27 698.597 146.148 697.967 146.148C697.296 146.148 696.711 146.287 696.211 146.565C695.717 146.838 695.333 147.222 695.06 147.716C694.793 148.21 694.66 148.79 694.66 149.455H692.648C692.648 148.432 692.884 147.534 693.356 146.761C693.827 145.989 694.469 145.386 695.282 144.955C696.1 144.523 697.018 144.307 698.035 144.307C699.058 144.307 699.964 144.523 700.754 144.955C701.543 145.386 702.163 145.969 702.612 146.702C703.06 147.435 703.285 148.25 703.285 149.148C703.285 149.79 703.168 150.418 702.935 151.031C702.708 151.639 702.31 152.318 701.742 153.068C701.18 153.812 700.398 154.722 699.398 155.795L695.478 159.989V160.125H703.592V162H692.58ZM713.316 143.727L707.691 164.625H705.85L711.475 143.727H713.316ZM715.666 162V160.466L721.428 154.159C722.104 153.42 722.661 152.778 723.098 152.233C723.536 151.682 723.859 151.165 724.07 150.682C724.286 150.193 724.393 149.682 724.393 149.148C724.393 148.534 724.246 148.003 723.95 147.554C723.661 147.105 723.263 146.759 722.757 146.514C722.251 146.27 721.683 146.148 721.053 146.148C720.382 146.148 719.797 146.287 719.297 146.565C718.803 146.838 718.419 147.222 718.146 147.716C717.879 148.21 717.746 148.79 717.746 149.455H715.734C715.734 148.432 715.97 147.534 716.442 146.761C716.913 145.989 717.555 145.386 718.368 144.955C719.186 144.523 720.104 144.307 721.121 144.307C722.143 144.307 723.05 144.523 723.839 144.955C724.629 145.386 725.249 145.969 725.697 146.702C726.146 147.435 726.371 148.25 726.371 149.148C726.371 149.79 726.254 150.418 726.021 151.031C725.794 151.639 725.396 152.318 724.828 153.068C724.266 153.812 723.484 154.722 722.484 155.795L718.564 159.989V160.125H726.678V162H715.666ZM735.891 162.239C734.607 162.239 733.513 161.889 732.609 161.19C731.706 160.486 731.016 159.466 730.538 158.131C730.061 156.79 729.822 155.17 729.822 153.273C729.822 151.386 730.061 149.776 730.538 148.44C731.021 147.099 731.714 146.077 732.618 145.372C733.527 144.662 734.618 144.307 735.891 144.307C737.163 144.307 738.251 144.662 739.155 145.372C740.064 146.077 740.757 147.099 741.234 148.44C741.717 149.776 741.959 151.386 741.959 153.273C741.959 155.17 741.72 156.79 741.243 158.131C740.766 159.466 740.075 160.486 739.172 161.19C738.268 161.889 737.175 162.239 735.891 162.239ZM735.891 160.364C737.163 160.364 738.152 159.75 738.857 158.523C739.561 157.295 739.913 155.545 739.913 153.273C739.913 151.761 739.751 150.474 739.428 149.412C739.109 148.349 738.649 147.54 738.047 146.983C737.45 146.426 736.732 146.148 735.891 146.148C734.629 146.148 733.643 146.77 732.933 148.014C732.223 149.253 731.868 151.006 731.868 153.273C731.868 154.784 732.027 156.068 732.345 157.125C732.663 158.182 733.121 158.986 733.717 159.537C734.32 160.088 735.044 160.364 735.891 160.364ZM745.197 162V160.466L750.959 154.159C751.635 153.42 752.192 152.778 752.629 152.233C753.067 151.682 753.391 151.165 753.601 150.682C753.817 150.193 753.925 149.682 753.925 149.148C753.925 148.534 753.777 148.003 753.482 147.554C753.192 147.105 752.794 146.759 752.288 146.514C751.783 146.27 751.214 146.148 750.584 146.148C749.913 146.148 749.328 146.287 748.828 146.565C748.334 146.838 747.95 147.222 747.678 147.716C747.411 148.21 747.277 148.79 747.277 149.455H745.266C745.266 148.432 745.501 147.534 745.973 146.761C746.445 145.989 747.087 145.386 747.899 144.955C748.717 144.523 749.635 144.307 750.652 144.307C751.675 144.307 752.581 144.523 753.371 144.955C754.161 145.386 754.78 145.969 755.229 146.702C755.678 147.435 755.902 148.25 755.902 149.148C755.902 149.79 755.786 150.418 755.553 151.031C755.325 151.639 754.928 152.318 754.359 153.068C753.797 153.812 753.016 154.722 752.016 155.795L748.095 159.989V160.125H756.209V162H745.197ZM765.626 162.239C764.501 162.239 763.499 162.045 762.618 161.659C761.743 161.273 761.047 160.736 760.53 160.048C760.018 159.355 759.74 158.551 759.695 157.636H761.842C761.888 158.199 762.081 158.685 762.422 159.094C762.763 159.497 763.209 159.81 763.76 160.031C764.311 160.253 764.922 160.364 765.592 160.364C766.342 160.364 767.007 160.233 767.587 159.972C768.166 159.71 768.621 159.347 768.95 158.881C769.28 158.415 769.445 157.875 769.445 157.261C769.445 156.619 769.286 156.054 768.967 155.565C768.649 155.071 768.183 154.685 767.57 154.406C766.956 154.128 766.206 153.989 765.32 153.989H763.922V152.114H765.32C766.013 152.114 766.621 151.989 767.143 151.739C767.672 151.489 768.084 151.136 768.379 150.682C768.68 150.227 768.831 149.693 768.831 149.08C768.831 148.489 768.7 147.974 768.439 147.537C768.178 147.099 767.808 146.759 767.331 146.514C766.859 146.27 766.303 146.148 765.661 146.148C765.058 146.148 764.49 146.259 763.956 146.48C763.428 146.696 762.996 147.011 762.661 147.426C762.325 147.835 762.143 148.33 762.115 148.909H760.07C760.104 147.994 760.379 147.193 760.896 146.506C761.413 145.812 762.089 145.273 762.925 144.886C763.766 144.5 764.689 144.307 765.695 144.307C766.774 144.307 767.7 144.526 768.473 144.963C769.246 145.395 769.839 145.966 770.254 146.676C770.669 147.386 770.876 148.153 770.876 148.977C770.876 149.96 770.618 150.798 770.101 151.491C769.589 152.185 768.893 152.665 768.013 152.932V153.068C769.115 153.25 769.976 153.719 770.595 154.474C771.214 155.224 771.524 156.153 771.524 157.261C771.524 158.21 771.266 159.062 770.749 159.818C770.237 160.568 769.538 161.159 768.652 161.591C767.766 162.023 766.757 162.239 765.626 162.239Z" fill="black"/>
<path d="M901.692 169H896.168V151.098H901.937C903.674 151.098 905.16 151.456 906.395 152.173C907.631 152.884 908.578 153.907 909.236 155.241C909.895 156.57 910.224 158.161 910.224 160.014C910.224 161.879 909.892 163.484 909.227 164.83C908.563 166.171 907.596 167.202 906.325 167.925C905.055 168.642 903.51 169 901.692 169ZM898.336 167.077H901.552C903.033 167.077 904.259 166.791 905.233 166.22C906.206 165.649 906.931 164.836 907.409 163.781C907.887 162.727 908.126 161.471 908.126 160.014C908.126 158.569 907.89 157.325 907.418 156.281C906.946 155.233 906.241 154.428 905.302 153.869C904.364 153.304 903.196 153.021 901.797 153.021H898.336V167.077ZM919.21 169.28C917.916 169.28 916.8 168.994 915.862 168.423C914.929 167.846 914.21 167.042 913.703 166.01C913.202 164.973 912.951 163.767 912.951 162.392C912.951 161.016 913.202 159.804 913.703 158.755C914.21 157.7 914.915 156.879 915.818 156.29C916.727 155.696 917.788 155.399 919 155.399C919.699 155.399 920.39 155.515 921.072 155.748C921.753 155.981 922.374 156.36 922.934 156.885C923.493 157.403 923.939 158.091 924.271 158.948C924.603 159.804 924.769 160.859 924.769 162.112V162.986H914.42V161.203H922.671C922.671 160.445 922.52 159.769 922.217 159.175C921.92 158.58 921.494 158.111 920.941 157.767C920.393 157.424 919.746 157.252 919 157.252C918.178 157.252 917.467 157.456 916.867 157.864C916.273 158.266 915.815 158.79 915.495 159.437C915.174 160.084 915.014 160.777 915.014 161.517V162.706C915.014 163.72 915.189 164.58 915.538 165.285C915.894 165.984 916.386 166.517 917.016 166.885C917.645 167.246 918.376 167.427 919.21 167.427C919.752 167.427 920.241 167.351 920.678 167.199C921.121 167.042 921.503 166.809 921.823 166.5C922.144 166.185 922.392 165.795 922.566 165.329L924.559 165.888C924.35 166.564 923.997 167.159 923.502 167.671C923.006 168.178 922.395 168.575 921.666 168.86C920.938 169.14 920.119 169.28 919.21 169.28ZM929.97 151.098V169H927.907V151.098H929.97ZM939.378 169.28C938.084 169.28 936.968 168.994 936.03 168.423C935.098 167.846 934.378 167.042 933.871 166.01C933.37 164.973 933.119 163.767 933.119 162.392C933.119 161.016 933.37 159.804 933.871 158.755C934.378 157.7 935.083 156.879 935.986 156.29C936.896 155.696 937.956 155.399 939.168 155.399C939.868 155.399 940.558 155.515 941.24 155.748C941.922 155.981 942.542 156.36 943.102 156.885C943.661 157.403 944.107 158.091 944.439 158.948C944.771 159.804 944.937 160.859 944.937 162.112V162.986H934.588V161.203H942.84C942.84 160.445 942.688 159.769 942.385 159.175C942.088 158.58 941.662 158.111 941.109 157.767C940.561 157.424 939.914 157.252 939.168 157.252C938.347 157.252 937.636 157.456 937.035 157.864C936.441 158.266 935.984 158.79 935.663 159.437C935.343 160.084 935.182 160.777 935.182 161.517V162.706C935.182 163.72 935.357 164.58 935.707 165.285C936.062 165.984 936.555 166.517 937.184 166.885C937.813 167.246 938.545 167.427 939.378 167.427C939.92 167.427 940.41 167.351 940.847 167.199C941.289 167.042 941.671 166.809 941.992 166.5C942.312 166.185 942.56 165.795 942.735 165.329L944.728 165.888C944.518 166.564 944.165 167.159 943.67 167.671C943.175 168.178 942.563 168.575 941.834 168.86C941.106 169.14 940.287 169.28 939.378 169.28ZM953.915 155.573V157.322H946.957V155.573H953.915ZM948.985 152.357H951.048V165.154C951.048 165.737 951.132 166.174 951.301 166.465C951.476 166.751 951.697 166.943 951.965 167.042C952.239 167.135 952.528 167.182 952.831 167.182C953.058 167.182 953.245 167.17 953.39 167.147C953.536 167.118 953.653 167.094 953.74 167.077L954.16 168.93C954.02 168.983 953.824 169.035 953.574 169.087C953.323 169.146 953.006 169.175 952.621 169.175C952.038 169.175 951.467 169.05 950.908 168.799C950.354 168.548 949.894 168.167 949.527 167.654C949.165 167.141 948.985 166.494 948.985 165.713V152.357ZM962.503 169.28C961.209 169.28 960.093 168.994 959.155 168.423C958.223 167.846 957.503 167.042 956.996 166.01C956.495 164.973 956.244 163.767 956.244 162.392C956.244 161.016 956.495 159.804 956.996 158.755C957.503 157.7 958.208 156.879 959.111 156.29C960.021 155.696 961.081 155.399 962.293 155.399C962.993 155.399 963.683 155.515 964.365 155.748C965.047 155.981 965.667 156.36 966.227 156.885C966.786 157.403 967.232 158.091 967.564 158.948C967.896 159.804 968.062 160.859 968.062 162.112V162.986H957.713V161.203H965.965C965.965 160.445 965.813 159.769 965.51 159.175C965.213 158.58 964.787 158.111 964.234 157.767C963.686 157.424 963.039 157.252 962.293 157.252C961.472 157.252 960.761 157.456 960.16 157.864C959.566 158.266 959.109 158.79 958.788 159.437C958.468 160.084 958.307 160.777 958.307 161.517V162.706C958.307 163.72 958.482 164.58 958.832 165.285C959.187 165.984 959.68 166.517 960.309 166.885C960.938 167.246 961.67 167.427 962.503 167.427C963.045 167.427 963.535 167.351 963.972 167.199C964.414 167.042 964.796 166.809 965.117 166.5C965.437 166.185 965.685 165.795 965.86 165.329L967.853 165.888C967.643 166.564 967.29 167.159 966.795 167.671C966.3 168.178 965.688 168.575 964.959 168.86C964.231 169.14 963.412 169.28 962.503 169.28Z" fill="white"/>
<rect x="866" y="136" width="129" height="53" rx="10" fill="#ED2A2A"/>
<path d="M901.692 168H896.168V150.098H901.937C903.674 150.098 905.16 150.456 906.395 151.173C907.631 151.884 908.578 152.907 909.236 154.241C909.895 155.57 910.224 157.161 910.224 159.014C910.224 160.879 909.892 162.484 909.227 163.83C908.563 165.171 907.596 166.202 906.325 166.925C905.055 167.642 903.51 168 901.692 168ZM898.336 166.077H901.552C903.033 166.077 904.259 165.791 905.233 165.22C906.206 164.649 906.931 163.836 907.409 162.781C907.887 161.727 908.126 160.471 908.126 159.014C908.126 157.569 907.89 156.325 907.418 155.281C906.946 154.233 906.241 153.428 905.302 152.869C904.364 152.304 903.196 152.021 901.797 152.021H898.336V166.077ZM919.21 168.28C917.916 168.28 916.8 167.994 915.862 167.423C914.929 166.846 914.21 166.042 913.703 165.01C913.202 163.973 912.951 162.767 912.951 161.392C912.951 160.016 913.202 158.804 913.703 157.755C914.21 156.7 914.915 155.879 915.818 155.29C916.727 154.696 917.788 154.399 919 154.399C919.699 154.399 920.39 154.515 921.072 154.748C921.753 154.981 922.374 155.36 922.934 155.885C923.493 156.403 923.939 157.091 924.271 157.948C924.603 158.804 924.769 159.859 924.769 161.112V161.986H914.42V160.203H922.671C922.671 159.445 922.52 158.769 922.217 158.175C921.92 157.58 921.494 157.111 920.941 156.767C920.393 156.424 919.746 156.252 919 156.252C918.178 156.252 917.467 156.456 916.867 156.864C916.273 157.266 915.815 157.79 915.495 158.437C915.174 159.084 915.014 159.777 915.014 160.517V161.706C915.014 162.72 915.189 163.58 915.538 164.285C915.894 164.984 916.386 165.517 917.016 165.885C917.645 166.246 918.376 166.427 919.21 166.427C919.752 166.427 920.241 166.351 920.678 166.199C921.121 166.042 921.503 165.809 921.823 165.5C922.144 165.185 922.392 164.795 922.566 164.329L924.559 164.888C924.35 165.564 923.997 166.159 923.502 166.671C923.006 167.178 922.395 167.575 921.666 167.86C920.938 168.14 920.119 168.28 919.21 168.28ZM929.97 150.098V168H927.907V150.098H929.97ZM939.378 168.28C938.084 168.28 936.968 167.994 936.03 167.423C935.098 166.846 934.378 166.042 933.871 165.01C933.37 163.973 933.119 162.767 933.119 161.392C933.119 160.016 933.37 158.804 933.871 157.755C934.378 156.7 935.083 155.879 935.986 155.29C936.896 154.696 937.956 154.399 939.168 154.399C939.868 154.399 940.558 154.515 941.24 154.748C941.922 154.981 942.542 155.36 943.102 155.885C943.661 156.403 944.107 157.091 944.439 157.948C944.771 158.804 944.937 159.859 944.937 161.112V161.986H934.588V160.203H942.84C942.84 159.445 942.688 158.769 942.385 158.175C942.088 157.58 941.662 157.111 941.109 156.767C940.561 156.424 939.914 156.252 939.168 156.252C938.347 156.252 937.636 156.456 937.035 156.864C936.441 157.266 935.984 157.79 935.663 158.437C935.343 159.084 935.182 159.777 935.182 160.517V161.706C935.182 162.72 935.357 163.58 935.707 164.285C936.062 164.984 936.555 165.517 937.184 165.885C937.813 166.246 938.545 166.427 939.378 166.427C939.92 166.427 940.41 166.351 940.847 166.199C941.289 166.042 941.671 165.809 941.992 165.5C942.312 165.185 942.56 164.795 942.735 164.329L944.728 164.888C944.518 165.564 944.165 166.159 943.67 166.671C943.175 167.178 942.563 167.575 941.834 167.86C941.106 168.14 940.287 168.28 939.378 168.28ZM953.915 154.573V156.322H946.957V154.573H953.915ZM948.985 151.357H951.048V164.154C951.048 164.737 951.132 165.174 951.301 165.465C951.476 165.751 951.697 165.943 951.965 166.042C952.239 166.135 952.528 166.182 952.831 166.182C953.058 166.182 953.245 166.17 953.39 166.147C953.536 166.118 953.653 166.094 953.74 166.077L954.16 167.93C954.02 167.983 953.824 168.035 953.574 168.087C953.323 168.146 953.006 168.175 952.621 168.175C952.038 168.175 951.467 168.05 950.908 167.799C950.354 167.548 949.894 167.167 949.527 166.654C949.165 166.141 948.985 165.494 948.985 164.713V151.357ZM962.503 168.28C961.209 168.28 960.093 167.994 959.155 167.423C958.223 166.846 957.503 166.042 956.996 165.01C956.495 163.973 956.244 162.767 956.244 161.392C956.244 160.016 956.495 158.804 956.996 157.755C957.503 156.7 958.208 155.879 959.111 155.29C960.021 154.696 961.081 154.399 962.293 154.399C962.993 154.399 963.683 154.515 964.365 154.748C965.047 154.981 965.667 155.36 966.227 155.885C966.786 156.403 967.232 157.091 967.564 157.948C967.896 158.804 968.062 159.859 968.062 161.112V161.986H957.713V160.203H965.965C965.965 159.445 965.813 158.769 965.51 158.175C965.213 157.58 964.787 157.111 964.234 156.767C963.686 156.424 963.039 156.252 962.293 156.252C961.472 156.252 960.761 156.456 960.16 156.864C959.566 157.266 959.109 157.79 958.788 158.437C958.468 159.084 958.307 159.777 958.307 160.517V161.706C958.307 162.72 958.482 163.58 958.832 164.285C959.187 164.984 959.68 165.517 960.309 165.885C960.938 166.246 961.67 166.427 962.503 166.427C963.045 166.427 963.535 166.351 963.972 166.199C964.414 166.042 964.796 165.809 965.117 165.5C965.437 165.185 965.685 164.795 965.86 164.329L967.853 164.888C967.643 165.564 967.29 166.159 966.795 166.671C966.3 167.178 965.688 167.575 964.959 167.86C964.231 168.14 963.412 168.28 962.503 168.28Z" fill="white"/>
</svg>
