<svg width="129" height="53" viewBox="0 0 129 53" fill="none" xmlns="http://www.w3.org/2000/svg">
<path d="M35.6923 33H30.1678V15.0979H35.9371C37.6737 15.0979 39.1597 15.4563 40.3951 16.1731C41.6305 16.884 42.5775 17.9068 43.236 19.2413C43.8945 20.5699 44.2238 22.1608 44.2238 24.014C44.2238 25.8788 43.8916 27.4843 43.2273 28.8304C42.5629 30.1707 41.5956 31.2022 40.3252 31.9248C39.0548 32.6416 37.5105 33 35.6923 33ZM32.3357 31.0769H35.5524C37.0326 31.0769 38.2593 30.7914 39.2325 30.2203C40.2057 29.6492 40.9312 28.8362 41.4091 27.7815C41.8869 26.7267 42.1259 25.4709 42.1259 24.014C42.1259 22.5688 41.8899 21.3246 41.4178 20.2815C40.9458 19.2325 40.2407 18.4283 39.3024 17.8689C38.3642 17.3036 37.1958 17.021 35.7972 17.021H32.3357V31.0769ZM53.2098 33.2797C51.9161 33.2797 50.8001 32.9942 49.8619 32.4231C48.9295 31.8462 48.2098 31.042 47.7028 30.0105C47.2016 28.9732 46.951 27.7669 46.951 26.3916C46.951 25.0163 47.2016 23.8042 47.7028 22.7552C48.2098 21.7005 48.9149 20.8788 49.8182 20.2902C50.7273 19.6958 51.7879 19.3986 53 19.3986C53.6993 19.3986 54.3899 19.5152 55.0717 19.7483C55.7535 19.9814 56.3741 20.3601 56.9336 20.8846C57.493 21.4033 57.9388 22.0909 58.271 22.9476C58.6031 23.8042 58.7692 24.859 58.7692 26.1119V26.986H48.4196V25.2028H56.6713C56.6713 24.4452 56.5198 23.7692 56.2168 23.1748C55.9196 22.5804 55.4942 22.1113 54.9406 21.7675C54.3928 21.4237 53.7459 21.2517 53 21.2517C52.1783 21.2517 51.4674 21.4557 50.8671 21.8636C50.2727 22.2657 49.8153 22.7902 49.4948 23.4371C49.1742 24.0839 49.014 24.7774 49.014 25.5175V26.7063C49.014 27.7203 49.1888 28.5798 49.5385 29.285C49.8939 29.9843 50.3864 30.5175 51.0157 30.8846C51.6451 31.2459 52.3765 31.4266 53.2098 31.4266C53.7517 31.4266 54.2413 31.3508 54.6783 31.1993C55.1212 31.042 55.5029 30.8089 55.8234 30.5C56.1439 30.1853 56.3916 29.7949 56.5664 29.3287L58.5594 29.8881C58.3497 30.5641 57.9971 31.1585 57.5017 31.6713C57.0064 32.1783 56.3945 32.5746 55.6661 32.8601C54.9376 33.1399 54.1189 33.2797 53.2098 33.2797ZM63.9703 15.0979V33H61.9073V15.0979H63.9703ZM73.3781 33.2797C72.0844 33.2797 70.9684 32.9942 70.0302 32.4231C69.0978 31.8462 68.3781 31.042 67.8711 30.0105C67.3699 28.9732 67.1193 27.7669 67.1193 26.3916C67.1193 25.0163 67.3699 23.8042 67.8711 22.7552C68.3781 21.7005 69.0832 20.8788 69.9865 20.2902C70.8955 19.6958 71.9561 19.3986 73.1683 19.3986C73.8676 19.3986 74.5581 19.5152 75.2399 19.7483C75.9218 19.9814 76.5424 20.3601 77.1018 20.8846C77.6613 21.4033 78.1071 22.0909 78.4392 22.9476C78.7714 23.8042 78.9375 24.859 78.9375 26.1119V26.986H68.5878V25.2028H76.8396C76.8396 24.4452 76.6881 23.7692 76.3851 23.1748C76.0878 22.5804 75.6624 22.1113 75.1088 21.7675C74.561 21.4237 73.9142 21.2517 73.1683 21.2517C72.3466 21.2517 71.6356 21.4557 71.0354 21.8636C70.441 22.2657 69.9835 22.7902 69.663 23.4371C69.3425 24.0839 69.1823 24.7774 69.1823 25.5175V26.7063C69.1823 27.7203 69.3571 28.5798 69.7067 29.285C70.0622 29.9843 70.5546 30.5175 71.184 30.8846C71.8134 31.2459 72.5447 31.4266 73.3781 31.4266C73.92 31.4266 74.4095 31.3508 74.8466 31.1993C75.2895 31.042 75.6712 30.8089 75.9917 30.5C76.3122 30.1853 76.5599 29.7949 76.7347 29.3287L78.7277 29.8881C78.5179 30.5641 78.1654 31.1585 77.67 31.6713C77.1747 32.1783 76.5628 32.5746 75.8344 32.8601C75.1059 33.1399 74.2872 33.2797 73.3781 33.2797ZM87.9148 19.5734V21.3217H80.9567V19.5734H87.9148ZM82.9847 16.3566H85.0476V29.1538C85.0476 29.7366 85.1321 30.1737 85.3011 30.465C85.476 30.7506 85.6974 30.9429 85.9655 31.042C86.2394 31.1352 86.5278 31.1818 86.8309 31.1818C87.0581 31.1818 87.2446 31.1702 87.3903 31.1469C87.536 31.1177 87.6525 31.0944 87.7399 31.0769L88.1595 32.9301C88.0197 32.9825 87.8244 33.035 87.5739 33.0874C87.3233 33.1457 87.0057 33.1748 86.6211 33.1748C86.0383 33.1748 85.4672 33.0495 84.9078 32.799C84.3542 32.5484 83.8938 32.1667 83.5267 31.6538C83.1654 31.141 82.9847 30.4942 82.9847 29.7133V16.3566ZM96.5031 33.2797C95.2094 33.2797 94.0934 32.9942 93.1552 32.4231C92.2228 31.8462 91.5031 31.042 90.9961 30.0105C90.4949 28.9732 90.2443 27.7669 90.2443 26.3916C90.2443 25.0163 90.4949 23.8042 90.9961 22.7552C91.5031 21.7005 92.2082 20.8788 93.1115 20.2902C94.0205 19.6958 95.0811 19.3986 96.2933 19.3986C96.9926 19.3986 97.6831 19.5152 98.3649 19.7483C99.0468 19.9814 99.6674 20.3601 100.227 20.8846C100.786 21.4033 101.232 22.0909 101.564 22.9476C101.896 23.8042 102.062 24.859 102.062 26.1119V26.986H91.7128V25.2028H99.9646C99.9646 24.4452 99.8131 23.7692 99.5101 23.1748C99.2128 22.5804 98.7874 22.1113 98.2338 21.7675C97.686 21.4237 97.0392 21.2517 96.2933 21.2517C95.4716 21.2517 94.7606 21.4557 94.1604 21.8636C93.566 22.2657 93.1085 22.7902 92.788 23.4371C92.4675 24.0839 92.3073 24.7774 92.3073 25.5175V26.7063C92.3073 27.7203 92.4821 28.5798 92.8317 29.285C93.1872 29.9843 93.6796 30.5175 94.309 30.8846C94.9384 31.2459 95.6697 31.4266 96.5031 31.4266C97.045 31.4266 97.5345 31.3508 97.9716 31.1993C98.4145 31.042 98.7962 30.8089 99.1167 30.5C99.4372 30.1853 99.6849 29.7949 99.8597 29.3287L101.853 29.8881C101.643 30.5641 101.29 31.1585 100.795 31.6713C100.3 32.1783 99.6878 32.5746 98.9594 32.8601C98.2309 33.1399 97.4122 33.2797 96.5031 33.2797Z" fill="white"/>
<rect width="129" height="53" rx="10" fill="#ED2A2A"/>
<path d="M35.6923 32H30.1678V14.0979H35.9371C37.6737 14.0979 39.1597 14.4563 40.3951 15.1731C41.6305 15.884 42.5775 16.9068 43.236 18.2413C43.8945 19.5699 44.2238 21.1608 44.2238 23.014C44.2238 24.8788 43.8916 26.4843 43.2273 27.8304C42.5629 29.1707 41.5956 30.2022 40.3252 30.9248C39.0548 31.6416 37.5105 32 35.6923 32ZM32.3357 30.0769H35.5524C37.0326 30.0769 38.2593 29.7914 39.2325 29.2203C40.2057 28.6492 40.9312 27.8362 41.4091 26.7815C41.8869 25.7267 42.1259 24.4709 42.1259 23.014C42.1259 21.5688 41.8899 20.3246 41.4178 19.2815C40.9458 18.2325 40.2407 17.4283 39.3024 16.8689C38.3642 16.3036 37.1958 16.021 35.7972 16.021H32.3357V30.0769ZM53.2098 32.2797C51.9161 32.2797 50.8001 31.9942 49.8619 31.4231C48.9295 30.8462 48.2098 30.042 47.7028 29.0105C47.2016 27.9732 46.951 26.7669 46.951 25.3916C46.951 24.0163 47.2016 22.8042 47.7028 21.7552C48.2098 20.7005 48.9149 19.8788 49.8182 19.2902C50.7273 18.6958 51.7879 18.3986 53 18.3986C53.6993 18.3986 54.3899 18.5152 55.0717 18.7483C55.7535 18.9814 56.3741 19.3601 56.9336 19.8846C57.493 20.4033 57.9388 21.0909 58.271 21.9476C58.6031 22.8042 58.7692 23.859 58.7692 25.1119V25.986H48.4196V24.2028H56.6713C56.6713 23.4452 56.5198 22.7692 56.2168 22.1748C55.9196 21.5804 55.4942 21.1113 54.9406 20.7675C54.3928 20.4237 53.7459 20.2517 53 20.2517C52.1783 20.2517 51.4674 20.4557 50.8671 20.8636C50.2727 21.2657 49.8153 21.7902 49.4948 22.4371C49.1742 23.0839 49.014 23.7774 49.014 24.5175V25.7063C49.014 26.7203 49.1888 27.5798 49.5385 28.285C49.8939 28.9843 50.3864 29.5175 51.0157 29.8846C51.6451 30.2459 52.3765 30.4266 53.2098 30.4266C53.7517 30.4266 54.2413 30.3508 54.6783 30.1993C55.1212 30.042 55.5029 29.8089 55.8234 29.5C56.1439 29.1853 56.3916 28.7949 56.5664 28.3287L58.5594 28.8881C58.3497 29.5641 57.9971 30.1585 57.5017 30.6713C57.0064 31.1783 56.3945 31.5746 55.6661 31.8601C54.9376 32.1399 54.1189 32.2797 53.2098 32.2797ZM63.9703 14.0979V32H61.9073V14.0979H63.9703ZM73.3781 32.2797C72.0844 32.2797 70.9684 31.9942 70.0302 31.4231C69.0978 30.8462 68.3781 30.042 67.8711 29.0105C67.3699 27.9732 67.1193 26.7669 67.1193 25.3916C67.1193 24.0163 67.3699 22.8042 67.8711 21.7552C68.3781 20.7005 69.0832 19.8788 69.9865 19.2902C70.8955 18.6958 71.9561 18.3986 73.1683 18.3986C73.8676 18.3986 74.5581 18.5152 75.2399 18.7483C75.9218 18.9814 76.5424 19.3601 77.1018 19.8846C77.6613 20.4033 78.1071 21.0909 78.4392 21.9476C78.7714 22.8042 78.9375 23.859 78.9375 25.1119V25.986H68.5878V24.2028H76.8396C76.8396 23.4452 76.6881 22.7692 76.3851 22.1748C76.0878 21.5804 75.6624 21.1113 75.1088 20.7675C74.561 20.4237 73.9142 20.2517 73.1683 20.2517C72.3466 20.2517 71.6356 20.4557 71.0354 20.8636C70.441 21.2657 69.9835 21.7902 69.663 22.4371C69.3425 23.0839 69.1823 23.7774 69.1823 24.5175V25.7063C69.1823 26.7203 69.3571 27.5798 69.7067 28.285C70.0622 28.9843 70.5546 29.5175 71.184 29.8846C71.8134 30.2459 72.5447 30.4266 73.3781 30.4266C73.92 30.4266 74.4095 30.3508 74.8466 30.1993C75.2895 30.042 75.6712 29.8089 75.9917 29.5C76.3122 29.1853 76.5599 28.7949 76.7347 28.3287L78.7277 28.8881C78.5179 29.5641 78.1654 30.1585 77.67 30.6713C77.1747 31.1783 76.5628 31.5746 75.8344 31.8601C75.1059 32.1399 74.2872 32.2797 73.3781 32.2797ZM87.9148 18.5734V20.3217H80.9567V18.5734H87.9148ZM82.9847 15.3566H85.0476V28.1538C85.0476 28.7366 85.1321 29.1737 85.3011 29.465C85.476 29.7506 85.6974 29.9429 85.9655 30.042C86.2394 30.1352 86.5278 30.1818 86.8309 30.1818C87.0581 30.1818 87.2446 30.1702 87.3903 30.1469C87.536 30.1177 87.6525 30.0944 87.7399 30.0769L88.1595 31.9301C88.0197 31.9825 87.8244 32.035 87.5739 32.0874C87.3233 32.1457 87.0057 32.1748 86.6211 32.1748C86.0383 32.1748 85.4672 32.0495 84.9078 31.799C84.3542 31.5484 83.8938 31.1667 83.5267 30.6538C83.1654 30.141 82.9847 29.4942 82.9847 28.7133V15.3566ZM96.5031 32.2797C95.2094 32.2797 94.0934 31.9942 93.1552 31.4231C92.2228 30.8462 91.5031 30.042 90.9961 29.0105C90.4949 27.9732 90.2443 26.7669 90.2443 25.3916C90.2443 24.0163 90.4949 22.8042 90.9961 21.7552C91.5031 20.7005 92.2082 19.8788 93.1115 19.2902C94.0205 18.6958 95.0811 18.3986 96.2933 18.3986C96.9926 18.3986 97.6831 18.5152 98.3649 18.7483C99.0468 18.9814 99.6674 19.3601 100.227 19.8846C100.786 20.4033 101.232 21.0909 101.564 21.9476C101.896 22.8042 102.062 23.859 102.062 25.1119V25.986H91.7128V24.2028H99.9646C99.9646 23.4452 99.8131 22.7692 99.5101 22.1748C99.2128 21.5804 98.7874 21.1113 98.2338 20.7675C97.686 20.4237 97.0392 20.2517 96.2933 20.2517C95.4716 20.2517 94.7606 20.4557 94.1604 20.8636C93.566 21.2657 93.1085 21.7902 92.788 22.4371C92.4675 23.0839 92.3073 23.7774 92.3073 24.5175V25.7063C92.3073 26.7203 92.4821 27.5798 92.8317 28.285C93.1872 28.9843 93.6796 29.5175 94.309 29.8846C94.9384 30.2459 95.6697 30.4266 96.5031 30.4266C97.045 30.4266 97.5345 30.3508 97.9716 30.1993C98.4145 30.042 98.7962 29.8089 99.1167 29.5C99.4372 29.1853 99.6849 28.7949 99.8597 28.3287L101.853 28.8881C101.643 29.5641 101.29 30.1585 100.795 30.6713C100.3 31.1783 99.6878 31.5746 98.9594 31.8601C98.2309 32.1399 97.4122 32.2797 96.5031 32.2797Z" fill="white"/>
</svg>
