<svg width="430" height="932" viewBox="0 0 430 932" fill="none" xmlns="http://www.w3.org/2000/svg">
<g clip-path="url(#clip0_118_364)">
<rect width="430" height="932" fill="white"/>
<rect width="430" height="70" rx="1" fill="#146C94"/>
<path d="M85.2074 30.3438C85.1278 29.5994 84.7926 29.0199 84.2017 28.6051C83.6165 28.1903 82.8551 27.983 81.9176 27.983C81.2585 27.983 80.6932 28.0824 80.2216 28.2812C79.75 28.4801 79.3892 28.75 79.1392 29.0909C78.8892 29.4318 78.7614 29.821 78.7557 30.2585C78.7557 30.6222 78.8381 30.9375 79.0028 31.2045C79.1733 31.4716 79.4034 31.6989 79.6932 31.8864C79.983 32.0682 80.304 32.2216 80.6562 32.3466C81.0085 32.4716 81.3636 32.5767 81.7216 32.6619L83.358 33.071C84.017 33.2244 84.6506 33.4318 85.2585 33.6932C85.8722 33.9545 86.4205 34.2841 86.9034 34.6818C87.392 35.0795 87.7784 35.5597 88.0625 36.1222C88.3466 36.6847 88.4886 37.3437 88.4886 38.0994C88.4886 39.1222 88.2273 40.0227 87.7045 40.8011C87.1818 41.5739 86.4261 42.179 85.4375 42.6165C84.4545 43.0483 83.2642 43.2642 81.8665 43.2642C80.5085 43.2642 79.3295 43.054 78.3295 42.6335C77.3352 42.2131 76.5568 41.5994 75.9943 40.7926C75.4375 39.9858 75.1364 39.0028 75.0909 37.8438H78.2017C78.2472 38.4517 78.4347 38.9574 78.7642 39.3608C79.0938 39.7642 79.5227 40.0653 80.0511 40.2642C80.5852 40.4631 81.1818 40.5625 81.8409 40.5625C82.5284 40.5625 83.1307 40.4602 83.6477 40.2557C84.1705 40.0455 84.5795 39.7557 84.875 39.3864C85.1705 39.0114 85.321 38.5739 85.3267 38.0739C85.321 37.6193 85.1875 37.2443 84.9261 36.9489C84.6648 36.6477 84.2983 36.3977 83.8267 36.1989C83.3608 35.9943 82.8153 35.8125 82.1903 35.6534L80.2045 35.142C78.767 34.7727 77.6307 34.2131 76.7955 33.4631C75.9659 32.7074 75.5511 31.7045 75.5511 30.4545C75.5511 29.4261 75.8295 28.5256 76.3864 27.7528C76.9489 26.9801 77.7131 26.3807 78.679 25.9545C79.6449 25.5227 80.7386 25.3068 81.9602 25.3068C83.1989 25.3068 84.2841 25.5227 85.2159 25.9545C86.1534 26.3807 86.8892 26.9744 87.4233 27.7358C87.9574 28.4915 88.233 29.3608 88.25 30.3438H85.2074ZM96.8814 43.2557C95.5746 43.2557 94.4524 42.9688 93.5149 42.3949C92.5831 41.821 91.8643 41.0284 91.3587 40.017C90.8587 39 90.6087 37.8295 90.6087 36.5057C90.6087 35.1761 90.8643 34.0028 91.3757 32.9858C91.8871 31.9631 92.6087 31.1676 93.5405 30.5994C94.478 30.0256 95.5859 29.7386 96.8643 29.7386C97.9268 29.7386 98.8672 29.9347 99.6854 30.3267C100.509 30.7131 101.165 31.2614 101.654 31.9716C102.143 32.6761 102.421 33.5 102.489 34.4432H99.5405C99.4212 33.8125 99.1371 33.2869 98.6882 32.8665C98.245 32.4403 97.6513 32.2273 96.907 32.2273C96.2763 32.2273 95.7223 32.3977 95.245 32.7386C94.7678 33.0739 94.3956 33.5568 94.1286 34.1875C93.8672 34.8182 93.7365 35.5739 93.7365 36.4545C93.7365 37.3466 93.8672 38.1136 94.1286 38.7557C94.3899 39.392 94.7564 39.8835 95.228 40.2301C95.7053 40.571 96.2649 40.7415 96.907 40.7415C97.3615 40.7415 97.7678 40.6562 98.1257 40.4858C98.4893 40.3097 98.7933 40.0568 99.0376 39.7273C99.282 39.3977 99.4496 38.9972 99.5405 38.5256H102.489C102.415 39.4517 102.143 40.2727 101.671 40.9886C101.2 41.6989 100.558 42.2557 99.745 42.6591C98.9325 43.0568 97.978 43.2557 96.8814 43.2557ZM108.79 43.2642C107.96 43.2642 107.213 43.1165 106.548 42.821C105.889 42.5199 105.366 42.0767 104.98 41.4915C104.599 40.9062 104.409 40.1847 104.409 39.3267C104.409 38.5881 104.545 37.9773 104.818 37.4943C105.091 37.0114 105.463 36.625 105.935 36.3352C106.406 36.0455 106.938 35.8267 107.528 35.679C108.125 35.5256 108.741 35.4148 109.378 35.3466C110.145 35.267 110.767 35.196 111.244 35.1335C111.722 35.0653 112.068 34.9631 112.284 34.8267C112.506 34.6847 112.616 34.4659 112.616 34.1705V34.1193C112.616 33.4773 112.426 32.9801 112.045 32.6278C111.665 32.2756 111.116 32.0994 110.401 32.0994C109.645 32.0994 109.045 32.2642 108.602 32.5938C108.165 32.9233 107.869 33.3125 107.716 33.7614L104.835 33.3523C105.063 32.5568 105.438 31.892 105.96 31.358C106.483 30.8182 107.122 30.4148 107.878 30.1477C108.634 29.875 109.469 29.7386 110.384 29.7386C111.014 29.7386 111.642 29.8125 112.267 29.9602C112.892 30.108 113.463 30.3523 113.98 30.6932C114.497 31.0284 114.912 31.4858 115.224 32.0653C115.543 32.6449 115.702 33.3693 115.702 34.2386V43H112.736V41.2017H112.634C112.446 41.5653 112.182 41.9062 111.841 42.2244C111.506 42.5369 111.082 42.7898 110.571 42.983C110.065 43.1705 109.472 43.2642 108.79 43.2642ZM109.591 40.9972C110.21 40.9972 110.747 40.875 111.202 40.6307C111.656 40.3807 112.006 40.0511 112.25 39.642C112.5 39.233 112.625 38.7869 112.625 38.304V36.7614C112.528 36.8409 112.364 36.9148 112.131 36.983C111.903 37.0511 111.648 37.1108 111.364 37.1619C111.08 37.2131 110.798 37.2585 110.52 37.2983C110.241 37.3381 110 37.3722 109.795 37.4006C109.335 37.4631 108.923 37.5653 108.56 37.7074C108.196 37.8494 107.909 38.0483 107.699 38.304C107.489 38.554 107.384 38.8778 107.384 39.2756C107.384 39.8438 107.591 40.2727 108.006 40.5625C108.42 40.8523 108.949 40.9972 109.591 40.9972ZM121.889 35.3295V43H118.804V29.9091H121.753V32.1335H121.906C122.207 31.4006 122.688 30.8182 123.347 30.3864C124.011 29.9545 124.832 29.7386 125.81 29.7386C126.713 29.7386 127.5 29.9318 128.17 30.3182C128.847 30.7045 129.369 31.2642 129.739 31.9972C130.114 32.7301 130.298 33.6193 130.293 34.6648V43H127.207V35.142C127.207 34.267 126.98 33.5824 126.526 33.0881C126.077 32.5937 125.455 32.3466 124.659 32.3466C124.119 32.3466 123.639 32.4659 123.219 32.7045C122.804 32.9375 122.477 33.2756 122.239 33.7188C122.006 34.1619 121.889 34.6989 121.889 35.3295ZM146.021 37.1364H148.885L150.581 39.3352L151.791 40.767L154.697 44.5H151.629L149.652 41.9943L148.808 40.8011L146.021 37.1364ZM155.115 34.2727C155.115 36.1534 154.763 37.7642 154.058 39.1051C153.359 40.4403 152.405 41.4631 151.195 42.1733C149.99 42.8835 148.624 43.2386 147.095 43.2386C145.567 43.2386 144.197 42.8835 142.987 42.1733C141.783 41.4574 140.828 40.4318 140.124 39.0966C139.425 37.7557 139.075 36.1477 139.075 34.2727C139.075 32.392 139.425 30.7841 140.124 29.4489C140.828 28.108 141.783 27.0824 142.987 26.3722C144.197 25.6619 145.567 25.3068 147.095 25.3068C148.624 25.3068 149.99 25.6619 151.195 26.3722C152.405 27.0824 153.359 28.108 154.058 29.4489C154.763 30.7841 155.115 32.392 155.115 34.2727ZM151.936 34.2727C151.936 32.9489 151.729 31.8324 151.314 30.9233C150.905 30.0085 150.337 29.3182 149.609 28.8523C148.882 28.3807 148.044 28.1449 147.095 28.1449C146.146 28.1449 145.308 28.3807 144.581 28.8523C143.854 29.3182 143.283 30.0085 142.868 30.9233C142.459 31.8324 142.254 32.9489 142.254 34.2727C142.254 35.5966 142.459 36.7159 142.868 37.6307C143.283 38.5398 143.854 39.2301 144.581 39.7017C145.308 40.1676 146.146 40.4006 147.095 40.4006C148.044 40.4006 148.882 40.1676 149.609 39.7017C150.337 39.2301 150.905 38.5398 151.314 37.6307C151.729 36.7159 151.936 35.5966 151.936 34.2727ZM158.128 43V25.5455H164.673C166.014 25.5455 167.139 25.7784 168.048 26.2443C168.963 26.7102 169.653 27.3636 170.119 28.2045C170.591 29.0398 170.827 30.0142 170.827 31.1278C170.827 32.2472 170.588 33.2187 170.111 34.0426C169.639 34.8608 168.943 35.4943 168.023 35.9432C167.102 36.3864 165.972 36.608 164.631 36.608H159.969V33.983H164.205C164.989 33.983 165.631 33.875 166.131 33.6591C166.631 33.4375 167 33.1165 167.239 32.696C167.483 32.2699 167.605 31.7472 167.605 31.1278C167.605 30.5085 167.483 29.9801 167.239 29.5426C166.994 29.0994 166.622 28.7642 166.122 28.5369C165.622 28.304 164.977 28.1875 164.188 28.1875H161.29V43H158.128ZM167.145 35.0909L171.466 43H167.938L163.693 35.0909H167.145ZM194.631 31.4347H191.443C191.352 30.9119 191.185 30.4489 190.94 30.0455C190.696 29.6364 190.392 29.2898 190.028 29.0057C189.665 28.7216 189.25 28.5085 188.784 28.3665C188.324 28.2188 187.827 28.1449 187.293 28.1449C186.344 28.1449 185.503 28.3835 184.77 28.8608C184.037 29.3324 183.463 30.0256 183.048 30.9403C182.634 31.8494 182.426 32.9602 182.426 34.2727C182.426 35.608 182.634 36.733 183.048 37.6477C183.469 38.5568 184.043 39.2443 184.77 39.7102C185.503 40.1705 186.341 40.4006 187.284 40.4006C187.807 40.4006 188.295 40.3324 188.75 40.196C189.21 40.054 189.622 39.8466 189.986 39.5739C190.355 39.3011 190.665 38.9659 190.915 38.5682C191.17 38.1705 191.347 37.7159 191.443 37.2045L194.631 37.2216C194.511 38.0511 194.253 38.8295 193.855 39.5568C193.463 40.2841 192.949 40.9261 192.312 41.483C191.676 42.0341 190.932 42.4659 190.08 42.7784C189.227 43.0852 188.281 43.2386 187.241 43.2386C185.707 43.2386 184.338 42.8835 183.134 42.1733C181.929 41.4631 180.98 40.4375 180.287 39.0966C179.594 37.7557 179.247 36.1477 179.247 34.2727C179.247 32.392 179.597 30.7841 180.295 29.4489C180.994 28.108 181.946 27.0824 183.151 26.3722C184.355 25.6619 185.719 25.3068 187.241 25.3068C188.213 25.3068 189.116 25.4432 189.952 25.7159C190.787 25.9886 191.531 26.3892 192.185 26.9176C192.838 27.4403 193.375 28.0824 193.795 28.8438C194.222 29.5994 194.5 30.4631 194.631 31.4347ZM203.1 43.2557C201.822 43.2557 200.714 42.9744 199.776 42.4119C198.839 41.8494 198.112 41.0625 197.594 40.0511C197.083 39.0398 196.827 37.858 196.827 36.5057C196.827 35.1534 197.083 33.9687 197.594 32.9517C198.112 31.9347 198.839 31.1449 199.776 30.5824C200.714 30.0199 201.822 29.7386 203.1 29.7386C204.379 29.7386 205.487 30.0199 206.424 30.5824C207.362 31.1449 208.086 31.9347 208.597 32.9517C209.114 33.9687 209.373 35.1534 209.373 36.5057C209.373 37.858 209.114 39.0398 208.597 40.0511C208.086 41.0625 207.362 41.8494 206.424 42.4119C205.487 42.9744 204.379 43.2557 203.1 43.2557ZM203.117 40.7841C203.81 40.7841 204.39 40.5937 204.856 40.2131C205.322 39.8267 205.668 39.3097 205.896 38.6619C206.129 38.0142 206.245 37.2926 206.245 36.4972C206.245 35.696 206.129 34.9716 205.896 34.3239C205.668 33.6705 205.322 33.1506 204.856 32.7642C204.39 32.3778 203.81 32.1847 203.117 32.1847C202.407 32.1847 201.816 32.3778 201.344 32.7642C200.879 33.1506 200.529 33.6705 200.296 34.3239C200.069 34.9716 199.955 35.696 199.955 36.4972C199.955 37.2926 200.069 38.0142 200.296 38.6619C200.529 39.3097 200.879 39.8267 201.344 40.2131C201.816 40.5937 202.407 40.7841 203.117 40.7841ZM216.849 43.2301C215.821 43.2301 214.901 42.9659 214.088 42.4375C213.276 41.9091 212.634 41.142 212.162 40.1364C211.69 39.1307 211.455 37.9091 211.455 36.4716C211.455 35.017 211.693 33.7898 212.17 32.7898C212.653 31.7841 213.304 31.0256 214.122 30.5142C214.94 29.9972 215.852 29.7386 216.858 29.7386C217.625 29.7386 218.256 29.8693 218.75 30.1307C219.244 30.3864 219.636 30.696 219.926 31.0597C220.216 31.4176 220.44 31.7557 220.599 32.0739H220.727V25.5455H223.821V43H220.787V40.9375H220.599C220.44 41.2557 220.21 41.5937 219.909 41.9517C219.608 42.304 219.21 42.6051 218.716 42.8551C218.222 43.1051 217.599 43.2301 216.849 43.2301ZM217.71 40.6989C218.364 40.6989 218.92 40.5227 219.381 40.1705C219.841 39.8125 220.19 39.3153 220.429 38.679C220.668 38.0426 220.787 37.3011 220.787 36.4545C220.787 35.608 220.668 34.8722 220.429 34.2472C220.196 33.6222 219.849 33.1364 219.389 32.7898C218.935 32.4432 218.375 32.2699 217.71 32.2699C217.023 32.2699 216.449 32.4489 215.989 32.8068C215.528 33.1648 215.182 33.6591 214.949 34.2898C214.716 34.9205 214.599 35.642 214.599 36.4545C214.599 37.2727 214.716 38.0028 214.949 38.6449C215.188 39.2812 215.537 39.7841 215.997 40.1534C216.463 40.517 217.034 40.6989 217.71 40.6989ZM232.904 43.2557C231.592 43.2557 230.458 42.983 229.504 42.4375C228.555 41.8864 227.825 41.108 227.313 40.1023C226.802 39.0909 226.546 37.9006 226.546 36.5312C226.546 35.1847 226.802 34.0028 227.313 32.9858C227.83 31.9631 228.552 31.1676 229.478 30.5994C230.404 30.0256 231.492 29.7386 232.742 29.7386C233.549 29.7386 234.31 29.8693 235.026 30.1307C235.748 30.3864 236.384 30.7841 236.935 31.3239C237.492 31.8636 237.93 32.5511 238.248 33.3864C238.566 34.2159 238.725 35.2045 238.725 36.3523V37.2983H227.995V35.2188H235.768C235.762 34.6278 235.634 34.1023 235.384 33.642C235.134 33.1761 234.785 32.8097 234.336 32.5426C233.893 32.2756 233.376 32.142 232.785 32.142C232.154 32.142 231.6 32.2955 231.123 32.6023C230.646 32.9034 230.273 33.3011 230.006 33.7955C229.745 34.2841 229.612 34.821 229.606 35.4062V37.2216C229.606 37.983 229.745 38.6364 230.023 39.1818C230.302 39.7216 230.691 40.1364 231.191 40.4261C231.691 40.7102 232.276 40.8523 232.947 40.8523C233.396 40.8523 233.802 40.7898 234.165 40.6648C234.529 40.5341 234.844 40.3438 235.112 40.0938C235.379 39.8438 235.58 39.5341 235.717 39.1648L238.597 39.4886C238.415 40.25 238.069 40.9148 237.558 41.483C237.052 42.0455 236.404 42.483 235.614 42.7955C234.825 43.1023 233.921 43.2557 232.904 43.2557Z" fill="white"/>
<path d="M228.426 248.794V247.273H235.594V248.794H232.922V256H231.098V248.794H228.426ZM236.06 256V249.455H237.82V250.597H237.888C238.008 250.19 238.208 249.884 238.489 249.676C238.771 249.466 239.094 249.361 239.461 249.361C239.552 249.361 239.65 249.366 239.755 249.378C239.86 249.389 239.952 249.405 240.032 249.425V251.036C239.947 251.01 239.829 250.987 239.678 250.967C239.528 250.947 239.39 250.938 239.265 250.938C238.998 250.938 238.759 250.996 238.549 251.112C238.342 251.226 238.177 251.385 238.055 251.589C237.935 251.794 237.876 252.03 237.876 252.297V256H236.06ZM242.65 256.124C242.232 256.124 241.86 256.051 241.533 255.906C241.206 255.759 240.948 255.541 240.757 255.254C240.57 254.964 240.476 254.604 240.476 254.172C240.476 253.808 240.543 253.503 240.676 253.256C240.81 253.009 240.992 252.81 241.222 252.659C241.452 252.509 241.713 252.395 242.006 252.318C242.301 252.241 242.611 252.188 242.935 252.156C243.316 252.116 243.623 252.08 243.855 252.045C244.088 252.009 244.257 251.955 244.363 251.884C244.468 251.812 244.52 251.707 244.52 251.568V251.543C244.52 251.273 244.435 251.064 244.265 250.916C244.097 250.768 243.858 250.695 243.549 250.695C243.222 250.695 242.962 250.767 242.769 250.912C242.576 251.054 242.448 251.233 242.385 251.449L240.706 251.312C240.792 250.915 240.959 250.571 241.209 250.281C241.459 249.989 241.782 249.764 242.176 249.608C242.574 249.449 243.034 249.369 243.557 249.369C243.921 249.369 244.269 249.412 244.601 249.497C244.936 249.582 245.233 249.714 245.492 249.893C245.753 250.072 245.959 250.303 246.11 250.584C246.26 250.862 246.336 251.196 246.336 251.585V256H244.614V255.092H244.563C244.458 255.297 244.317 255.477 244.141 255.634C243.965 255.787 243.753 255.908 243.506 255.996C243.259 256.081 242.973 256.124 242.65 256.124ZM243.169 254.871C243.436 254.871 243.672 254.818 243.877 254.713C244.081 254.605 244.242 254.46 244.358 254.278C244.475 254.097 244.533 253.891 244.533 253.661V252.966C244.476 253.003 244.398 253.037 244.299 253.068C244.202 253.097 244.093 253.124 243.971 253.149C243.848 253.172 243.726 253.193 243.604 253.213C243.482 253.23 243.371 253.246 243.272 253.26C243.059 253.291 242.873 253.341 242.713 253.409C242.554 253.477 242.431 253.57 242.343 253.686C242.255 253.8 242.211 253.942 242.211 254.112C242.211 254.359 242.3 254.548 242.479 254.679C242.661 254.807 242.891 254.871 243.169 254.871ZM250.701 256.128C250.031 256.128 249.454 255.986 248.971 255.702C248.491 255.415 248.122 255.017 247.863 254.509C247.608 254 247.48 253.415 247.48 252.753C247.48 252.082 247.609 251.494 247.868 250.989C248.129 250.48 248.5 250.084 248.98 249.8C249.46 249.513 250.031 249.369 250.693 249.369C251.264 249.369 251.764 249.473 252.193 249.68C252.622 249.888 252.961 250.179 253.211 250.554C253.461 250.929 253.599 251.369 253.625 251.875H251.912C251.863 251.548 251.735 251.286 251.528 251.087C251.324 250.885 251.055 250.784 250.723 250.784C250.441 250.784 250.196 250.861 249.985 251.014C249.778 251.165 249.616 251.385 249.5 251.675C249.383 251.964 249.325 252.315 249.325 252.727C249.325 253.145 249.382 253.5 249.495 253.793C249.612 254.085 249.775 254.308 249.985 254.462C250.196 254.615 250.441 254.692 250.723 254.692C250.93 254.692 251.116 254.649 251.281 254.564C251.449 254.479 251.586 254.355 251.694 254.193C251.805 254.028 251.877 253.831 251.912 253.601H253.625C253.596 254.101 253.46 254.541 253.216 254.922C252.974 255.3 252.64 255.595 252.214 255.808C251.788 256.021 251.284 256.128 250.701 256.128ZM256.432 254.116L256.436 251.939H256.7L258.797 249.455H260.881L258.064 252.744H257.634L256.432 254.116ZM254.787 256V247.273H256.602V256H254.787ZM258.878 256L256.952 253.149L258.162 251.866L261.004 256H258.878ZM261.771 256V249.455H263.587V256H261.771ZM262.683 248.611C262.413 248.611 262.182 248.521 261.989 248.342C261.798 248.161 261.703 247.943 261.703 247.69C261.703 247.44 261.798 247.226 261.989 247.047C262.182 246.865 262.413 246.774 262.683 246.774C262.953 246.774 263.183 246.865 263.374 247.047C263.567 247.226 263.663 247.44 263.663 247.69C263.663 247.943 263.567 248.161 263.374 248.342C263.183 248.521 262.953 248.611 262.683 248.611ZM266.856 252.216V256H265.041V249.455H266.771V250.609H266.848C266.993 250.229 267.235 249.928 267.576 249.706C267.917 249.482 268.331 249.369 268.816 249.369C269.271 249.369 269.667 249.469 270.005 249.668C270.343 249.866 270.606 250.151 270.794 250.52C270.981 250.886 271.075 251.324 271.075 251.832V256H269.26V252.156C269.262 251.756 269.16 251.443 268.953 251.219C268.745 250.991 268.46 250.878 268.096 250.878C267.852 250.878 267.636 250.93 267.449 251.036C267.264 251.141 267.119 251.294 267.014 251.496C266.912 251.695 266.859 251.935 266.856 252.216ZM275.455 258.591C274.866 258.591 274.362 258.51 273.942 258.348C273.524 258.189 273.192 257.972 272.945 257.696C272.697 257.42 272.537 257.111 272.463 256.767L274.142 256.541C274.193 256.672 274.274 256.794 274.385 256.908C274.496 257.021 274.642 257.112 274.824 257.18C275.009 257.251 275.233 257.287 275.497 257.287C275.892 257.287 276.217 257.19 276.473 256.997C276.732 256.807 276.861 256.487 276.861 256.038V254.841H276.784C276.705 255.023 276.585 255.195 276.426 255.357C276.267 255.518 276.062 255.651 275.812 255.753C275.562 255.855 275.264 255.906 274.918 255.906C274.426 255.906 273.979 255.793 273.575 255.565C273.175 255.335 272.855 254.984 272.616 254.513C272.381 254.038 272.263 253.439 272.263 252.714C272.263 251.973 272.384 251.354 272.625 250.857C272.866 250.359 273.188 249.987 273.588 249.74C273.991 249.493 274.433 249.369 274.913 249.369C275.28 249.369 275.587 249.432 275.834 249.557C276.081 249.679 276.28 249.832 276.43 250.017C276.584 250.199 276.702 250.378 276.784 250.554H276.852V249.455H278.655V256.064C278.655 256.621 278.518 257.087 278.246 257.462C277.973 257.837 277.595 258.118 277.112 258.305C276.632 258.496 276.08 258.591 275.455 258.591ZM275.493 254.543C275.786 254.543 276.033 254.47 276.234 254.325C276.439 254.178 276.595 253.967 276.703 253.695C276.814 253.419 276.869 253.089 276.869 252.706C276.869 252.322 276.815 251.99 276.707 251.709C276.599 251.425 276.443 251.205 276.239 251.048C276.034 250.892 275.786 250.814 275.493 250.814C275.195 250.814 274.943 250.895 274.739 251.057C274.534 251.216 274.379 251.437 274.274 251.722C274.169 252.006 274.116 252.334 274.116 252.706C274.116 253.084 274.169 253.411 274.274 253.686C274.382 253.959 274.537 254.17 274.739 254.321C274.943 254.469 275.195 254.543 275.493 254.543Z" fill="white" fill-opacity="0.99"/>
<path d="M235.426 315.794V314.273H242.594V315.794H239.922V323H238.098V315.794H235.426ZM243.06 323V316.455H244.82V317.597H244.888C245.008 317.19 245.208 316.884 245.489 316.676C245.771 316.466 246.094 316.361 246.461 316.361C246.552 316.361 246.65 316.366 246.755 316.378C246.86 316.389 246.952 316.405 247.032 316.425V318.036C246.947 318.01 246.829 317.987 246.678 317.967C246.528 317.947 246.39 317.938 246.265 317.938C245.998 317.938 245.759 317.996 245.549 318.112C245.342 318.226 245.177 318.385 245.055 318.589C244.935 318.794 244.876 319.03 244.876 319.297V323H243.06ZM249.65 323.124C249.232 323.124 248.86 323.051 248.533 322.906C248.206 322.759 247.948 322.541 247.757 322.254C247.57 321.964 247.476 321.604 247.476 321.172C247.476 320.808 247.543 320.503 247.676 320.256C247.81 320.009 247.992 319.81 248.222 319.659C248.452 319.509 248.713 319.395 249.006 319.318C249.301 319.241 249.611 319.188 249.935 319.156C250.316 319.116 250.623 319.08 250.855 319.045C251.088 319.009 251.257 318.955 251.363 318.884C251.468 318.812 251.52 318.707 251.52 318.568V318.543C251.52 318.273 251.435 318.064 251.265 317.916C251.097 317.768 250.858 317.695 250.549 317.695C250.222 317.695 249.962 317.767 249.769 317.912C249.576 318.054 249.448 318.233 249.385 318.449L247.706 318.312C247.792 317.915 247.959 317.571 248.209 317.281C248.459 316.989 248.782 316.764 249.176 316.608C249.574 316.449 250.034 316.369 250.557 316.369C250.921 316.369 251.269 316.412 251.601 316.497C251.936 316.582 252.233 316.714 252.492 316.893C252.753 317.072 252.959 317.303 253.11 317.584C253.26 317.862 253.336 318.196 253.336 318.585V323H251.614V322.092H251.563C251.458 322.297 251.317 322.477 251.141 322.634C250.965 322.787 250.753 322.908 250.506 322.996C250.259 323.081 249.973 323.124 249.65 323.124ZM250.169 321.871C250.436 321.871 250.672 321.818 250.877 321.713C251.081 321.605 251.242 321.46 251.358 321.278C251.475 321.097 251.533 320.891 251.533 320.661V319.966C251.476 320.003 251.398 320.037 251.299 320.068C251.202 320.097 251.093 320.124 250.971 320.149C250.848 320.172 250.726 320.193 250.604 320.213C250.482 320.23 250.371 320.246 250.272 320.26C250.059 320.291 249.873 320.341 249.713 320.409C249.554 320.477 249.431 320.57 249.343 320.686C249.255 320.8 249.211 320.942 249.211 321.112C249.211 321.359 249.3 321.548 249.479 321.679C249.661 321.807 249.891 321.871 250.169 321.871ZM257.701 323.128C257.031 323.128 256.454 322.986 255.971 322.702C255.491 322.415 255.122 322.017 254.863 321.509C254.608 321 254.48 320.415 254.48 319.753C254.48 319.082 254.609 318.494 254.868 317.989C255.129 317.48 255.5 317.084 255.98 316.8C256.46 316.513 257.031 316.369 257.693 316.369C258.264 316.369 258.764 316.473 259.193 316.68C259.622 316.888 259.961 317.179 260.211 317.554C260.461 317.929 260.599 318.369 260.625 318.875H258.912C258.863 318.548 258.735 318.286 258.528 318.087C258.324 317.885 258.055 317.784 257.723 317.784C257.441 317.784 257.196 317.861 256.985 318.014C256.778 318.165 256.616 318.385 256.5 318.675C256.383 318.964 256.325 319.315 256.325 319.727C256.325 320.145 256.382 320.5 256.495 320.793C256.612 321.085 256.775 321.308 256.985 321.462C257.196 321.615 257.441 321.692 257.723 321.692C257.93 321.692 258.116 321.649 258.281 321.564C258.449 321.479 258.586 321.355 258.694 321.193C258.805 321.028 258.877 320.831 258.912 320.601H260.625C260.596 321.101 260.46 321.541 260.216 321.922C259.974 322.3 259.64 322.595 259.214 322.808C258.788 323.021 258.284 323.128 257.701 323.128ZM263.432 321.116L263.436 318.939H263.7L265.797 316.455H267.881L265.064 319.744H264.634L263.432 321.116ZM261.787 323V314.273H263.602V323H261.787ZM265.878 323L263.952 320.149L265.162 318.866L268.004 323H265.878ZM268.771 323V316.455H270.587V323H268.771ZM269.683 315.611C269.413 315.611 269.182 315.521 268.989 315.342C268.798 315.161 268.703 314.943 268.703 314.69C268.703 314.44 268.798 314.226 268.989 314.047C269.182 313.865 269.413 313.774 269.683 313.774C269.953 313.774 270.183 313.865 270.374 314.047C270.567 314.226 270.663 314.44 270.663 314.69C270.663 314.943 270.567 315.161 270.374 315.342C270.183 315.521 269.953 315.611 269.683 315.611ZM273.856 319.216V323H272.041V316.455H273.771V317.609H273.848C273.993 317.229 274.235 316.928 274.576 316.706C274.917 316.482 275.331 316.369 275.816 316.369C276.271 316.369 276.667 316.469 277.005 316.668C277.343 316.866 277.606 317.151 277.794 317.52C277.981 317.886 278.075 318.324 278.075 318.832V323H276.26V319.156C276.262 318.756 276.16 318.443 275.953 318.219C275.745 317.991 275.46 317.878 275.096 317.878C274.852 317.878 274.636 317.93 274.449 318.036C274.264 318.141 274.119 318.294 274.014 318.496C273.912 318.695 273.859 318.935 273.856 319.216ZM282.455 325.591C281.866 325.591 281.362 325.51 280.942 325.348C280.524 325.189 280.192 324.972 279.945 324.696C279.697 324.42 279.537 324.111 279.463 323.767L281.142 323.541C281.193 323.672 281.274 323.794 281.385 323.908C281.496 324.021 281.642 324.112 281.824 324.18C282.009 324.251 282.233 324.287 282.497 324.287C282.892 324.287 283.217 324.19 283.473 323.997C283.732 323.807 283.861 323.487 283.861 323.038V321.841H283.784C283.705 322.023 283.585 322.195 283.426 322.357C283.267 322.518 283.062 322.651 282.812 322.753C282.562 322.855 282.264 322.906 281.918 322.906C281.426 322.906 280.979 322.793 280.575 322.565C280.175 322.335 279.855 321.984 279.616 321.513C279.381 321.038 279.263 320.439 279.263 319.714C279.263 318.973 279.384 318.354 279.625 317.857C279.866 317.359 280.188 316.987 280.588 316.74C280.991 316.493 281.433 316.369 281.913 316.369C282.28 316.369 282.587 316.432 282.834 316.557C283.081 316.679 283.28 316.832 283.43 317.017C283.584 317.199 283.702 317.378 283.784 317.554H283.852V316.455H285.655V323.064C285.655 323.621 285.518 324.087 285.246 324.462C284.973 324.837 284.595 325.118 284.112 325.305C283.632 325.496 283.08 325.591 282.455 325.591ZM282.493 321.543C282.786 321.543 283.033 321.47 283.234 321.325C283.439 321.178 283.595 320.967 283.703 320.695C283.814 320.419 283.869 320.089 283.869 319.706C283.869 319.322 283.815 318.99 283.707 318.709C283.599 318.425 283.443 318.205 283.239 318.048C283.034 317.892 282.786 317.814 282.493 317.814C282.195 317.814 281.943 317.895 281.739 318.057C281.534 318.216 281.379 318.437 281.274 318.722C281.169 319.006 281.116 319.334 281.116 319.706C281.116 320.084 281.169 320.411 281.274 320.686C281.382 320.959 281.537 321.17 281.739 321.321C281.943 321.469 282.195 321.543 282.493 321.543Z" fill="white" fill-opacity="0.99"/>
<rect y="70" width="430" height="862" fill="url(#paint0_linear_118_364)" fill-opacity="0.71"/>
<rect y="70" width="430" height="862" fill="url(#paint1_linear_118_364)" fill-opacity="0.71"/>
<rect x="74" y="309" width="282" height="305" rx="8" fill="#D9D9D9"/>
<path d="M337 308H345H349.5L351 308.5L352.5 309.5L354 311L355 312.5L355.307 313.728M355.5 344.5V328.5V327.5V326.5V325.5V323V322M355.5 344.5V437M355.5 344.5V322M355.5 322V321V320V318.5V317V315.75M355.5 315.75V314.5L355.307 313.728M355.5 315.75L355.307 313.728M354.5 312.5L355 312" stroke="black"/>
<path d="M356.38 595.347L356.416 602.98L356.436 607.273L355.926 608.707L354.899 610.145L353.355 611.586L351.808 612.55L350.54 612.852M318.724 613.244L335.267 613.136L336.301 613.129L337.335 613.122L338.369 613.115L340.954 613.099L341.988 613.092M318.724 613.244L223.083 613.87M318.724 613.244L341.988 613.092M341.988 613.092L343.022 613.085L344.056 613.078L345.607 613.068L347.157 613.058L348.45 613.049M348.45 613.049L349.742 613.041L350.54 612.852M348.45 613.049L350.54 612.852M351.806 612.073L352.325 612.547" stroke="black"/>
<path d="M74.3291 326.5L74.3505 318.5L74.3626 314L74.8666 312.501L75.8706 311.004L77.3746 309.508L78.8773 308.512L80.1058 308.208M110.878 308.098L94.8785 308.055L93.8785 308.052L92.8785 308.05L91.8785 308.047L89.3786 308.04L88.3786 308.038M110.878 308.098L203.378 308.345M110.878 308.098L88.3786 308.038M88.3786 308.038L87.3786 308.035L86.3786 308.032L84.8786 308.028L83.3786 308.024L82.1286 308.021M82.1286 308.021L80.8786 308.017L80.1058 308.208M82.1286 308.021L80.1058 308.208M78.8759 309.012L78.3773 308.511" stroke="black"/>
<path d="M92.5 614.052L84.5 614.029L80 614.016L78.5015 613.512L77.0043 612.508L75.5085 611.004L74.5127 609.501L74.2092 608.272M74.1026 577.5L74.0576 593.5L74.0548 594.5L74.052 595.5L74.0492 596.5L74.0422 599L74.0394 600M74.1026 577.5L74.3623 485M74.1026 577.5L74.0394 600M74.0394 600L74.0366 601L74.0338 602L74.0296 603.5L74.0253 605L74.0218 606.25M74.0218 606.25L74.0183 607.5L74.2092 608.272M74.0218 606.25L74.2092 608.272M75.0127 609.502L74.5113 610.001" stroke="black"/>
<path d="M349 308H327H321H311M306 308H311M311 308H289.5" stroke="black"/>
<path d="M356.434 606.796L356.336 585.807L356.309 580.082L356.264 570.542M356.242 565.772L356.264 570.542M356.264 570.542L356.168 550.03" stroke="black"/>
<path d="M74.3614 314.5L74.3025 336.5L74.2864 342.5L74.2597 352.5M74.2463 357.5L74.2597 352.5M74.2597 352.5L74.2021 374" stroke="black"/>
<path d="M80.5 614.018L102.5 614.08L108.5 614.097L118.5 614.125M123.5 614.139L118.5 614.125M118.5 614.125L140 614.185" stroke="black"/>
<path d="M74.1592 374L74.1003 396L74.0843 402L74.0575 412M74.0442 417L74.0575 412M74.0575 412L74 433.5" stroke="black"/>
<path d="M140 614.228L162 614.289L168 614.306L178 614.334M183 614.348L178 614.334M178 614.334L199.5 614.395" stroke="black"/>
<path d="M290 308H223.5H214" stroke="black"/>
<path d="M356.17 550.507L355.873 487.063L355.831 478" stroke="black"/>
<rect x="95" y="867" width="242" height="45" rx="10" fill="#146C94"/>
<path d="M142.793 883.609V881.909H152.924V883.609H148.839V895H146.871V883.609H142.793ZM155.093 898.682C154.807 898.682 154.547 898.658 154.313 898.612C154.078 898.569 153.904 898.522 153.789 898.471L154.249 896.905C154.598 896.999 154.909 897.039 155.182 897.026C155.455 897.013 155.695 896.911 155.904 896.719C156.117 896.528 156.305 896.214 156.467 895.78L156.703 895.128L153.111 885.182H155.156L157.643 892.801H157.745L160.232 885.182H162.284L158.237 896.31C158.05 896.822 157.811 897.254 157.521 897.608C157.232 897.966 156.887 898.234 156.486 898.413C156.085 898.592 155.621 898.682 155.093 898.682ZM164.08 898.682V885.182H165.946V886.773H166.106C166.217 886.569 166.377 886.332 166.585 886.064C166.794 885.795 167.084 885.561 167.455 885.361C167.825 885.156 168.316 885.054 168.925 885.054C169.718 885.054 170.425 885.254 171.047 885.655C171.669 886.055 172.157 886.633 172.511 887.387C172.869 888.141 173.048 889.049 173.048 890.11C173.048 891.171 172.871 892.081 172.517 892.839C172.164 893.594 171.678 894.175 171.06 894.585C170.442 894.989 169.737 895.192 168.944 895.192C168.347 895.192 167.86 895.092 167.48 894.891C167.105 894.691 166.811 894.457 166.598 894.188C166.385 893.92 166.221 893.681 166.106 893.472H165.991V898.682H164.08ZM165.953 890.091C165.953 890.781 166.053 891.386 166.253 891.906C166.453 892.426 166.743 892.833 167.122 893.127C167.502 893.417 167.966 893.562 168.516 893.562C169.087 893.562 169.564 893.411 169.948 893.108C170.331 892.801 170.621 892.386 170.817 891.862C171.017 891.337 171.117 890.747 171.117 890.091C171.117 889.443 171.019 888.862 170.823 888.346C170.632 887.83 170.342 887.423 169.954 887.125C169.57 886.827 169.091 886.678 168.516 886.678C167.962 886.678 167.493 886.82 167.11 887.106C166.73 887.391 166.443 887.79 166.247 888.301C166.051 888.812 165.953 889.409 165.953 890.091ZM179.421 895.198C178.453 895.198 177.62 894.991 176.921 894.578C176.227 894.161 175.69 893.575 175.311 892.82C174.936 892.062 174.748 891.173 174.748 890.155C174.748 889.149 174.936 888.263 175.311 887.496C175.69 886.729 176.218 886.13 176.896 885.7C177.578 885.269 178.374 885.054 179.286 885.054C179.84 885.054 180.377 885.146 180.897 885.329C181.417 885.512 181.884 885.8 182.297 886.192C182.71 886.584 183.036 887.093 183.275 887.719C183.514 888.342 183.633 889.098 183.633 889.989V890.666H175.828V889.234H181.76C181.76 888.732 181.658 888.286 181.453 887.898C181.249 887.506 180.961 887.197 180.59 886.972C180.224 886.746 179.794 886.633 179.299 886.633C178.762 886.633 178.294 886.765 177.893 887.029C177.497 887.289 177.19 887.63 176.972 888.052C176.759 888.469 176.653 888.923 176.653 889.413V890.532C176.653 891.188 176.768 891.746 176.998 892.207C177.232 892.667 177.558 893.018 177.976 893.261C178.394 893.5 178.882 893.619 179.44 893.619C179.802 893.619 180.132 893.568 180.431 893.466C180.729 893.359 180.987 893.202 181.204 892.993C181.421 892.784 181.588 892.526 181.703 892.219L183.512 892.545C183.367 893.078 183.107 893.545 182.732 893.945C182.361 894.342 181.894 894.651 181.332 894.872C180.774 895.089 180.137 895.198 179.421 895.198ZM195.1 885.182V886.716H189.737V885.182H195.1ZM191.176 882.83H193.087V892.117C193.087 892.488 193.142 892.767 193.253 892.955C193.364 893.138 193.507 893.263 193.681 893.332C193.86 893.396 194.054 893.428 194.263 893.428C194.416 893.428 194.551 893.417 194.666 893.396C194.781 893.374 194.87 893.357 194.934 893.344L195.279 894.923C195.169 894.966 195.011 895.009 194.806 895.051C194.602 895.098 194.346 895.124 194.039 895.128C193.536 895.136 193.068 895.047 192.633 894.859C192.198 894.672 191.847 894.382 191.578 893.99C191.31 893.598 191.176 893.106 191.176 892.513V882.83ZM199.337 889.17V895H197.425V881.909H199.311V886.78H199.433C199.663 886.251 200.014 885.832 200.487 885.521C200.96 885.21 201.578 885.054 202.341 885.054C203.014 885.054 203.602 885.192 204.105 885.469C204.612 885.746 205.004 886.16 205.281 886.71C205.562 887.255 205.703 887.937 205.703 888.755V895H203.792V888.985C203.792 888.265 203.607 887.707 203.236 887.31C202.865 886.91 202.349 886.71 201.689 886.71C201.237 886.71 200.832 886.805 200.474 886.997C200.121 887.189 199.842 887.47 199.637 887.841C199.437 888.207 199.337 888.651 199.337 889.17ZM212.485 895.198C211.518 895.198 210.685 894.991 209.986 894.578C209.291 894.161 208.754 893.575 208.375 892.82C208 892.062 207.812 891.173 207.812 890.155C207.812 889.149 208 888.263 208.375 887.496C208.754 886.729 209.283 886.13 209.96 885.7C210.642 885.269 211.439 885.054 212.351 885.054C212.905 885.054 213.442 885.146 213.962 885.329C214.482 885.512 214.948 885.8 215.362 886.192C215.775 886.584 216.101 887.093 216.339 887.719C216.578 888.342 216.697 889.098 216.697 889.989V890.666H208.893V889.234H214.825C214.825 888.732 214.722 888.286 214.518 887.898C214.313 887.506 214.026 887.197 213.655 886.972C213.288 886.746 212.858 886.633 212.364 886.633C211.827 886.633 211.358 886.765 210.957 887.029C210.561 887.289 210.254 887.63 210.037 888.052C209.824 888.469 209.717 888.923 209.717 889.413V890.532C209.717 891.188 209.832 891.746 210.062 892.207C210.297 892.667 210.623 893.018 211.04 893.261C211.458 893.5 211.946 893.619 212.504 893.619C212.866 893.619 213.197 893.568 213.495 893.466C213.793 893.359 214.051 893.202 214.268 892.993C214.486 892.784 214.652 892.526 214.767 892.219L216.576 892.545C216.431 893.078 216.171 893.545 215.796 893.945C215.425 894.342 214.959 894.651 214.396 894.872C213.838 895.089 213.201 895.198 212.485 895.198ZM225.493 889.17V895H223.582V885.182H225.416V886.78H225.538C225.763 886.26 226.117 885.842 226.599 885.527C227.085 885.212 227.696 885.054 228.433 885.054C229.102 885.054 229.688 885.195 230.191 885.476C230.694 885.753 231.084 886.166 231.361 886.716C231.638 887.266 231.776 887.945 231.776 888.755V895H229.865V888.985C229.865 888.273 229.68 887.717 229.309 887.317C228.938 886.912 228.429 886.71 227.781 886.71C227.338 886.71 226.944 886.805 226.599 886.997C226.258 887.189 225.987 887.47 225.787 887.841C225.591 888.207 225.493 888.651 225.493 889.17ZM240.559 890.928V885.182H242.477V895H240.597V893.3H240.495C240.269 893.824 239.907 894.261 239.408 894.61C238.914 894.955 238.298 895.128 237.561 895.128C236.93 895.128 236.372 894.989 235.886 894.712C235.405 894.431 235.026 894.016 234.749 893.466C234.476 892.916 234.339 892.237 234.339 891.427V885.182H236.251V891.197C236.251 891.866 236.436 892.398 236.807 892.795C237.178 893.191 237.659 893.389 238.251 893.389C238.609 893.389 238.965 893.3 239.319 893.121C239.677 892.942 239.973 892.671 240.207 892.309C240.446 891.947 240.563 891.487 240.559 890.928ZM245.045 895V885.182H246.879V886.78H247.001C247.205 886.239 247.54 885.817 248.004 885.514C248.469 885.207 249.025 885.054 249.672 885.054C250.329 885.054 250.878 885.207 251.322 885.514C251.769 885.821 252.099 886.243 252.312 886.78H252.415C252.649 886.256 253.022 885.838 253.533 885.527C254.045 885.212 254.654 885.054 255.361 885.054C256.252 885.054 256.979 885.333 257.541 885.891C258.108 886.45 258.391 887.291 258.391 888.416V895H256.48V888.595C256.48 887.93 256.299 887.449 255.937 887.151C255.574 886.852 255.142 886.703 254.639 886.703C254.017 886.703 253.533 886.895 253.188 887.278C252.843 887.658 252.67 888.146 252.67 888.742V895H250.765V888.474C250.765 887.941 250.599 887.513 250.267 887.189C249.934 886.865 249.502 886.703 248.969 886.703C248.607 886.703 248.273 886.799 247.966 886.991C247.663 887.178 247.418 887.44 247.231 887.777C247.047 888.114 246.956 888.504 246.956 888.947V895H245.045ZM261.106 895V881.909H263.017V886.773H263.132C263.243 886.569 263.403 886.332 263.612 886.064C263.821 885.795 264.11 885.561 264.481 885.361C264.852 885.156 265.342 885.054 265.951 885.054C266.744 885.054 267.451 885.254 268.074 885.655C268.696 886.055 269.184 886.633 269.537 887.387C269.895 888.141 270.074 889.049 270.074 890.11C270.074 891.171 269.897 892.081 269.544 892.839C269.19 893.594 268.704 894.175 268.086 894.585C267.468 894.989 266.763 895.192 265.971 895.192C265.374 895.192 264.886 895.092 264.507 894.891C264.132 894.691 263.838 894.457 263.625 894.188C263.412 893.92 263.248 893.681 263.132 893.472H262.973V895H261.106ZM262.979 890.091C262.979 890.781 263.079 891.386 263.279 891.906C263.48 892.426 263.77 892.833 264.149 893.127C264.528 893.417 264.993 893.562 265.542 893.562C266.113 893.562 266.591 893.411 266.974 893.108C267.358 892.801 267.647 892.386 267.843 891.862C268.044 891.337 268.144 890.747 268.144 890.091C268.144 889.443 268.046 888.862 267.85 888.346C267.658 887.83 267.368 887.423 266.98 887.125C266.597 886.827 266.118 886.678 265.542 886.678C264.988 886.678 264.52 886.82 264.136 887.106C263.757 887.391 263.469 887.79 263.273 888.301C263.077 888.812 262.979 889.409 262.979 890.091ZM276.452 895.198C275.485 895.198 274.651 894.991 273.953 894.578C273.258 894.161 272.721 893.575 272.342 892.82C271.967 892.062 271.779 891.173 271.779 890.155C271.779 889.149 271.967 888.263 272.342 887.496C272.721 886.729 273.249 886.13 273.927 885.7C274.609 885.269 275.406 885.054 276.318 885.054C276.872 885.054 277.409 885.146 277.928 885.329C278.448 885.512 278.915 885.8 279.328 886.192C279.742 886.584 280.068 887.093 280.306 887.719C280.545 888.342 280.664 889.098 280.664 889.989V890.666H272.86V889.234H278.791C278.791 888.732 278.689 888.286 278.485 887.898C278.28 887.506 277.992 887.197 277.622 886.972C277.255 886.746 276.825 886.633 276.33 886.633C275.794 886.633 275.325 886.765 274.924 887.029C274.528 887.289 274.221 887.63 274.004 888.052C273.791 888.469 273.684 888.923 273.684 889.413V890.532C273.684 891.188 273.799 891.746 274.029 892.207C274.264 892.667 274.59 893.018 275.007 893.261C275.425 893.5 275.913 893.619 276.471 893.619C276.833 893.619 277.164 893.568 277.462 893.466C277.76 893.359 278.018 893.202 278.235 892.993C278.453 892.784 278.619 892.526 278.734 892.219L280.543 892.545C280.398 893.078 280.138 893.545 279.763 893.945C279.392 894.342 278.926 894.651 278.363 894.872C277.805 895.089 277.168 895.198 276.452 895.198ZM282.785 895V885.182H284.632V886.741H284.734C284.913 886.213 285.229 885.798 285.68 885.495C286.136 885.188 286.652 885.035 287.227 885.035C287.347 885.035 287.487 885.039 287.649 885.048C287.815 885.056 287.945 885.067 288.039 885.08V886.908C287.962 886.886 287.826 886.863 287.63 886.837C287.434 886.808 287.238 886.793 287.042 886.793C286.59 886.793 286.188 886.888 285.834 887.08C285.484 887.268 285.207 887.53 285.003 887.866C284.798 888.199 284.696 888.578 284.696 889.004V895H282.785Z" fill="white"/>
<path d="M23.3061 33.2798C22.9083 33.6629 22.8964 34.2959 23.2796 34.6937L29.523 41.1759C29.9062 41.5737 30.5392 41.5856 30.937 41.2024C31.3348 40.8193 31.3467 40.1863 30.9635 39.7885L25.4138 34.0265L31.1757 28.4768C31.5735 28.0936 31.5854 27.4606 31.2022 27.0628C30.8191 26.665 30.186 26.6531 29.7883 27.0363L23.3061 33.2798ZM62.1301 33.715L24.0185 33.0002L23.981 34.9998L62.0926 35.7147L62.1301 33.715Z" fill="white"/>
</g>
<defs>
<linearGradient id="paint0_linear_118_364" x1="215" y1="932" x2="215" y2="188.84" gradientUnits="userSpaceOnUse">
<stop offset="0.119837" stop-opacity="0.809865"/>
<stop offset="0.239634" stop-color="#0F0E0E" stop-opacity="0.619795"/>
<stop offset="0.282523" stop-color="#070707" stop-opacity="0.551746"/>
<stop offset="0.322909" stop-opacity="0.487669"/>
<stop offset="0.371068" stop-color="#010000" stop-opacity="0.413939"/>
<stop offset="0.371168" stop-color="#010000" stop-opacity="0.413939"/>
<stop offset="0.423154" stop-color="#020000" stop-opacity="0.332514"/>
<stop offset="0.466079" stop-color="#030000" stop-opacity="0.265278"/>
<stop offset="0.490155" stop-color="#050000" stop-opacity="0.157111"/>
<stop offset="0.498975" stop-color="#040000" stop-opacity="0.171606"/>
<stop offset="0.499075" stop-color="#030000" stop-opacity="0.152051"/>
<stop offset="0.54295" stop-color="#020000" stop-opacity="0.123651"/>
<stop offset="0.572981" stop-opacity="0.0909032"/>
<stop offset="0.573081" stop-color="#030202" stop-opacity="0.0659914"/>
<stop offset="0.573181" stop-color="#040404" stop-opacity="0.0484911"/>
<stop offset="0.630175" stop-color="#090808" stop-opacity="0.01"/>
<stop offset="0.630275" stop-color="#090909" stop-opacity="0"/>
<stop offset="0.673164" stop-color="#090909" stop-opacity="0"/>
<stop offset="0.74077" stop-color="#090909" stop-opacity="0"/>
<stop offset="0.778275" stop-color="#090909" stop-opacity="0"/>
<stop offset="0.778375" stop-color="#090909" stop-opacity="0"/>
<stop offset="0.824212" stop-color="#090909" stop-opacity="0"/>
<stop offset="0.891823" stop-color="#090909" stop-opacity="0"/>
<stop offset="0.891923" stop-color="#090909" stop-opacity="0"/>
<stop offset="0.912757" stop-color="#090909" stop-opacity="0"/>
</linearGradient>
<linearGradient id="paint1_linear_118_364" x1="215" y1="70" x2="215" y2="878.878" gradientUnits="userSpaceOnUse">
<stop offset="0.119837" stop-opacity="0.809865"/>
<stop offset="0.239634" stop-color="#0F0E0E" stop-opacity="0.619795"/>
<stop offset="0.282523" stop-color="#070707" stop-opacity="0.551746"/>
<stop offset="0.322909" stop-opacity="0.487669"/>
<stop offset="0.371068" stop-color="#010000" stop-opacity="0.413939"/>
<stop offset="0.371168" stop-color="#010000" stop-opacity="0.413939"/>
<stop offset="0.531151" stop-color="#040000" stop-opacity="0.171606"/>
<stop offset="0.531251" stop-color="#050000" stop-opacity="0.157111"/>
<stop offset="0.572981" stop-opacity="0.0909032"/>
<stop offset="0.630275" stop-color="#090909" stop-opacity="0"/>
</linearGradient>
<clipPath id="clip0_118_364">
<rect width="430" height="932" fill="white"/>
</clipPath>
</defs>
</svg>
