<svg width="1440" height="1002" viewBox="0 0 1440 1002" fill="none" xmlns="http://www.w3.org/2000/svg">
<rect width="1440" height="1002" fill="white"/>
<g filter="url(#filter0_d_102_309)">
<path d="M349 217C349 200.431 362.431 187 379 187H1006C1022.57 187 1036 200.431 1036 217V785C1036 801.569 1022.57 815 1006 815H379C362.431 815 349 801.569 349 785V217Z" fill="#146C94"/>
</g>
<path d="M416 452C416 439.297 426.297 429 439 429H935C947.703 429 958 439.297 958 452V470C958 482.703 947.703 493 935 493H439C426.297 493 416 482.703 416 470V452Z" fill="#D9D9D9"/>
<path d="M422 598C422 585.297 432.297 575 445 575H941C953.703 575 964 585.297 964 598V616C964 628.703 953.703 639 941 639H445C432.297 639 422 628.703 422 616V598Z" fill="#D9D9D9"/>
<path d="M606 728C606 715.297 616.297 705 629 705H745C757.703 705 768 715.297 768 728V746C768 758.703 757.703 769 745 769H629C616.297 769 606 758.703 606 746V728Z" fill="#EEE2E2" fill-opacity="0.94"/>
<path d="M620.752 310V273.636H629.541V302.862H644.669V310H620.752ZM661.95 310.515C659.085 310.515 656.623 309.929 654.563 308.757C652.516 307.573 650.935 305.928 649.823 303.821C648.722 301.702 648.171 299.246 648.171 296.452C648.171 293.647 648.722 291.191 649.823 289.084C650.935 286.965 652.516 285.32 654.563 284.148C656.623 282.964 659.085 282.372 661.95 282.372C664.814 282.372 667.271 282.964 669.318 284.148C671.378 285.32 672.958 286.965 674.059 289.084C675.172 291.191 675.728 293.647 675.728 296.452C675.728 299.246 675.172 301.702 674.059 303.821C672.958 305.928 671.378 307.573 669.318 308.757C667.271 309.929 664.814 310.515 661.95 310.515ZM662.003 303.963C663.045 303.963 663.927 303.643 664.649 303.004C665.371 302.365 665.921 301.477 666.3 300.341C666.691 299.205 666.886 297.891 666.886 296.399C666.886 294.884 666.691 293.558 666.3 292.422C665.921 291.286 665.371 290.398 664.649 289.759C663.927 289.119 663.045 288.8 662.003 288.8C660.926 288.8 660.014 289.119 659.269 289.759C658.535 290.398 657.972 291.286 657.582 292.422C657.203 293.558 657.014 294.884 657.014 296.399C657.014 297.891 657.203 299.205 657.582 300.341C657.972 301.477 658.535 302.365 659.269 303.004C660.014 303.643 660.926 303.963 662.003 303.963ZM692.889 320.795C690.297 320.795 688.077 320.434 686.231 319.712C684.384 318.99 682.934 318.002 681.881 316.747C680.827 315.492 680.194 314.072 679.981 312.486L688.202 312.024C688.355 312.58 688.64 313.066 689.054 313.48C689.48 313.894 690.03 314.214 690.705 314.439C691.392 314.664 692.197 314.776 693.12 314.776C694.576 314.776 695.777 314.421 696.724 313.711C697.683 313.013 698.162 311.787 698.162 310.036V305.241H697.861C697.517 306.082 696.997 306.834 696.298 307.496C695.6 308.159 694.73 308.68 693.688 309.059C692.658 309.438 691.474 309.627 690.137 309.627C688.148 309.627 686.325 309.165 684.668 308.242C683.023 307.307 681.703 305.863 680.709 303.91C679.726 301.945 679.235 299.418 679.235 296.328C679.235 293.144 679.744 290.522 680.762 288.462C681.78 286.391 683.112 284.858 684.757 283.864C686.414 282.869 688.196 282.372 690.101 282.372C691.534 282.372 692.759 282.621 693.777 283.118C694.807 283.603 695.653 284.231 696.316 285C696.979 285.769 697.482 286.568 697.825 287.397H698.074V282.727H706.721V310.107C706.721 312.415 706.141 314.362 704.981 315.948C703.821 317.534 702.199 318.736 700.116 319.553C698.032 320.381 695.623 320.795 692.889 320.795ZM693.155 303.306C694.209 303.306 695.108 303.028 695.854 302.472C696.6 301.915 697.174 301.116 697.577 300.075C697.979 299.033 698.18 297.784 698.18 296.328C698.18 294.848 697.979 293.576 697.577 292.511C697.186 291.433 696.612 290.605 695.854 290.025C695.108 289.445 694.209 289.155 693.155 289.155C692.078 289.155 691.167 289.451 690.421 290.043C689.675 290.634 689.107 291.469 688.716 292.546C688.338 293.612 688.148 294.872 688.148 296.328C688.148 297.784 688.344 299.033 688.734 300.075C689.125 301.116 689.687 301.915 690.421 302.472C691.167 303.028 692.078 303.306 693.155 303.306ZM712.256 310V282.727H720.939V310H712.256ZM716.606 279.549C715.387 279.549 714.339 279.147 713.463 278.342C712.587 277.525 712.15 276.542 712.15 275.394C712.15 274.258 712.587 273.287 713.463 272.482C714.339 271.665 715.387 271.257 716.606 271.257C717.837 271.257 718.885 271.665 719.749 272.482C720.625 273.287 721.063 274.258 721.063 275.394C721.063 276.542 720.625 277.525 719.749 278.342C718.885 279.147 717.837 279.549 716.606 279.549ZM735.148 294.446V310H726.465V282.727H734.721V287.734H735.023C735.627 286.065 736.657 284.757 738.113 283.81C739.569 282.852 741.303 282.372 743.315 282.372C745.233 282.372 746.896 282.804 748.305 283.668C749.725 284.521 750.826 285.716 751.607 287.255C752.4 288.782 752.791 290.569 752.779 292.617V310H744.096V294.322C744.108 292.807 743.724 291.623 742.942 290.771C742.173 289.918 741.102 289.492 739.729 289.492C738.817 289.492 738.012 289.693 737.314 290.096C736.627 290.487 736.095 291.049 735.716 291.783C735.349 292.517 735.159 293.404 735.148 294.446Z" fill="#FEF5F5"/>
<path d="M433.376 394V375.818H446.054V379.387H437.771V383.116H445.406V386.694H437.771V390.431H446.054V394H433.376ZM448.806 394V380.364H452.934V382.867H453.085C453.369 382.039 453.848 381.385 454.523 380.905C455.198 380.426 456.003 380.186 456.938 380.186C457.885 380.186 458.696 380.429 459.37 380.914C460.045 381.399 460.474 382.05 460.658 382.867H460.8C461.054 382.056 461.551 381.408 462.291 380.923C463.031 380.432 463.904 380.186 464.91 380.186C466.2 380.186 467.248 380.6 468.053 381.429C468.858 382.252 469.26 383.382 469.26 384.82V394H464.919V385.815C464.919 385.134 464.744 384.616 464.395 384.261C464.046 383.9 463.593 383.719 463.037 383.719C462.439 383.719 461.969 383.915 461.625 384.305C461.288 384.69 461.119 385.208 461.119 385.859V394H456.947V385.77C456.947 385.137 456.775 384.637 456.432 384.27C456.089 383.903 455.636 383.719 455.074 383.719C454.695 383.719 454.36 383.811 454.07 383.995C453.78 384.172 453.552 384.427 453.387 384.758C453.227 385.09 453.147 385.48 453.147 385.93V394H448.806ZM475.794 394.231C474.924 394.231 474.152 394.086 473.477 393.796C472.808 393.5 472.279 393.056 471.888 392.464C471.503 391.866 471.311 391.118 471.311 390.218C471.311 389.46 471.444 388.821 471.711 388.3C471.977 387.78 472.344 387.356 472.811 387.031C473.279 386.705 473.818 386.46 474.427 386.294C475.037 386.122 475.688 386.007 476.38 385.948C477.156 385.877 477.78 385.803 478.254 385.726C478.727 385.643 479.07 385.528 479.283 385.38C479.502 385.226 479.612 385.01 479.612 384.732V384.687C479.612 384.231 479.455 383.879 479.141 383.631C478.828 383.382 478.404 383.258 477.872 383.258C477.298 383.258 476.836 383.382 476.487 383.631C476.138 383.879 475.916 384.223 475.821 384.661L471.817 384.518C471.935 383.69 472.24 382.95 472.732 382.299C473.229 381.642 473.909 381.127 474.773 380.754C475.643 380.375 476.688 380.186 477.907 380.186C478.777 380.186 479.579 380.29 480.313 380.497C481.047 380.698 481.686 380.994 482.231 381.385C482.775 381.769 483.196 382.243 483.491 382.805C483.793 383.367 483.944 384.009 483.944 384.732V394H479.86V392.1H479.754C479.511 392.562 479.201 392.952 478.822 393.272C478.449 393.592 478.008 393.831 477.499 393.991C476.996 394.151 476.428 394.231 475.794 394.231ZM477.135 391.39C477.603 391.39 478.023 391.295 478.396 391.106C478.774 390.916 479.076 390.656 479.301 390.325C479.526 389.987 479.638 389.597 479.638 389.153V387.857C479.514 387.922 479.363 387.981 479.186 388.034C479.014 388.087 478.825 388.138 478.618 388.185C478.41 388.232 478.197 388.274 477.978 388.309C477.759 388.345 477.549 388.377 477.348 388.407C476.94 388.472 476.59 388.573 476.3 388.709C476.016 388.845 475.797 389.022 475.643 389.241C475.496 389.455 475.422 389.709 475.422 390.005C475.422 390.455 475.581 390.798 475.901 391.035C476.226 391.272 476.638 391.39 477.135 391.39ZM486.599 394V380.364H490.94V394H486.599ZM488.774 378.775C488.164 378.775 487.64 378.573 487.202 378.171C486.764 377.762 486.545 377.271 486.545 376.697C486.545 376.129 486.764 375.644 487.202 375.241C487.64 374.833 488.164 374.629 488.774 374.629C489.389 374.629 489.913 374.833 490.345 375.241C490.783 375.644 491.002 376.129 491.002 376.697C491.002 377.271 490.783 377.762 490.345 378.171C489.913 378.573 489.389 378.775 488.774 378.775ZM498.044 375.818V394H493.703V375.818H498.044Z" fill="white"/>
<path d="M433.376 548V529.818H440.887C442.248 529.818 443.423 530.085 444.411 530.617C445.406 531.144 446.172 531.881 446.711 532.828C447.249 533.769 447.518 534.864 447.518 536.113C447.518 537.367 447.243 538.465 446.693 539.406C446.148 540.341 445.37 541.066 444.358 541.581C443.346 542.096 442.144 542.354 440.754 542.354H436.119V538.891H439.937C440.6 538.891 441.153 538.776 441.597 538.545C442.047 538.314 442.387 537.992 442.618 537.577C442.849 537.157 442.964 536.669 442.964 536.113C442.964 535.55 442.849 535.065 442.618 534.657C442.387 534.242 442.047 533.923 441.597 533.698C441.147 533.473 440.594 533.36 439.937 533.36H437.771V548H433.376ZM453.04 548.231C452.17 548.231 451.398 548.086 450.723 547.796C450.055 547.5 449.525 547.056 449.134 546.464C448.75 545.866 448.557 545.118 448.557 544.218C448.557 543.46 448.69 542.821 448.957 542.3C449.223 541.78 449.59 541.356 450.058 541.031C450.525 540.705 451.064 540.46 451.673 540.294C452.283 540.122 452.934 540.007 453.626 539.948C454.402 539.877 455.026 539.803 455.5 539.726C455.973 539.643 456.316 539.528 456.529 539.38C456.748 539.226 456.858 539.01 456.858 538.732V538.687C456.858 538.231 456.701 537.879 456.387 537.631C456.074 537.382 455.651 537.258 455.118 537.258C454.544 537.258 454.082 537.382 453.733 537.631C453.384 537.879 453.162 538.223 453.067 538.661L449.063 538.518C449.182 537.69 449.486 536.95 449.978 536.299C450.475 535.642 451.155 535.127 452.02 534.754C452.89 534.375 453.934 534.186 455.153 534.186C456.023 534.186 456.825 534.29 457.559 534.497C458.293 534.698 458.932 534.994 459.477 535.385C460.021 535.769 460.442 536.243 460.738 536.805C461.039 537.367 461.19 538.009 461.19 538.732V548H457.107V546.1H457C456.757 546.562 456.447 546.952 456.068 547.272C455.695 547.592 455.254 547.831 454.745 547.991C454.242 548.151 453.674 548.231 453.04 548.231ZM454.381 545.39C454.849 545.39 455.269 545.295 455.642 545.106C456.02 544.916 456.322 544.656 456.547 544.325C456.772 543.987 456.885 543.597 456.885 543.153V541.857C456.76 541.922 456.609 541.981 456.432 542.034C456.26 542.087 456.071 542.138 455.864 542.185C455.656 542.232 455.443 542.274 455.224 542.309C455.005 542.345 454.795 542.377 454.594 542.407C454.186 542.472 453.837 542.573 453.547 542.709C453.262 542.845 453.043 543.022 452.89 543.241C452.742 543.455 452.668 543.709 452.668 544.005C452.668 544.455 452.827 544.798 453.147 545.035C453.473 545.272 453.884 545.39 454.381 545.39ZM475.75 538.527L471.764 538.634C471.722 538.35 471.61 538.098 471.426 537.879C471.243 537.654 471.003 537.48 470.707 537.355C470.417 537.225 470.08 537.16 469.695 537.16C469.192 537.16 468.763 537.261 468.408 537.462C468.059 537.663 467.887 537.935 467.893 538.279C467.887 538.545 467.994 538.776 468.213 538.971C468.438 539.167 468.837 539.323 469.411 539.442L472.039 539.939C473.4 540.199 474.412 540.631 475.075 541.235C475.744 541.839 476.081 542.638 476.087 543.632C476.081 544.567 475.803 545.381 475.253 546.074C474.708 546.766 473.963 547.305 473.016 547.689C472.069 548.068 470.986 548.257 469.766 548.257C467.819 548.257 466.283 547.858 465.159 547.059C464.04 546.254 463.401 545.177 463.241 543.827L467.529 543.721C467.624 544.218 467.869 544.597 468.266 544.857C468.663 545.118 469.169 545.248 469.784 545.248C470.34 545.248 470.793 545.144 471.142 544.937C471.492 544.73 471.669 544.455 471.675 544.112C471.669 543.804 471.533 543.558 471.267 543.375C471 543.185 470.583 543.037 470.015 542.931L467.636 542.478C466.268 542.229 465.25 541.771 464.582 541.102C463.913 540.427 463.581 539.569 463.587 538.527C463.581 537.616 463.824 536.838 464.315 536.192C464.807 535.541 465.505 535.044 466.411 534.701C467.316 534.358 468.384 534.186 469.615 534.186C471.462 534.186 472.918 534.574 473.983 535.349C475.049 536.118 475.638 537.178 475.75 538.527ZM490.13 538.527L486.144 538.634C486.102 538.35 485.99 538.098 485.806 537.879C485.623 537.654 485.383 537.48 485.087 537.355C484.797 537.225 484.46 537.16 484.075 537.16C483.572 537.16 483.143 537.261 482.788 537.462C482.439 537.663 482.267 537.935 482.273 538.279C482.267 538.545 482.374 538.776 482.593 538.971C482.818 539.167 483.217 539.323 483.791 539.442L486.419 539.939C487.78 540.199 488.792 540.631 489.455 541.235C490.124 541.839 490.461 542.638 490.467 543.632C490.461 544.567 490.183 545.381 489.633 546.074C489.088 546.766 488.342 547.305 487.396 547.689C486.449 548.068 485.365 548.257 484.146 548.257C482.199 548.257 480.663 547.858 479.539 547.059C478.42 546.254 477.781 545.177 477.621 543.827L481.909 543.721C482.004 544.218 482.249 544.597 482.646 544.857C483.042 545.118 483.548 545.248 484.164 545.248C484.72 545.248 485.173 545.144 485.522 544.937C485.871 544.73 486.049 544.455 486.055 544.112C486.049 543.804 485.913 543.558 485.647 543.375C485.38 543.185 484.963 543.037 484.395 542.931L482.016 542.478C480.648 542.229 479.63 541.771 478.962 541.102C478.293 540.427 477.961 539.569 477.967 538.527C477.961 537.616 478.204 536.838 478.695 536.192C479.186 535.541 479.885 535.044 480.79 534.701C481.696 534.358 482.764 534.186 483.995 534.186C485.842 534.186 487.298 534.574 488.363 535.349C489.429 536.118 490.017 537.178 490.13 538.527ZM495.153 548L491.601 534.364H495.96L497.798 543.099H497.914L499.884 534.364H504.137L506.161 543.037H506.276L508.061 534.364H512.42L508.86 548H504.217L502.086 540.054H501.935L499.805 548H495.153ZM520.235 548.257C518.802 548.257 517.571 547.964 516.541 547.379C515.518 546.787 514.727 545.964 514.171 544.911C513.621 543.851 513.345 542.623 513.345 541.226C513.345 539.824 513.621 538.595 514.171 537.542C514.727 536.482 515.518 535.66 516.541 535.074C517.571 534.482 518.802 534.186 520.235 534.186C521.667 534.186 522.895 534.482 523.919 535.074C524.949 535.66 525.739 536.482 526.289 537.542C526.846 538.595 527.124 539.824 527.124 541.226C527.124 542.623 526.846 543.851 526.289 544.911C525.739 545.964 524.949 546.787 523.919 547.379C522.895 547.964 521.667 548.257 520.235 548.257ZM520.261 544.982C520.782 544.982 521.223 544.822 521.584 544.502C521.945 544.183 522.22 543.739 522.41 543.17C522.605 542.602 522.703 541.945 522.703 541.2C522.703 540.442 522.605 539.779 522.41 539.211C522.22 538.643 521.945 538.199 521.584 537.879C521.223 537.56 520.782 537.4 520.261 537.4C519.723 537.4 519.267 537.56 518.894 537.879C518.527 538.199 518.246 538.643 518.051 539.211C517.861 539.779 517.767 540.442 517.767 541.2C517.767 541.945 517.861 542.602 518.051 543.17C518.246 543.739 518.527 544.183 518.894 544.502C519.267 544.822 519.723 544.982 520.261 544.982ZM529.348 548V534.364H533.565V536.849H533.707C533.955 535.95 534.361 535.281 534.923 534.843C535.485 534.399 536.139 534.177 536.885 534.177C537.086 534.177 537.293 534.192 537.506 534.222C537.72 534.245 537.918 534.284 538.101 534.337V538.11C537.894 538.039 537.622 537.983 537.285 537.941C536.953 537.9 536.657 537.879 536.397 537.879C535.882 537.879 535.417 537.995 535.003 538.225C534.595 538.45 534.272 538.767 534.035 539.175C533.804 539.578 533.689 540.051 533.689 540.596V548H529.348ZM544.143 548.195C543.137 548.195 542.222 547.935 541.399 547.414C540.577 546.893 539.92 546.112 539.429 545.07C538.937 544.029 538.692 542.735 538.692 541.191C538.692 539.587 538.946 538.267 539.455 537.231C539.964 536.195 540.63 535.429 541.453 534.932C542.281 534.435 543.172 534.186 544.125 534.186C544.841 534.186 545.454 534.31 545.963 534.559C546.472 534.802 546.892 535.115 547.223 535.5C547.555 535.885 547.806 536.284 547.978 536.699H548.067V529.818H552.408V548H548.111V545.789H547.978C547.794 546.21 547.534 546.603 547.197 546.97C546.859 547.337 546.436 547.633 545.927 547.858C545.424 548.083 544.829 548.195 544.143 548.195ZM545.652 544.813C546.179 544.813 546.628 544.665 547.001 544.369C547.374 544.067 547.661 543.644 547.862 543.099C548.064 542.555 548.164 541.916 548.164 541.182C548.164 540.436 548.064 539.794 547.862 539.255C547.667 538.717 547.38 538.302 547.001 538.012C546.628 537.722 546.179 537.577 545.652 537.577C545.113 537.577 544.658 537.725 544.285 538.021C543.912 538.317 543.628 538.734 543.432 539.273C543.243 539.812 543.148 540.448 543.148 541.182C543.148 541.916 543.246 542.555 543.441 543.099C543.637 543.644 543.918 544.067 544.285 544.369C544.658 544.665 545.113 544.813 545.652 544.813Z" fill="white"/>
<path d="M651.376 744V725.818H655.771V740.431H663.335V744H651.376ZM671.975 744.257C670.543 744.257 669.312 743.964 668.282 743.379C667.258 742.787 666.468 741.964 665.911 740.911C665.361 739.851 665.086 738.623 665.086 737.226C665.086 735.824 665.361 734.595 665.911 733.542C666.468 732.482 667.258 731.66 668.282 731.074C669.312 730.482 670.543 730.186 671.975 730.186C673.407 730.186 674.635 730.482 675.659 731.074C676.689 731.66 677.479 732.482 678.03 733.542C678.586 734.595 678.864 735.824 678.864 737.226C678.864 738.623 678.586 739.851 678.03 740.911C677.479 741.964 676.689 742.787 675.659 743.379C674.635 743.964 673.407 744.257 671.975 744.257ZM672.002 740.982C672.522 740.982 672.963 740.822 673.324 740.502C673.685 740.183 673.961 739.739 674.15 739.17C674.345 738.602 674.443 737.945 674.443 737.2C674.443 736.442 674.345 735.779 674.15 735.211C673.961 734.643 673.685 734.199 673.324 733.879C672.963 733.56 672.522 733.4 672.002 733.4C671.463 733.4 671.007 733.56 670.634 733.879C670.267 734.199 669.986 734.643 669.791 735.211C669.602 735.779 669.507 736.442 669.507 737.2C669.507 737.945 669.602 738.602 669.791 739.17C669.986 739.739 670.267 740.183 670.634 740.502C671.007 740.822 671.463 740.982 672.002 740.982ZM687.445 749.398C686.148 749.398 685.039 749.217 684.115 748.856C683.192 748.495 682.467 748.001 681.94 747.374C681.414 746.746 681.097 746.036 680.99 745.243L685.101 745.012C685.178 745.29 685.32 745.533 685.527 745.74C685.74 745.947 686.015 746.107 686.353 746.219C686.696 746.332 687.098 746.388 687.56 746.388C688.288 746.388 688.889 746.211 689.362 745.855C689.842 745.506 690.081 744.894 690.081 744.018V741.621H689.93C689.759 742.041 689.498 742.417 689.149 742.748C688.8 743.08 688.365 743.34 687.844 743.529C687.329 743.719 686.737 743.814 686.068 743.814C685.074 743.814 684.163 743.583 683.334 743.121C682.511 742.654 681.851 741.931 681.354 740.955C680.863 739.972 680.617 738.709 680.617 737.164C680.617 735.572 680.872 734.261 681.381 733.231C681.89 732.195 682.556 731.429 683.378 730.932C684.207 730.435 685.098 730.186 686.051 730.186C686.767 730.186 687.379 730.31 687.888 730.559C688.403 730.802 688.826 731.115 689.158 731.5C689.489 731.885 689.741 732.284 689.913 732.699H690.037V730.364H694.36V744.053C694.36 745.207 694.07 746.181 693.49 746.974C692.91 747.767 692.099 748.368 691.058 748.776C690.016 749.191 688.812 749.398 687.445 749.398ZM687.578 740.653C688.104 740.653 688.554 740.514 688.927 740.236C689.3 739.958 689.587 739.558 689.788 739.037C689.989 738.516 690.09 737.892 690.09 737.164C690.09 736.424 689.989 735.788 689.788 735.255C689.593 734.717 689.306 734.302 688.927 734.012C688.554 733.722 688.104 733.577 687.578 733.577C687.039 733.577 686.583 733.725 686.21 734.021C685.838 734.317 685.554 734.734 685.358 735.273C685.169 735.806 685.074 736.436 685.074 737.164C685.074 737.892 685.172 738.516 685.367 739.037C685.562 739.558 685.844 739.958 686.21 740.236C686.583 740.514 687.039 740.653 687.578 740.653ZM697.128 744V730.364H701.469V744H697.128ZM699.303 728.775C698.693 728.775 698.17 728.573 697.732 728.171C697.294 727.762 697.075 727.271 697.075 726.697C697.075 726.129 697.294 725.644 697.732 725.241C698.17 724.833 698.693 724.629 699.303 724.629C699.919 724.629 700.442 724.833 700.874 725.241C701.312 725.644 701.531 726.129 701.531 726.697C701.531 727.271 701.312 727.762 700.874 728.171C700.442 728.573 699.919 728.775 699.303 728.775ZM708.574 736.223V744H704.233V730.364H708.361V732.867H708.512C708.813 732.033 709.328 731.379 710.056 730.905C710.784 730.426 711.651 730.186 712.658 730.186C713.616 730.186 714.448 730.402 715.152 730.834C715.862 731.26 716.413 731.858 716.804 732.627C717.2 733.391 717.395 734.285 717.389 735.309V744H713.048V736.161C713.054 735.403 712.862 734.811 712.471 734.385C712.086 733.959 711.551 733.746 710.864 733.746C710.409 733.746 710.006 733.847 709.657 734.048C709.314 734.243 709.047 734.524 708.858 734.891C708.674 735.258 708.58 735.702 708.574 736.223Z" fill="#150202"/>
<defs>
<filter id="filter0_d_102_309" x="315" y="156" width="753" height="694" filterUnits="userSpaceOnUse" color-interpolation-filters="sRGB">
<feFlood flood-opacity="0" result="BackgroundImageFix"/>
<feColorMatrix in="SourceAlpha" type="matrix" values="0 0 0 0 0 0 0 0 0 0 0 0 0 0 0 0 0 0 127 0" result="hardAlpha"/>
<feOffset dx="-1" dy="2"/>
<feGaussianBlur stdDeviation="16.5"/>
<feComposite in2="hardAlpha" operator="out"/>
<feColorMatrix type="matrix" values="0 0 0 0 0 0 0 0 0 0 0 0 0 0 0 0 0 0 0.48 0"/>
<feBlend mode="normal" in2="BackgroundImageFix" result="effect1_dropShadow_102_309"/>
<feBlend mode="normal" in="SourceGraphic" in2="effect1_dropShadow_102_309" result="shape"/>
</filter>
</defs>
</svg>
