<svg width="1363" height="163" viewBox="0 0 1363 163" fill="none" xmlns="http://www.w3.org/2000/svg">
<path d="M0 15C0 6.71573 6.71573 0 15 0H37V163H15C6.71573 163 0 156.284 0 148V15Z" fill="#146C94"/>
<rect width="1097" height="163" transform="translate(37)" fill="#F0F0F0"/>
<path d="M101.906 53.9219L94.3945 51.2383V48.0859L104.602 52.375V54.6367L101.906 53.9219ZM94.3945 56.1719L101.918 53.4297L104.602 52.7852V55.0352L94.3945 59.3242V56.1719ZM116.25 48.3203V61H112.863V48.3203H116.25ZM112.652 45.0156C112.652 44.5234 112.824 44.1172 113.168 43.7969C113.512 43.4766 113.973 43.3164 114.551 43.3164C115.121 43.3164 115.578 43.4766 115.922 43.7969C116.273 44.1172 116.449 44.5234 116.449 45.0156C116.449 45.5078 116.273 45.9141 115.922 46.2344C115.578 46.5547 115.121 46.7148 114.551 46.7148C113.973 46.7148 113.512 46.5547 113.168 46.2344C112.824 45.9141 112.652 45.5078 112.652 45.0156ZM124.488 61H120.773L120.797 58.2578H124.488C125.41 58.2578 126.188 58.0508 126.82 57.6367C127.453 57.2148 127.93 56.6016 128.25 55.7969C128.578 54.9922 128.742 54.0195 128.742 52.8789V52.0469C128.742 51.1719 128.648 50.4023 128.461 49.7383C128.281 49.0742 128.012 48.5156 127.652 48.0625C127.293 47.6094 126.852 47.2695 126.328 47.043C125.805 46.8086 125.203 46.6914 124.523 46.6914H120.703V43.9375H124.523C125.664 43.9375 126.707 44.1328 127.652 44.5234C128.605 44.9062 129.43 45.457 130.125 46.1758C130.82 46.8945 131.355 47.7539 131.73 48.7539C132.113 49.7461 132.305 50.8516 132.305 52.0703V52.8789C132.305 54.0898 132.113 55.1953 131.73 56.1953C131.355 57.1953 130.82 58.0547 130.125 58.7734C129.438 59.4844 128.613 60.0352 127.652 60.4258C126.699 60.8086 125.645 61 124.488 61ZM122.766 43.9375V61H119.25V43.9375H122.766ZM134.109 54.7891V54.543C134.109 53.6133 134.242 52.7578 134.508 51.9766C134.773 51.1875 135.16 50.5039 135.668 49.9258C136.176 49.3477 136.801 48.8984 137.543 48.5781C138.285 48.25 139.137 48.0859 140.098 48.0859C141.059 48.0859 141.914 48.25 142.664 48.5781C143.414 48.8984 144.043 49.3477 144.551 49.9258C145.066 50.5039 145.457 51.1875 145.723 51.9766C145.988 52.7578 146.121 53.6133 146.121 54.543V54.7891C146.121 55.7109 145.988 56.5664 145.723 57.3555C145.457 58.1367 145.066 58.8203 144.551 59.4062C144.043 59.9844 143.418 60.4336 142.676 60.7539C141.934 61.0742 141.082 61.2344 140.121 61.2344C139.16 61.2344 138.305 61.0742 137.555 60.7539C136.812 60.4336 136.184 59.9844 135.668 59.4062C135.16 58.8203 134.773 58.1367 134.508 57.3555C134.242 56.5664 134.109 55.7109 134.109 54.7891ZM137.484 54.543V54.7891C137.484 55.3203 137.531 55.8164 137.625 56.2773C137.719 56.7383 137.867 57.1445 138.07 57.4961C138.281 57.8398 138.555 58.1094 138.891 58.3047C139.227 58.5 139.637 58.5977 140.121 58.5977C140.59 58.5977 140.992 58.5 141.328 58.3047C141.664 58.1094 141.934 57.8398 142.137 57.4961C142.34 57.1445 142.488 56.7383 142.582 56.2773C142.684 55.8164 142.734 55.3203 142.734 54.7891V54.543C142.734 54.0273 142.684 53.543 142.582 53.0898C142.488 52.6289 142.336 52.2227 142.125 51.8711C141.922 51.5117 141.652 51.2305 141.316 51.0273C140.98 50.8242 140.574 50.7227 140.098 50.7227C139.621 50.7227 139.215 50.8242 138.879 51.0273C138.551 51.2305 138.281 51.5117 138.07 51.8711C137.867 52.2227 137.719 52.6289 137.625 53.0898C137.531 53.543 137.484 54.0273 137.484 54.543ZM151.5 51.0273V61H148.125V48.3203H151.289L151.5 51.0273ZM151.008 54.2148H150.094C150.094 53.2773 150.215 52.4336 150.457 51.6836C150.699 50.9258 151.039 50.2812 151.477 49.75C151.914 49.2109 152.434 48.8008 153.035 48.5195C153.645 48.2305 154.324 48.0859 155.074 48.0859C155.668 48.0859 156.211 48.1719 156.703 48.3438C157.195 48.5156 157.617 48.7891 157.969 49.1641C158.328 49.5391 158.602 50.0352 158.789 50.6523C158.984 51.2695 159.082 52.0234 159.082 52.9141V61H155.684V52.9023C155.684 52.3398 155.605 51.9023 155.449 51.5898C155.293 51.2773 155.062 51.0586 154.758 50.9336C154.461 50.8008 154.094 50.7344 153.656 50.7344C153.203 50.7344 152.809 50.8242 152.473 51.0039C152.145 51.1836 151.871 51.4336 151.652 51.7539C151.441 52.0664 151.281 52.4336 151.172 52.8555C151.062 53.2773 151.008 53.7305 151.008 54.2148ZM168.492 58.1406V52.4922C168.492 52.0859 168.426 51.7383 168.293 51.4492C168.16 51.1523 167.953 50.9219 167.672 50.7578C167.398 50.5938 167.043 50.5117 166.605 50.5117C166.23 50.5117 165.906 50.5781 165.633 50.7109C165.359 50.8359 165.148 51.0195 165 51.2617C164.852 51.4961 164.777 51.7734 164.777 52.0938H161.402C161.402 51.5547 161.527 51.043 161.777 50.5586C162.027 50.0742 162.391 49.6484 162.867 49.2812C163.344 48.9062 163.91 48.6133 164.566 48.4023C165.23 48.1914 165.973 48.0859 166.793 48.0859C167.777 48.0859 168.652 48.25 169.418 48.5781C170.184 48.9062 170.785 49.3984 171.223 50.0547C171.668 50.7109 171.891 51.5312 171.891 52.5156V57.9414C171.891 58.6367 171.934 59.207 172.02 59.6523C172.105 60.0898 172.23 60.4727 172.395 60.8008V61H168.984C168.82 60.6562 168.695 60.2266 168.609 59.7109C168.531 59.1875 168.492 58.6641 168.492 58.1406ZM168.938 53.2773L168.961 55.1875H167.074C166.629 55.1875 166.242 55.2383 165.914 55.3398C165.586 55.4414 165.316 55.5859 165.105 55.7734C164.895 55.9531 164.738 56.1641 164.637 56.4062C164.543 56.6484 164.496 56.9141 164.496 57.2031C164.496 57.4922 164.562 57.7539 164.695 57.9883C164.828 58.2148 165.02 58.3945 165.27 58.5273C165.52 58.6523 165.812 58.7148 166.148 58.7148C166.656 58.7148 167.098 58.6133 167.473 58.4102C167.848 58.207 168.137 57.957 168.34 57.6602C168.551 57.3633 168.66 57.082 168.668 56.8164L169.559 58.2461C169.434 58.5664 169.262 58.8984 169.043 59.2422C168.832 59.5859 168.562 59.9102 168.234 60.2148C167.906 60.5117 167.512 60.7578 167.051 60.9531C166.59 61.1406 166.043 61.2344 165.41 61.2344C164.605 61.2344 163.875 61.0742 163.219 60.7539C162.57 60.4258 162.055 59.9766 161.672 59.4062C161.297 58.8281 161.109 58.1719 161.109 57.4375C161.109 56.7734 161.234 56.1836 161.484 55.668C161.734 55.1523 162.102 54.7188 162.586 54.3672C163.078 54.0078 163.691 53.7383 164.426 53.5586C165.16 53.3711 166.012 53.2773 166.98 53.2773H168.938ZM180.703 48.3203V50.7109H173.32V48.3203H180.703ZM175.148 45.1914H178.523V57.1797C178.523 57.5469 178.57 57.8281 178.664 58.0234C178.766 58.2188 178.914 58.3555 179.109 58.4336C179.305 58.5039 179.551 58.5391 179.848 58.5391C180.059 58.5391 180.246 58.5312 180.41 58.5156C180.582 58.4922 180.727 58.4688 180.844 58.4453L180.855 60.9297C180.566 61.0234 180.254 61.0977 179.918 61.1523C179.582 61.207 179.211 61.2344 178.805 61.2344C178.062 61.2344 177.414 61.1133 176.859 60.8711C176.312 60.6211 175.891 60.2227 175.594 59.6758C175.297 59.1289 175.148 58.4102 175.148 57.5195V45.1914ZM188.461 61.2344C187.477 61.2344 186.594 61.0781 185.812 60.7656C185.031 60.4453 184.367 60.0039 183.82 59.4414C183.281 58.8789 182.867 58.2266 182.578 57.4844C182.289 56.7344 182.145 55.9375 182.145 55.0938V54.625C182.145 53.6641 182.281 52.7852 182.555 51.9883C182.828 51.1914 183.219 50.5 183.727 49.9141C184.242 49.3281 184.867 48.8789 185.602 48.5664C186.336 48.2461 187.164 48.0859 188.086 48.0859C188.984 48.0859 189.781 48.2344 190.477 48.5312C191.172 48.8281 191.754 49.25 192.223 49.7969C192.699 50.3438 193.059 51 193.301 51.7656C193.543 52.5234 193.664 53.3672 193.664 54.2969V55.7031H183.586V53.4531H190.348V53.1953C190.348 52.7266 190.262 52.3086 190.09 51.9414C189.926 51.5664 189.676 51.2695 189.34 51.0508C189.004 50.832 188.574 50.7227 188.051 50.7227C187.605 50.7227 187.223 50.8203 186.902 51.0156C186.582 51.2109 186.32 51.4844 186.117 51.8359C185.922 52.1875 185.773 52.6016 185.672 53.0781C185.578 53.5469 185.531 54.0625 185.531 54.625V55.0938C185.531 55.6016 185.602 56.0703 185.742 56.5C185.891 56.9297 186.098 57.3008 186.363 57.6133C186.637 57.9258 186.965 58.168 187.348 58.3398C187.738 58.5117 188.18 58.5977 188.672 58.5977C189.281 58.5977 189.848 58.4805 190.371 58.2461C190.902 58.0039 191.359 57.6406 191.742 57.1562L193.383 58.9375C193.117 59.3203 192.754 59.6875 192.293 60.0391C191.84 60.3906 191.293 60.6797 190.652 60.9062C190.012 61.125 189.281 61.2344 188.461 61.2344Z" fill="#888888"/>
<path d="M112.125 84.875V119H103.898V84.875H112.125ZM122.391 84.875V91.2266H93.8672V84.875H122.391ZM135.68 119.469C133.617 119.469 131.773 119.148 130.148 118.508C128.523 117.852 127.148 116.953 126.023 115.812C124.914 114.672 124.062 113.359 123.469 111.875C122.891 110.391 122.602 108.82 122.602 107.164V106.273C122.602 104.414 122.859 102.695 123.375 101.117C123.891 99.5234 124.656 98.1328 125.672 96.9453C126.688 95.7578 127.961 94.8359 129.492 94.1797C131.023 93.5078 132.805 93.1719 134.836 93.1719C136.633 93.1719 138.242 93.4609 139.664 94.0391C141.086 94.6172 142.289 95.4453 143.273 96.5234C144.273 97.6016 145.031 98.9062 145.547 100.438C146.078 101.969 146.344 103.688 146.344 105.594V108.805H125.625V103.859H138.633V103.25C138.648 102.406 138.5 101.688 138.188 101.094C137.891 100.5 137.453 100.047 136.875 99.7344C136.297 99.4219 135.594 99.2656 134.766 99.2656C133.906 99.2656 133.195 99.4531 132.633 99.8281C132.086 100.203 131.656 100.719 131.344 101.375C131.047 102.016 130.836 102.758 130.711 103.602C130.586 104.445 130.523 105.336 130.523 106.273V107.164C130.523 108.102 130.648 108.953 130.898 109.719C131.164 110.484 131.539 111.141 132.023 111.688C132.523 112.219 133.117 112.633 133.805 112.93C134.508 113.227 135.305 113.375 136.195 113.375C137.273 113.375 138.336 113.172 139.383 112.766C140.43 112.359 141.328 111.688 142.078 110.75L145.664 115.016C145.148 115.75 144.414 116.461 143.461 117.148C142.523 117.836 141.398 118.398 140.086 118.836C138.773 119.258 137.305 119.469 135.68 119.469ZM160.266 113.375C161 113.375 161.625 113.242 162.141 112.977C162.672 112.695 163.07 112.305 163.336 111.805C163.617 111.289 163.75 110.672 163.734 109.953H171.164C171.18 111.859 170.711 113.531 169.758 114.969C168.82 116.391 167.539 117.5 165.914 118.297C164.305 119.078 162.484 119.469 160.453 119.469C158.469 119.469 156.734 119.148 155.25 118.508C153.766 117.852 152.523 116.945 151.523 115.789C150.539 114.617 149.797 113.25 149.297 111.688C148.812 110.125 148.57 108.43 148.57 106.602V106.062C148.57 104.234 148.812 102.539 149.297 100.977C149.797 99.3984 150.539 98.0312 151.523 96.875C152.523 95.7031 153.758 94.7969 155.227 94.1562C156.711 93.5 158.438 93.1719 160.406 93.1719C162.516 93.1719 164.375 93.5703 165.984 94.3672C167.609 95.1641 168.883 96.3203 169.805 97.8359C170.727 99.3516 171.18 101.188 171.164 103.344H163.734C163.75 102.578 163.633 101.891 163.383 101.281C163.133 100.672 162.742 100.188 162.211 99.8281C161.695 99.4531 161.031 99.2656 160.219 99.2656C159.406 99.2656 158.75 99.4453 158.25 99.8047C157.75 100.164 157.367 100.664 157.102 101.305C156.852 101.93 156.68 102.648 156.586 103.461C156.508 104.273 156.469 105.141 156.469 106.062V106.602C156.469 107.539 156.508 108.422 156.586 109.25C156.68 110.062 156.859 110.781 157.125 111.406C157.391 112.016 157.773 112.5 158.273 112.859C158.773 113.203 159.438 113.375 160.266 113.375ZM182.273 83V119H174.375V83H182.273ZM181.336 105.453L179.484 105.5C179.484 103.719 179.703 102.078 180.141 100.578C180.578 99.0781 181.203 97.7734 182.016 96.6641C182.828 95.5547 183.805 94.6953 184.945 94.0859C186.086 93.4766 187.352 93.1719 188.742 93.1719C189.992 93.1719 191.133 93.3516 192.164 93.7109C193.211 94.0703 194.109 94.6484 194.859 95.4453C195.625 96.2422 196.211 97.2812 196.617 98.5625C197.039 99.8438 197.25 101.406 197.25 103.25V119H189.305V103.203C189.305 102.172 189.156 101.375 188.859 100.812C188.578 100.234 188.172 99.8359 187.641 99.6172C187.109 99.3828 186.461 99.2656 185.695 99.2656C184.773 99.2656 184.023 99.4219 183.445 99.7344C182.867 100.047 182.422 100.484 182.109 101.047C181.812 101.594 181.609 102.242 181.5 102.992C181.391 103.742 181.336 104.562 181.336 105.453ZM231.539 109.93C231.539 109.398 231.461 108.922 231.305 108.5C231.148 108.062 230.859 107.656 230.438 107.281C230.016 106.906 229.406 106.531 228.609 106.156C227.828 105.766 226.797 105.359 225.516 104.938C224.016 104.438 222.57 103.875 221.18 103.25C219.789 102.609 218.547 101.867 217.453 101.023C216.359 100.164 215.492 99.1641 214.852 98.0234C214.211 96.8672 213.891 95.5234 213.891 93.9922C213.891 92.5234 214.219 91.2031 214.875 90.0312C215.531 88.8438 216.445 87.8359 217.617 87.0078C218.805 86.1641 220.195 85.5234 221.789 85.0859C223.383 84.6328 225.125 84.4062 227.016 84.4062C229.516 84.4062 231.719 84.8438 233.625 85.7188C235.547 86.5781 237.047 87.8047 238.125 89.3984C239.219 90.9766 239.766 92.8438 239.766 95H231.586C231.586 94.1406 231.406 93.3828 231.047 92.7266C230.703 92.0703 230.18 91.5547 229.477 91.1797C228.773 90.8047 227.891 90.6172 226.828 90.6172C225.797 90.6172 224.93 90.7734 224.227 91.0859C223.523 91.3984 222.992 91.8203 222.633 92.3516C222.273 92.8672 222.094 93.4375 222.094 94.0625C222.094 94.5781 222.234 95.0469 222.516 95.4688C222.812 95.875 223.227 96.2578 223.758 96.6172C224.305 96.9766 224.961 97.3203 225.727 97.6484C226.508 97.9766 227.383 98.2969 228.352 98.6094C230.164 99.1875 231.773 99.8359 233.18 100.555C234.602 101.258 235.797 102.062 236.766 102.969C237.75 103.859 238.492 104.875 238.992 106.016C239.508 107.156 239.766 108.445 239.766 109.883C239.766 111.414 239.469 112.773 238.875 113.961C238.281 115.148 237.43 116.156 236.32 116.984C235.211 117.797 233.883 118.414 232.336 118.836C230.789 119.258 229.062 119.469 227.156 119.469C225.406 119.469 223.68 119.25 221.977 118.812C220.289 118.359 218.758 117.672 217.383 116.75C216.008 115.812 214.906 114.617 214.078 113.164C213.266 111.695 212.859 109.953 212.859 107.938H221.109C221.109 108.938 221.242 109.781 221.508 110.469C221.773 111.156 222.164 111.711 222.68 112.133C223.195 112.539 223.828 112.836 224.578 113.023C225.328 113.195 226.188 113.281 227.156 113.281C228.203 113.281 229.047 113.133 229.688 112.836C230.328 112.523 230.797 112.117 231.094 111.617C231.391 111.102 231.539 110.539 231.539 109.93ZM256.992 93.6406V99.125H241.711V93.6406H256.992ZM244.922 87.3359H252.82V110.727C252.82 111.398 252.898 111.922 253.055 112.297C253.211 112.656 253.477 112.914 253.852 113.07C254.242 113.211 254.758 113.281 255.398 113.281C255.852 113.281 256.227 113.273 256.523 113.258C256.82 113.227 257.102 113.188 257.367 113.141V118.789C256.695 119.008 255.992 119.172 255.258 119.281C254.523 119.406 253.742 119.469 252.914 119.469C251.227 119.469 249.781 119.203 248.578 118.672C247.391 118.141 246.484 117.305 245.859 116.164C245.234 115.023 244.922 113.539 244.922 111.711V87.3359ZM273.305 112.625V102.172C273.305 101.453 273.203 100.836 273 100.32C272.797 99.8047 272.477 99.4062 272.039 99.125C271.602 98.8281 271.016 98.6797 270.281 98.6797C269.688 98.6797 269.18 98.7812 268.758 98.9844C268.336 99.1875 268.016 99.4922 267.797 99.8984C267.578 100.305 267.469 100.82 267.469 101.445H259.57C259.57 100.273 259.828 99.1875 260.344 98.1875C260.875 97.1719 261.625 96.2891 262.594 95.5391C263.578 94.7891 264.75 94.2109 266.109 93.8047C267.484 93.3828 269.016 93.1719 270.703 93.1719C272.719 93.1719 274.516 93.5078 276.094 94.1797C277.688 94.8516 278.945 95.8594 279.867 97.2031C280.789 98.5312 281.25 100.203 281.25 102.219V112.602C281.25 114.258 281.344 115.516 281.531 116.375C281.719 117.219 281.984 117.961 282.328 118.602V119H274.406C274.031 118.219 273.75 117.266 273.562 116.141C273.391 115 273.305 113.828 273.305 112.625ZM274.266 103.508L274.312 107.727H270.82C270.086 107.727 269.461 107.828 268.945 108.031C268.445 108.234 268.039 108.516 267.727 108.875C267.43 109.219 267.211 109.609 267.07 110.047C266.945 110.484 266.883 110.945 266.883 111.43C266.883 111.898 266.992 112.32 267.211 112.695C267.445 113.055 267.758 113.336 268.148 113.539C268.539 113.742 268.977 113.844 269.461 113.844C270.336 113.844 271.078 113.68 271.688 113.352C272.312 113.008 272.789 112.594 273.117 112.109C273.445 111.625 273.609 111.172 273.609 110.75L275.344 113.984C275.031 114.609 274.672 115.242 274.266 115.883C273.875 116.523 273.383 117.117 272.789 117.664C272.211 118.195 271.5 118.633 270.656 118.977C269.812 119.305 268.789 119.469 267.586 119.469C266.023 119.469 264.586 119.148 263.273 118.508C261.977 117.867 260.938 116.977 260.156 115.836C259.375 114.68 258.984 113.352 258.984 111.852C258.984 110.539 259.219 109.367 259.688 108.336C260.172 107.305 260.898 106.43 261.867 105.711C262.836 104.992 264.07 104.445 265.57 104.07C267.07 103.695 268.836 103.508 270.867 103.508H274.266ZM296.344 113.375C297.078 113.375 297.703 113.242 298.219 112.977C298.75 112.695 299.148 112.305 299.414 111.805C299.695 111.289 299.828 110.672 299.812 109.953H307.242C307.258 111.859 306.789 113.531 305.836 114.969C304.898 116.391 303.617 117.5 301.992 118.297C300.383 119.078 298.562 119.469 296.531 119.469C294.547 119.469 292.812 119.148 291.328 118.508C289.844 117.852 288.602 116.945 287.602 115.789C286.617 114.617 285.875 113.25 285.375 111.688C284.891 110.125 284.648 108.43 284.648 106.602V106.062C284.648 104.234 284.891 102.539 285.375 100.977C285.875 99.3984 286.617 98.0312 287.602 96.875C288.602 95.7031 289.836 94.7969 291.305 94.1562C292.789 93.5 294.516 93.1719 296.484 93.1719C298.594 93.1719 300.453 93.5703 302.062 94.3672C303.688 95.1641 304.961 96.3203 305.883 97.8359C306.805 99.3516 307.258 101.188 307.242 103.344H299.812C299.828 102.578 299.711 101.891 299.461 101.281C299.211 100.672 298.82 100.188 298.289 99.8281C297.773 99.4531 297.109 99.2656 296.297 99.2656C295.484 99.2656 294.828 99.4453 294.328 99.8047C293.828 100.164 293.445 100.664 293.18 101.305C292.93 101.93 292.758 102.648 292.664 103.461C292.586 104.273 292.547 105.141 292.547 106.062V106.602C292.547 107.539 292.586 108.422 292.664 109.25C292.758 110.062 292.938 110.781 293.203 111.406C293.469 112.016 293.852 112.5 294.352 112.859C294.852 113.203 295.516 113.375 296.344 113.375ZM318.586 82.9766V119H310.688V82.9766H318.586ZM334.805 93.6406L323.789 106.555L318.023 112.32L314.578 107.305L319.383 101.047L325.336 93.6406H334.805ZM326.344 119L319.57 107.445L325.406 103.297L335.391 119H326.344Z" fill="black"/>
<path d="M1134 0H1348C1356.28 0 1363 6.71573 1363 15V148C1363 156.284 1356.28 163 1348 163H1134V0Z" fill="#146C94"/>
<path fill-rule="evenodd" clip-rule="evenodd" d="M1218.75 53C1218.62 53 1218.49 53.0527 1218.4 53.1464C1218.3 53.2402 1218.25 53.3674 1218.25 53.5V109.5C1218.25 109.633 1218.3 109.76 1218.4 109.854C1218.49 109.947 1218.62 110 1218.75 110H1278.25C1278.38 110 1278.51 109.947 1278.6 109.854C1278.7 109.76 1278.75 109.633 1278.75 109.5V64C1278.75 63.8674 1278.7 63.7402 1278.6 63.6464C1278.51 63.5527 1278.38 63.5 1278.25 63.5H1248.5C1247.61 63.5 1246.77 63.1045 1246.2 62.4206L1238.34 53H1218.75ZM1214.15 48.9038C1215.37 47.6848 1217.03 47 1218.75 47H1239.75C1240.64 47 1241.48 47.3955 1242.05 48.0794L1249.91 57.5H1278.25C1279.97 57.5 1281.63 58.1848 1282.85 59.4038C1284.07 60.6228 1284.75 62.2761 1284.75 64V109.5C1284.75 111.224 1284.07 112.877 1282.85 114.096C1281.63 115.315 1279.97 116 1278.25 116H1218.75C1217.03 116 1215.37 115.315 1214.15 114.096C1212.93 112.877 1212.25 111.224 1212.25 109.5V53.5C1212.25 51.7761 1212.93 50.1228 1214.15 48.9038Z" fill="white"/>
<path fill-rule="evenodd" clip-rule="evenodd" d="M1243.97 75.5251C1245.34 76.892 1245.34 79.108 1243.97 80.4749L1237.7 86.75L1243.97 93.0251C1245.34 94.392 1245.34 96.608 1243.97 97.9749C1242.61 99.3417 1240.39 99.3417 1239.03 97.9749L1230.28 89.2249C1228.91 87.858 1228.91 85.642 1230.28 84.2751L1239.03 75.5251C1240.39 74.1583 1242.61 74.1583 1243.97 75.5251Z" fill="white"/>
<path fill-rule="evenodd" clip-rule="evenodd" d="M1252.28 97.9749C1250.91 96.608 1250.91 94.392 1252.28 93.0251L1258.55 86.75L1252.28 80.4749C1250.91 79.108 1250.91 76.892 1252.28 75.5251C1253.64 74.1583 1255.86 74.1583 1257.22 75.5251L1265.97 84.2751C1267.34 85.642 1267.34 87.858 1265.97 89.2249L1257.22 97.9749C1255.86 99.3417 1253.64 99.3417 1252.28 97.9749Z" fill="white"/>
</svg>
