<svg width="1363" height="163" viewBox="0 0 1363 163" fill="none" xmlns="http://www.w3.org/2000/svg">
<path d="M0 15C0 6.71573 6.71573 0 15 0H37V163H15C6.71573 163 0 156.284 0 148V15Z" fill="#146C94"/>
<rect width="1097" height="163" transform="translate(37)" fill="#F0F0F0"/>
<path d="M101.906 53.9219L94.3945 51.2383V48.0859L104.602 52.375V54.6367L101.906 53.9219ZM94.3945 56.1719L101.918 53.4297L104.602 52.7852V55.0352L94.3945 59.3242V56.1719ZM116.25 48.3203V61H112.863V48.3203H116.25ZM112.652 45.0156C112.652 44.5234 112.824 44.1172 113.168 43.7969C113.512 43.4766 113.973 43.3164 114.551 43.3164C115.121 43.3164 115.578 43.4766 115.922 43.7969C116.273 44.1172 116.449 44.5234 116.449 45.0156C116.449 45.5078 116.273 45.9141 115.922 46.2344C115.578 46.5547 115.121 46.7148 114.551 46.7148C113.973 46.7148 113.512 46.5547 113.168 46.2344C112.824 45.9141 112.652 45.5078 112.652 45.0156ZM124.488 61H120.773L120.797 58.2578H124.488C125.41 58.2578 126.188 58.0508 126.82 57.6367C127.453 57.2148 127.93 56.6016 128.25 55.7969C128.578 54.9922 128.742 54.0195 128.742 52.8789V52.0469C128.742 51.1719 128.648 50.4023 128.461 49.7383C128.281 49.0742 128.012 48.5156 127.652 48.0625C127.293 47.6094 126.852 47.2695 126.328 47.043C125.805 46.8086 125.203 46.6914 124.523 46.6914H120.703V43.9375H124.523C125.664 43.9375 126.707 44.1328 127.652 44.5234C128.605 44.9062 129.43 45.457 130.125 46.1758C130.82 46.8945 131.355 47.7539 131.73 48.7539C132.113 49.7461 132.305 50.8516 132.305 52.0703V52.8789C132.305 54.0898 132.113 55.1953 131.73 56.1953C131.355 57.1953 130.82 58.0547 130.125 58.7734C129.438 59.4844 128.613 60.0352 127.652 60.4258C126.699 60.8086 125.645 61 124.488 61ZM122.766 43.9375V61H119.25V43.9375H122.766ZM134.109 54.7891V54.543C134.109 53.6133 134.242 52.7578 134.508 51.9766C134.773 51.1875 135.16 50.5039 135.668 49.9258C136.176 49.3477 136.801 48.8984 137.543 48.5781C138.285 48.25 139.137 48.0859 140.098 48.0859C141.059 48.0859 141.914 48.25 142.664 48.5781C143.414 48.8984 144.043 49.3477 144.551 49.9258C145.066 50.5039 145.457 51.1875 145.723 51.9766C145.988 52.7578 146.121 53.6133 146.121 54.543V54.7891C146.121 55.7109 145.988 56.5664 145.723 57.3555C145.457 58.1367 145.066 58.8203 144.551 59.4062C144.043 59.9844 143.418 60.4336 142.676 60.7539C141.934 61.0742 141.082 61.2344 140.121 61.2344C139.16 61.2344 138.305 61.0742 137.555 60.7539C136.812 60.4336 136.184 59.9844 135.668 59.4062C135.16 58.8203 134.773 58.1367 134.508 57.3555C134.242 56.5664 134.109 55.7109 134.109 54.7891ZM137.484 54.543V54.7891C137.484 55.3203 137.531 55.8164 137.625 56.2773C137.719 56.7383 137.867 57.1445 138.07 57.4961C138.281 57.8398 138.555 58.1094 138.891 58.3047C139.227 58.5 139.637 58.5977 140.121 58.5977C140.59 58.5977 140.992 58.5 141.328 58.3047C141.664 58.1094 141.934 57.8398 142.137 57.4961C142.34 57.1445 142.488 56.7383 142.582 56.2773C142.684 55.8164 142.734 55.3203 142.734 54.7891V54.543C142.734 54.0273 142.684 53.543 142.582 53.0898C142.488 52.6289 142.336 52.2227 142.125 51.8711C141.922 51.5117 141.652 51.2305 141.316 51.0273C140.98 50.8242 140.574 50.7227 140.098 50.7227C139.621 50.7227 139.215 50.8242 138.879 51.0273C138.551 51.2305 138.281 51.5117 138.07 51.8711C137.867 52.2227 137.719 52.6289 137.625 53.0898C137.531 53.543 137.484 54.0273 137.484 54.543ZM151.5 51.0273V61H148.125V48.3203H151.289L151.5 51.0273ZM151.008 54.2148H150.094C150.094 53.2773 150.215 52.4336 150.457 51.6836C150.699 50.9258 151.039 50.2812 151.477 49.75C151.914 49.2109 152.434 48.8008 153.035 48.5195C153.645 48.2305 154.324 48.0859 155.074 48.0859C155.668 48.0859 156.211 48.1719 156.703 48.3438C157.195 48.5156 157.617 48.7891 157.969 49.1641C158.328 49.5391 158.602 50.0352 158.789 50.6523C158.984 51.2695 159.082 52.0234 159.082 52.9141V61H155.684V52.9023C155.684 52.3398 155.605 51.9023 155.449 51.5898C155.293 51.2773 155.062 51.0586 154.758 50.9336C154.461 50.8008 154.094 50.7344 153.656 50.7344C153.203 50.7344 152.809 50.8242 152.473 51.0039C152.145 51.1836 151.871 51.4336 151.652 51.7539C151.441 52.0664 151.281 52.4336 151.172 52.8555C151.062 53.2773 151.008 53.7305 151.008 54.2148ZM168.492 58.1406V52.4922C168.492 52.0859 168.426 51.7383 168.293 51.4492C168.16 51.1523 167.953 50.9219 167.672 50.7578C167.398 50.5938 167.043 50.5117 166.605 50.5117C166.23 50.5117 165.906 50.5781 165.633 50.7109C165.359 50.8359 165.148 51.0195 165 51.2617C164.852 51.4961 164.777 51.7734 164.777 52.0938H161.402C161.402 51.5547 161.527 51.043 161.777 50.5586C162.027 50.0742 162.391 49.6484 162.867 49.2812C163.344 48.9062 163.91 48.6133 164.566 48.4023C165.23 48.1914 165.973 48.0859 166.793 48.0859C167.777 48.0859 168.652 48.25 169.418 48.5781C170.184 48.9062 170.785 49.3984 171.223 50.0547C171.668 50.7109 171.891 51.5312 171.891 52.5156V57.9414C171.891 58.6367 171.934 59.207 172.02 59.6523C172.105 60.0898 172.23 60.4727 172.395 60.8008V61H168.984C168.82 60.6562 168.695 60.2266 168.609 59.7109C168.531 59.1875 168.492 58.6641 168.492 58.1406ZM168.938 53.2773L168.961 55.1875H167.074C166.629 55.1875 166.242 55.2383 165.914 55.3398C165.586 55.4414 165.316 55.5859 165.105 55.7734C164.895 55.9531 164.738 56.1641 164.637 56.4062C164.543 56.6484 164.496 56.9141 164.496 57.2031C164.496 57.4922 164.562 57.7539 164.695 57.9883C164.828 58.2148 165.02 58.3945 165.27 58.5273C165.52 58.6523 165.812 58.7148 166.148 58.7148C166.656 58.7148 167.098 58.6133 167.473 58.4102C167.848 58.207 168.137 57.957 168.34 57.6602C168.551 57.3633 168.66 57.082 168.668 56.8164L169.559 58.2461C169.434 58.5664 169.262 58.8984 169.043 59.2422C168.832 59.5859 168.562 59.9102 168.234 60.2148C167.906 60.5117 167.512 60.7578 167.051 60.9531C166.59 61.1406 166.043 61.2344 165.41 61.2344C164.605 61.2344 163.875 61.0742 163.219 60.7539C162.57 60.4258 162.055 59.9766 161.672 59.4062C161.297 58.8281 161.109 58.1719 161.109 57.4375C161.109 56.7734 161.234 56.1836 161.484 55.668C161.734 55.1523 162.102 54.7188 162.586 54.3672C163.078 54.0078 163.691 53.7383 164.426 53.5586C165.16 53.3711 166.012 53.2773 166.98 53.2773H168.938ZM180.703 48.3203V50.7109H173.32V48.3203H180.703ZM175.148 45.1914H178.523V57.1797C178.523 57.5469 178.57 57.8281 178.664 58.0234C178.766 58.2188 178.914 58.3555 179.109 58.4336C179.305 58.5039 179.551 58.5391 179.848 58.5391C180.059 58.5391 180.246 58.5312 180.41 58.5156C180.582 58.4922 180.727 58.4688 180.844 58.4453L180.855 60.9297C180.566 61.0234 180.254 61.0977 179.918 61.1523C179.582 61.207 179.211 61.2344 178.805 61.2344C178.062 61.2344 177.414 61.1133 176.859 60.8711C176.312 60.6211 175.891 60.2227 175.594 59.6758C175.297 59.1289 175.148 58.4102 175.148 57.5195V45.1914ZM188.461 61.2344C187.477 61.2344 186.594 61.0781 185.812 60.7656C185.031 60.4453 184.367 60.0039 183.82 59.4414C183.281 58.8789 182.867 58.2266 182.578 57.4844C182.289 56.7344 182.145 55.9375 182.145 55.0938V54.625C182.145 53.6641 182.281 52.7852 182.555 51.9883C182.828 51.1914 183.219 50.5 183.727 49.9141C184.242 49.3281 184.867 48.8789 185.602 48.5664C186.336 48.2461 187.164 48.0859 188.086 48.0859C188.984 48.0859 189.781 48.2344 190.477 48.5312C191.172 48.8281 191.754 49.25 192.223 49.7969C192.699 50.3438 193.059 51 193.301 51.7656C193.543 52.5234 193.664 53.3672 193.664 54.2969V55.7031H183.586V53.4531H190.348V53.1953C190.348 52.7266 190.262 52.3086 190.09 51.9414C189.926 51.5664 189.676 51.2695 189.34 51.0508C189.004 50.832 188.574 50.7227 188.051 50.7227C187.605 50.7227 187.223 50.8203 186.902 51.0156C186.582 51.2109 186.32 51.4844 186.117 51.8359C185.922 52.1875 185.773 52.6016 185.672 53.0781C185.578 53.5469 185.531 54.0625 185.531 54.625V55.0938C185.531 55.6016 185.602 56.0703 185.742 56.5C185.891 56.9297 186.098 57.3008 186.363 57.6133C186.637 57.9258 186.965 58.168 187.348 58.3398C187.738 58.5117 188.18 58.5977 188.672 58.5977C189.281 58.5977 189.848 58.4805 190.371 58.2461C190.902 58.0039 191.359 57.6406 191.742 57.1562L193.383 58.9375C193.117 59.3203 192.754 59.6875 192.293 60.0391C191.84 60.3906 191.293 60.6797 190.652 60.9062C190.012 61.125 189.281 61.2344 188.461 61.2344Z" fill="#888888"/>
<path d="M118.594 98.4219V104.75H101.086V98.4219H118.594ZM103.828 84.875V119H95.6016V84.875H103.828ZM124.125 84.875V119H115.922V84.875H124.125ZM127.992 106.578V106.086C127.992 104.227 128.258 102.516 128.789 100.953C129.32 99.375 130.102 98.0078 131.133 96.8516C132.164 95.6953 133.438 94.7969 134.953 94.1562C136.469 93.5 138.219 93.1719 140.203 93.1719C142.203 93.1719 143.961 93.5 145.477 94.1562C147.008 94.7969 148.289 95.6953 149.32 96.8516C150.352 98.0078 151.133 99.375 151.664 100.953C152.195 102.516 152.461 104.227 152.461 106.086V106.578C152.461 108.422 152.195 110.133 151.664 111.711C151.133 113.273 150.352 114.641 149.32 115.812C148.289 116.969 147.016 117.867 145.5 118.508C143.984 119.148 142.234 119.469 140.25 119.469C138.266 119.469 136.508 119.148 134.977 118.508C133.445 117.867 132.164 116.969 131.133 115.812C130.102 114.641 129.32 113.273 128.789 111.711C128.258 110.133 127.992 108.422 127.992 106.578ZM135.891 106.086V106.578C135.891 107.531 135.961 108.422 136.102 109.25C136.242 110.078 136.477 110.805 136.805 111.43C137.133 112.039 137.578 112.516 138.141 112.859C138.703 113.203 139.406 113.375 140.25 113.375C141.078 113.375 141.766 113.203 142.312 112.859C142.875 112.516 143.32 112.039 143.648 111.43C143.977 110.805 144.211 110.078 144.352 109.25C144.492 108.422 144.562 107.531 144.562 106.578V106.086C144.562 105.164 144.492 104.297 144.352 103.484C144.211 102.656 143.977 101.93 143.648 101.305C143.32 100.664 142.875 100.164 142.312 99.8047C141.75 99.4453 141.047 99.2656 140.203 99.2656C139.375 99.2656 138.68 99.4453 138.117 99.8047C137.57 100.164 137.133 100.664 136.805 101.305C136.477 101.93 136.242 102.656 136.102 103.484C135.961 104.297 135.891 105.164 135.891 106.086ZM163.688 111.453L168.375 93.6406H173.32L171.562 102.57L166.922 119H162.961L163.688 111.453ZM161.836 93.6406L164.742 111.312L165.07 119H160.266L154.266 93.6406H161.836ZM177.492 110.938L180.422 93.6406H187.992L182.039 119H177.234L177.492 110.938ZM173.883 93.6406L178.617 111.406L179.344 119H175.336L170.789 102.617L169.102 93.6406H173.883ZM218.297 84.875V119H210.07V84.875H218.297ZM228.562 84.875V91.2266H200.039V84.875H228.562ZM225.773 106.578V106.086C225.773 104.227 226.039 102.516 226.57 100.953C227.102 99.375 227.883 98.0078 228.914 96.8516C229.945 95.6953 231.219 94.7969 232.734 94.1562C234.25 93.5 236 93.1719 237.984 93.1719C239.984 93.1719 241.742 93.5 243.258 94.1562C244.789 94.7969 246.07 95.6953 247.102 96.8516C248.133 98.0078 248.914 99.375 249.445 100.953C249.977 102.516 250.242 104.227 250.242 106.086V106.578C250.242 108.422 249.977 110.133 249.445 111.711C248.914 113.273 248.133 114.641 247.102 115.812C246.07 116.969 244.797 117.867 243.281 118.508C241.766 119.148 240.016 119.469 238.031 119.469C236.047 119.469 234.289 119.148 232.758 118.508C231.227 117.867 229.945 116.969 228.914 115.812C227.883 114.641 227.102 113.273 226.57 111.711C226.039 110.133 225.773 108.422 225.773 106.578ZM233.672 106.086V106.578C233.672 107.531 233.742 108.422 233.883 109.25C234.023 110.078 234.258 110.805 234.586 111.43C234.914 112.039 235.359 112.516 235.922 112.859C236.484 113.203 237.188 113.375 238.031 113.375C238.859 113.375 239.547 113.203 240.094 112.859C240.656 112.516 241.102 112.039 241.43 111.43C241.758 110.805 241.992 110.078 242.133 109.25C242.273 108.422 242.344 107.531 242.344 106.578V106.086C242.344 105.164 242.273 104.297 242.133 103.484C241.992 102.656 241.758 101.93 241.43 101.305C241.102 100.664 240.656 100.164 240.094 99.8047C239.531 99.4453 238.828 99.2656 237.984 99.2656C237.156 99.2656 236.461 99.4453 235.898 99.8047C235.352 100.164 234.914 100.664 234.586 101.305C234.258 101.93 234.023 102.656 233.883 103.484C233.742 104.297 233.672 105.164 233.672 106.086ZM266.086 84.875H279.516C282.141 84.875 284.422 85.2656 286.359 86.0469C288.297 86.8281 289.789 87.9844 290.836 89.5156C291.898 91.0469 292.43 92.9375 292.43 95.1875C292.43 97.1406 292.125 98.7734 291.516 100.086C290.906 101.398 290.055 102.484 288.961 103.344C287.883 104.188 286.625 104.883 285.188 105.43L282.492 106.953H271.219L271.172 100.602H279.516C280.562 100.602 281.43 100.414 282.117 100.039C282.805 99.6641 283.32 99.1328 283.664 98.4453C284.023 97.7422 284.203 96.9062 284.203 95.9375C284.203 94.9531 284.023 94.1094 283.664 93.4062C283.305 92.7031 282.773 92.1641 282.07 91.7891C281.383 91.4141 280.531 91.2266 279.516 91.2266H274.312V119H266.086V84.875ZM284.766 119L277.219 103.906L285.938 103.859L293.578 118.648V119H284.766ZM311.836 112.836V93.6406H319.758V119H312.352L311.836 112.836ZM312.586 107.68L314.648 107.633C314.648 109.336 314.445 110.914 314.039 112.367C313.633 113.805 313.031 115.055 312.234 116.117C311.453 117.18 310.484 118.008 309.328 118.602C308.188 119.18 306.867 119.469 305.367 119.469C304.117 119.469 302.969 119.297 301.922 118.953C300.891 118.594 300 118.039 299.25 117.289C298.5 116.523 297.914 115.547 297.492 114.359C297.086 113.156 296.883 111.719 296.883 110.047V93.6406H304.781V110.094C304.781 110.656 304.852 111.141 304.992 111.547C305.133 111.953 305.336 112.297 305.602 112.578C305.867 112.844 306.195 113.047 306.586 113.188C306.992 113.312 307.453 113.375 307.969 113.375C309.156 113.375 310.086 113.125 310.758 112.625C311.43 112.125 311.898 111.445 312.164 110.586C312.445 109.727 312.586 108.758 312.586 107.68ZM331.875 99.0547V119H323.977V93.6406H331.383L331.875 99.0547ZM330.938 105.453L329.086 105.5C329.086 103.562 329.32 101.836 329.789 100.32C330.258 98.7891 330.922 97.4922 331.781 96.4297C332.641 95.3672 333.664 94.5625 334.852 94.0156C336.055 93.4531 337.391 93.1719 338.859 93.1719C340.031 93.1719 341.102 93.3438 342.07 93.6875C343.055 94.0312 343.898 94.5859 344.602 95.3516C345.32 96.1172 345.867 97.1328 346.242 98.3984C346.633 99.6484 346.828 101.195 346.828 103.039V119H338.883V103.016C338.883 102 338.742 101.227 338.461 100.695C338.18 100.148 337.773 99.7734 337.242 99.5703C336.711 99.3672 336.062 99.2656 335.297 99.2656C334.484 99.2656 333.797 99.4219 333.234 99.7344C332.672 100.047 332.219 100.484 331.875 101.047C331.547 101.594 331.305 102.242 331.148 102.992C331.008 103.742 330.938 104.562 330.938 105.453ZM363.773 108.195H357.047C357.047 106.82 357.141 105.609 357.328 104.562C357.531 103.5 357.875 102.547 358.359 101.703C358.844 100.859 359.5 100.078 360.328 99.3594C361.062 98.75 361.695 98.1641 362.227 97.6016C362.758 97.0391 363.164 96.4688 363.445 95.8906C363.727 95.3125 363.867 94.6953 363.867 94.0391C363.867 93.2266 363.75 92.5625 363.516 92.0469C363.297 91.5312 362.961 91.1484 362.508 90.8984C362.07 90.6328 361.516 90.5 360.844 90.5C360.297 90.5 359.781 90.6328 359.297 90.8984C358.828 91.1641 358.445 91.5781 358.148 92.1406C357.852 92.6875 357.688 93.4141 357.656 94.3203H349.711C349.758 91.9922 350.273 90.1016 351.258 88.6484C352.258 87.1797 353.586 86.1094 355.242 85.4375C356.914 84.75 358.781 84.4062 360.844 84.4062C363.125 84.4062 365.086 84.7578 366.727 85.4609C368.367 86.1641 369.625 87.2109 370.5 88.6016C371.375 89.9766 371.812 91.6719 371.812 93.6875C371.812 95.0312 371.555 96.2031 371.039 97.2031C370.539 98.1875 369.859 99.1094 369 99.9688C368.156 100.812 367.211 101.719 366.164 102.688C365.258 103.484 364.641 104.297 364.312 105.125C363.984 105.938 363.805 106.961 363.773 108.195ZM356.086 115.32C356.086 114.195 356.492 113.258 357.305 112.508C358.117 111.742 359.172 111.359 360.469 111.359C361.766 111.359 362.82 111.742 363.633 112.508C364.445 113.258 364.852 114.195 364.852 115.32C364.852 116.445 364.445 117.391 363.633 118.156C362.82 118.906 361.766 119.281 360.469 119.281C359.172 119.281 358.117 118.906 357.305 118.156C356.492 117.391 356.086 116.445 356.086 115.32Z" fill="black"/>
<path d="M1134 0H1348C1356.28 0 1363 6.71573 1363 15V148C1363 156.284 1356.28 163 1348 163H1134V0Z" fill="#146C94"/>
<path d="M1260.62 78.8078C1263.81 78.8078 1266.93 79.7552 1269.59 81.5302C1272.25 83.3052 1274.32 85.8281 1275.54 88.7798C1276.76 91.7315 1277.08 94.9795 1276.46 98.1131C1275.84 101.247 1274.3 104.125 1272.04 106.384C1269.78 108.643 1266.9 110.182 1263.77 110.805C1260.63 111.428 1257.39 111.108 1254.43 109.886C1251.48 108.663 1248.96 106.593 1247.18 103.936C1245.41 101.28 1244.46 98.1565 1244.46 94.9616C1244.46 90.6774 1246.16 86.5686 1249.19 83.5392C1252.22 80.5097 1256.33 78.8078 1260.62 78.8078ZM1260.62 73.4232C1256.36 73.4232 1252.19 74.6864 1248.65 77.0531C1245.11 79.4198 1242.35 82.7836 1240.72 86.7192C1239.09 90.6549 1238.66 94.9855 1239.49 99.1636C1240.32 103.342 1242.37 107.179 1245.39 110.192C1248.4 113.204 1252.24 115.255 1256.41 116.086C1260.59 116.917 1264.92 116.491 1268.86 114.861C1272.79 113.23 1276.16 110.47 1278.52 106.928C1280.89 103.386 1282.15 99.2215 1282.15 94.9616C1282.15 89.2493 1279.88 83.7709 1275.85 79.7317C1271.81 75.6924 1266.33 73.4232 1260.62 73.4232Z" fill="white"/>
<path d="M1274.08 46.5H1220.23C1218.8 46.5 1217.43 47.0673 1216.42 48.0771C1215.41 49.0869 1214.85 50.4565 1214.85 51.8846V105.731C1214.85 107.159 1215.41 108.528 1216.42 109.538C1217.43 110.548 1218.8 111.115 1220.23 111.115H1231V105.731H1220.23V68.0384H1279.46V51.8846C1279.46 50.4565 1278.89 49.0869 1277.88 48.0771C1276.87 47.0673 1275.5 46.5 1274.08 46.5ZM1220.23 62.6538V51.8846H1274.08V62.6538H1220.23Z" fill="white"/>
<path d="M1255.23 86.8849V103.039L1268.69 94.9618L1255.23 86.8849Z" fill="white"/>
</svg>
