<svg width="1363" height="163" viewBox="0 0 1363 163" fill="none" xmlns="http://www.w3.org/2000/svg">
<path d="M0 15C0 6.71573 6.71573 0 15 0H37V163H15C6.71573 163 0 156.284 0 148V15Z" fill="#146C94"/>
<rect width="1097" height="163" transform="translate(37)" fill="#F0F0F0"/>
<path d="M101.906 53.9219L94.3945 51.2383V48.0859L104.602 52.375V54.6367L101.906 53.9219ZM94.3945 56.1719L101.918 53.4297L104.602 52.7852V55.0352L94.3945 59.3242V56.1719ZM116.25 48.3203V61H112.863V48.3203H116.25ZM112.652 45.0156C112.652 44.5234 112.824 44.1172 113.168 43.7969C113.512 43.4766 113.973 43.3164 114.551 43.3164C115.121 43.3164 115.578 43.4766 115.922 43.7969C116.273 44.1172 116.449 44.5234 116.449 45.0156C116.449 45.5078 116.273 45.9141 115.922 46.2344C115.578 46.5547 115.121 46.7148 114.551 46.7148C113.973 46.7148 113.512 46.5547 113.168 46.2344C112.824 45.9141 112.652 45.5078 112.652 45.0156ZM124.488 61H120.773L120.797 58.2578H124.488C125.41 58.2578 126.188 58.0508 126.82 57.6367C127.453 57.2148 127.93 56.6016 128.25 55.7969C128.578 54.9922 128.742 54.0195 128.742 52.8789V52.0469C128.742 51.1719 128.648 50.4023 128.461 49.7383C128.281 49.0742 128.012 48.5156 127.652 48.0625C127.293 47.6094 126.852 47.2695 126.328 47.043C125.805 46.8086 125.203 46.6914 124.523 46.6914H120.703V43.9375H124.523C125.664 43.9375 126.707 44.1328 127.652 44.5234C128.605 44.9062 129.43 45.457 130.125 46.1758C130.82 46.8945 131.355 47.7539 131.73 48.7539C132.113 49.7461 132.305 50.8516 132.305 52.0703V52.8789C132.305 54.0898 132.113 55.1953 131.73 56.1953C131.355 57.1953 130.82 58.0547 130.125 58.7734C129.438 59.4844 128.613 60.0352 127.652 60.4258C126.699 60.8086 125.645 61 124.488 61ZM122.766 43.9375V61H119.25V43.9375H122.766ZM134.109 54.7891V54.543C134.109 53.6133 134.242 52.7578 134.508 51.9766C134.773 51.1875 135.16 50.5039 135.668 49.9258C136.176 49.3477 136.801 48.8984 137.543 48.5781C138.285 48.25 139.137 48.0859 140.098 48.0859C141.059 48.0859 141.914 48.25 142.664 48.5781C143.414 48.8984 144.043 49.3477 144.551 49.9258C145.066 50.5039 145.457 51.1875 145.723 51.9766C145.988 52.7578 146.121 53.6133 146.121 54.543V54.7891C146.121 55.7109 145.988 56.5664 145.723 57.3555C145.457 58.1367 145.066 58.8203 144.551 59.4062C144.043 59.9844 143.418 60.4336 142.676 60.7539C141.934 61.0742 141.082 61.2344 140.121 61.2344C139.16 61.2344 138.305 61.0742 137.555 60.7539C136.812 60.4336 136.184 59.9844 135.668 59.4062C135.16 58.8203 134.773 58.1367 134.508 57.3555C134.242 56.5664 134.109 55.7109 134.109 54.7891ZM137.484 54.543V54.7891C137.484 55.3203 137.531 55.8164 137.625 56.2773C137.719 56.7383 137.867 57.1445 138.07 57.4961C138.281 57.8398 138.555 58.1094 138.891 58.3047C139.227 58.5 139.637 58.5977 140.121 58.5977C140.59 58.5977 140.992 58.5 141.328 58.3047C141.664 58.1094 141.934 57.8398 142.137 57.4961C142.34 57.1445 142.488 56.7383 142.582 56.2773C142.684 55.8164 142.734 55.3203 142.734 54.7891V54.543C142.734 54.0273 142.684 53.543 142.582 53.0898C142.488 52.6289 142.336 52.2227 142.125 51.8711C141.922 51.5117 141.652 51.2305 141.316 51.0273C140.98 50.8242 140.574 50.7227 140.098 50.7227C139.621 50.7227 139.215 50.8242 138.879 51.0273C138.551 51.2305 138.281 51.5117 138.07 51.8711C137.867 52.2227 137.719 52.6289 137.625 53.0898C137.531 53.543 137.484 54.0273 137.484 54.543ZM151.5 51.0273V61H148.125V48.3203H151.289L151.5 51.0273ZM151.008 54.2148H150.094C150.094 53.2773 150.215 52.4336 150.457 51.6836C150.699 50.9258 151.039 50.2812 151.477 49.75C151.914 49.2109 152.434 48.8008 153.035 48.5195C153.645 48.2305 154.324 48.0859 155.074 48.0859C155.668 48.0859 156.211 48.1719 156.703 48.3438C157.195 48.5156 157.617 48.7891 157.969 49.1641C158.328 49.5391 158.602 50.0352 158.789 50.6523C158.984 51.2695 159.082 52.0234 159.082 52.9141V61H155.684V52.9023C155.684 52.3398 155.605 51.9023 155.449 51.5898C155.293 51.2773 155.062 51.0586 154.758 50.9336C154.461 50.8008 154.094 50.7344 153.656 50.7344C153.203 50.7344 152.809 50.8242 152.473 51.0039C152.145 51.1836 151.871 51.4336 151.652 51.7539C151.441 52.0664 151.281 52.4336 151.172 52.8555C151.062 53.2773 151.008 53.7305 151.008 54.2148ZM168.492 58.1406V52.4922C168.492 52.0859 168.426 51.7383 168.293 51.4492C168.16 51.1523 167.953 50.9219 167.672 50.7578C167.398 50.5938 167.043 50.5117 166.605 50.5117C166.23 50.5117 165.906 50.5781 165.633 50.7109C165.359 50.8359 165.148 51.0195 165 51.2617C164.852 51.4961 164.777 51.7734 164.777 52.0938H161.402C161.402 51.5547 161.527 51.043 161.777 50.5586C162.027 50.0742 162.391 49.6484 162.867 49.2812C163.344 48.9062 163.91 48.6133 164.566 48.4023C165.23 48.1914 165.973 48.0859 166.793 48.0859C167.777 48.0859 168.652 48.25 169.418 48.5781C170.184 48.9062 170.785 49.3984 171.223 50.0547C171.668 50.7109 171.891 51.5312 171.891 52.5156V57.9414C171.891 58.6367 171.934 59.207 172.02 59.6523C172.105 60.0898 172.23 60.4727 172.395 60.8008V61H168.984C168.82 60.6562 168.695 60.2266 168.609 59.7109C168.531 59.1875 168.492 58.6641 168.492 58.1406ZM168.938 53.2773L168.961 55.1875H167.074C166.629 55.1875 166.242 55.2383 165.914 55.3398C165.586 55.4414 165.316 55.5859 165.105 55.7734C164.895 55.9531 164.738 56.1641 164.637 56.4062C164.543 56.6484 164.496 56.9141 164.496 57.2031C164.496 57.4922 164.562 57.7539 164.695 57.9883C164.828 58.2148 165.02 58.3945 165.27 58.5273C165.52 58.6523 165.812 58.7148 166.148 58.7148C166.656 58.7148 167.098 58.6133 167.473 58.4102C167.848 58.207 168.137 57.957 168.34 57.6602C168.551 57.3633 168.66 57.082 168.668 56.8164L169.559 58.2461C169.434 58.5664 169.262 58.8984 169.043 59.2422C168.832 59.5859 168.562 59.9102 168.234 60.2148C167.906 60.5117 167.512 60.7578 167.051 60.9531C166.59 61.1406 166.043 61.2344 165.41 61.2344C164.605 61.2344 163.875 61.0742 163.219 60.7539C162.57 60.4258 162.055 59.9766 161.672 59.4062C161.297 58.8281 161.109 58.1719 161.109 57.4375C161.109 56.7734 161.234 56.1836 161.484 55.668C161.734 55.1523 162.102 54.7188 162.586 54.3672C163.078 54.0078 163.691 53.7383 164.426 53.5586C165.16 53.3711 166.012 53.2773 166.98 53.2773H168.938ZM180.703 48.3203V50.7109H173.32V48.3203H180.703ZM175.148 45.1914H178.523V57.1797C178.523 57.5469 178.57 57.8281 178.664 58.0234C178.766 58.2188 178.914 58.3555 179.109 58.4336C179.305 58.5039 179.551 58.5391 179.848 58.5391C180.059 58.5391 180.246 58.5312 180.41 58.5156C180.582 58.4922 180.727 58.4688 180.844 58.4453L180.855 60.9297C180.566 61.0234 180.254 61.0977 179.918 61.1523C179.582 61.207 179.211 61.2344 178.805 61.2344C178.062 61.2344 177.414 61.1133 176.859 60.8711C176.312 60.6211 175.891 60.2227 175.594 59.6758C175.297 59.1289 175.148 58.4102 175.148 57.5195V45.1914ZM188.461 61.2344C187.477 61.2344 186.594 61.0781 185.812 60.7656C185.031 60.4453 184.367 60.0039 183.82 59.4414C183.281 58.8789 182.867 58.2266 182.578 57.4844C182.289 56.7344 182.145 55.9375 182.145 55.0938V54.625C182.145 53.6641 182.281 52.7852 182.555 51.9883C182.828 51.1914 183.219 50.5 183.727 49.9141C184.242 49.3281 184.867 48.8789 185.602 48.5664C186.336 48.2461 187.164 48.0859 188.086 48.0859C188.984 48.0859 189.781 48.2344 190.477 48.5312C191.172 48.8281 191.754 49.25 192.223 49.7969C192.699 50.3438 193.059 51 193.301 51.7656C193.543 52.5234 193.664 53.3672 193.664 54.2969V55.7031H183.586V53.4531H190.348V53.1953C190.348 52.7266 190.262 52.3086 190.09 51.9414C189.926 51.5664 189.676 51.2695 189.34 51.0508C189.004 50.832 188.574 50.7227 188.051 50.7227C187.605 50.7227 187.223 50.8203 186.902 51.0156C186.582 51.2109 186.32 51.4844 186.117 51.8359C185.922 52.1875 185.773 52.6016 185.672 53.0781C185.578 53.5469 185.531 54.0625 185.531 54.625V55.0938C185.531 55.6016 185.602 56.0703 185.742 56.5C185.891 56.9297 186.098 57.3008 186.363 57.6133C186.637 57.9258 186.965 58.168 187.348 58.3398C187.738 58.5117 188.18 58.5977 188.672 58.5977C189.281 58.5977 189.848 58.4805 190.371 58.2461C190.902 58.0039 191.359 57.6406 191.742 57.1562L193.383 58.9375C193.117 59.3203 192.754 59.6875 192.293 60.0391C191.84 60.3906 191.293 60.6797 190.652 60.9062C190.012 61.125 189.281 61.2344 188.461 61.2344Z" fill="#888888"/>
<path d="M110.062 92.0469L101.742 119H92.9062L105.445 84.875H111.047L110.062 92.0469ZM116.953 119L108.609 92.0469L107.531 84.875H113.203L125.812 119H116.953ZM116.625 106.273V112.625H99.1172V106.273H116.625ZM135.258 115.906L142.055 84.875H146.109L148.312 87.5234L141.07 119H136.594L135.258 115.906ZM133.453 84.875L139.195 116.141L137.719 119H132.539L125.297 84.875H133.453ZM152.039 115.977L157.734 84.875H165.867L158.625 119H153.469L152.039 115.977ZM149.039 84.875L156 116.094L154.594 119H150.117L142.711 87.4766L145.008 84.875H149.039ZM186.68 109.93C186.68 109.398 186.602 108.922 186.445 108.5C186.289 108.062 186 107.656 185.578 107.281C185.156 106.906 184.547 106.531 183.75 106.156C182.969 105.766 181.938 105.359 180.656 104.938C179.156 104.438 177.711 103.875 176.32 103.25C174.93 102.609 173.688 101.867 172.594 101.023C171.5 100.164 170.633 99.1641 169.992 98.0234C169.352 96.8672 169.031 95.5234 169.031 93.9922C169.031 92.5234 169.359 91.2031 170.016 90.0312C170.672 88.8438 171.586 87.8359 172.758 87.0078C173.945 86.1641 175.336 85.5234 176.93 85.0859C178.523 84.6328 180.266 84.4062 182.156 84.4062C184.656 84.4062 186.859 84.8438 188.766 85.7188C190.688 86.5781 192.188 87.8047 193.266 89.3984C194.359 90.9766 194.906 92.8438 194.906 95H186.727C186.727 94.1406 186.547 93.3828 186.188 92.7266C185.844 92.0703 185.32 91.5547 184.617 91.1797C183.914 90.8047 183.031 90.6172 181.969 90.6172C180.938 90.6172 180.07 90.7734 179.367 91.0859C178.664 91.3984 178.133 91.8203 177.773 92.3516C177.414 92.8672 177.234 93.4375 177.234 94.0625C177.234 94.5781 177.375 95.0469 177.656 95.4688C177.953 95.875 178.367 96.2578 178.898 96.6172C179.445 96.9766 180.102 97.3203 180.867 97.6484C181.648 97.9766 182.523 98.2969 183.492 98.6094C185.305 99.1875 186.914 99.8359 188.32 100.555C189.742 101.258 190.938 102.062 191.906 102.969C192.891 103.859 193.633 104.875 194.133 106.016C194.648 107.156 194.906 108.445 194.906 109.883C194.906 111.414 194.609 112.773 194.016 113.961C193.422 115.148 192.57 116.156 191.461 116.984C190.352 117.797 189.023 118.414 187.477 118.836C185.93 119.258 184.203 119.469 182.297 119.469C180.547 119.469 178.82 119.25 177.117 118.812C175.43 118.359 173.898 117.672 172.523 116.75C171.148 115.812 170.047 114.617 169.219 113.164C168.406 111.695 168 109.953 168 107.938H176.25C176.25 108.938 176.383 109.781 176.648 110.469C176.914 111.156 177.305 111.711 177.82 112.133C178.336 112.539 178.969 112.836 179.719 113.023C180.469 113.195 181.328 113.281 182.297 113.281C183.344 113.281 184.188 113.133 184.828 112.836C185.469 112.523 185.938 112.117 186.234 111.617C186.531 111.102 186.68 110.539 186.68 109.93ZM222.188 119H214.617L214.664 112.672H222.188C223.75 112.672 225.07 112.297 226.148 111.547C227.242 110.797 228.07 109.68 228.633 108.195C229.211 106.695 229.5 104.852 229.5 102.664V101.188C229.5 99.5469 229.336 98.1094 229.008 96.875C228.695 95.625 228.227 94.5859 227.602 93.7578C226.977 92.9141 226.195 92.2812 225.258 91.8594C224.336 91.4375 223.273 91.2266 222.07 91.2266H214.477V84.875H222.07C224.383 84.875 226.5 85.2734 228.422 86.0703C230.359 86.8516 232.031 87.9766 233.438 89.4453C234.859 90.8984 235.953 92.625 236.719 94.625C237.5 96.6094 237.891 98.8125 237.891 101.234V102.664C237.891 105.07 237.5 107.273 236.719 109.273C235.953 111.273 234.867 113 233.461 114.453C232.055 115.906 230.391 117.031 228.469 117.828C226.562 118.609 224.469 119 222.188 119ZM219.328 84.875V119H211.102V84.875H219.328ZM254.086 119.469C252.023 119.469 250.18 119.148 248.555 118.508C246.93 117.852 245.555 116.953 244.43 115.812C243.32 114.672 242.469 113.359 241.875 111.875C241.297 110.391 241.008 108.82 241.008 107.164V106.273C241.008 104.414 241.266 102.695 241.781 101.117C242.297 99.5234 243.062 98.1328 244.078 96.9453C245.094 95.7578 246.367 94.8359 247.898 94.1797C249.43 93.5078 251.211 93.1719 253.242 93.1719C255.039 93.1719 256.648 93.4609 258.07 94.0391C259.492 94.6172 260.695 95.4453 261.68 96.5234C262.68 97.6016 263.438 98.9062 263.953 100.438C264.484 101.969 264.75 103.688 264.75 105.594V108.805H244.031V103.859H257.039V103.25C257.055 102.406 256.906 101.688 256.594 101.094C256.297 100.5 255.859 100.047 255.281 99.7344C254.703 99.4219 254 99.2656 253.172 99.2656C252.312 99.2656 251.602 99.4531 251.039 99.8281C250.492 100.203 250.062 100.719 249.75 101.375C249.453 102.016 249.242 102.758 249.117 103.602C248.992 104.445 248.93 105.336 248.93 106.273V107.164C248.93 108.102 249.055 108.953 249.305 109.719C249.57 110.484 249.945 111.141 250.43 111.688C250.93 112.219 251.523 112.633 252.211 112.93C252.914 113.227 253.711 113.375 254.602 113.375C255.68 113.375 256.742 113.172 257.789 112.766C258.836 112.359 259.734 111.688 260.484 110.75L264.07 115.016C263.555 115.75 262.82 116.461 261.867 117.148C260.93 117.836 259.805 118.398 258.492 118.836C257.18 119.258 255.711 119.469 254.086 119.469ZM275.93 98.5156V128.75H268.031V93.6406H275.391L275.93 98.5156ZM291.492 106.016V106.508C291.492 108.352 291.281 110.062 290.859 111.641C290.438 113.219 289.812 114.594 288.984 115.766C288.156 116.938 287.125 117.852 285.891 118.508C284.672 119.148 283.258 119.469 281.648 119.469C280.133 119.469 278.828 119.133 277.734 118.461C276.641 117.789 275.727 116.859 274.992 115.672C274.258 114.484 273.664 113.125 273.211 111.594C272.758 110.062 272.398 108.445 272.133 106.742V106.109C272.398 104.281 272.758 102.586 273.211 101.023C273.664 99.4453 274.258 98.0703 274.992 96.8984C275.727 95.7266 276.633 94.8125 277.711 94.1562C278.805 93.5 280.109 93.1719 281.625 93.1719C283.234 93.1719 284.648 93.4766 285.867 94.0859C287.102 94.6953 288.133 95.5703 288.961 96.7109C289.805 97.8359 290.438 99.1875 290.859 100.766C291.281 102.344 291.492 104.094 291.492 106.016ZM283.594 106.508V106.016C283.594 105.031 283.523 104.133 283.383 103.32C283.242 102.492 283.016 101.773 282.703 101.164C282.406 100.555 282.008 100.086 281.508 99.7578C281.008 99.4297 280.391 99.2656 279.656 99.2656C278.812 99.2656 278.102 99.3984 277.523 99.6641C276.961 99.9141 276.508 100.305 276.164 100.836C275.836 101.352 275.602 102 275.461 102.781C275.336 103.547 275.281 104.445 275.297 105.477V107.398C275.266 108.586 275.383 109.633 275.648 110.539C275.914 111.43 276.375 112.125 277.031 112.625C277.688 113.125 278.578 113.375 279.703 113.375C280.453 113.375 281.078 113.203 281.578 112.859C282.078 112.5 282.477 112.008 282.773 111.383C283.07 110.742 283.281 110.008 283.406 109.18C283.531 108.352 283.594 107.461 283.594 106.508ZM303.352 83V119H295.43V83H303.352ZM307.242 106.578V106.086C307.242 104.227 307.508 102.516 308.039 100.953C308.57 99.375 309.352 98.0078 310.383 96.8516C311.414 95.6953 312.688 94.7969 314.203 94.1562C315.719 93.5 317.469 93.1719 319.453 93.1719C321.453 93.1719 323.211 93.5 324.727 94.1562C326.258 94.7969 327.539 95.6953 328.57 96.8516C329.602 98.0078 330.383 99.375 330.914 100.953C331.445 102.516 331.711 104.227 331.711 106.086V106.578C331.711 108.422 331.445 110.133 330.914 111.711C330.383 113.273 329.602 114.641 328.57 115.812C327.539 116.969 326.266 117.867 324.75 118.508C323.234 119.148 321.484 119.469 319.5 119.469C317.516 119.469 315.758 119.148 314.227 118.508C312.695 117.867 311.414 116.969 310.383 115.812C309.352 114.641 308.57 113.273 308.039 111.711C307.508 110.133 307.242 108.422 307.242 106.578ZM315.141 106.086V106.578C315.141 107.531 315.211 108.422 315.352 109.25C315.492 110.078 315.727 110.805 316.055 111.43C316.383 112.039 316.828 112.516 317.391 112.859C317.953 113.203 318.656 113.375 319.5 113.375C320.328 113.375 321.016 113.203 321.562 112.859C322.125 112.516 322.57 112.039 322.898 111.43C323.227 110.805 323.461 110.078 323.602 109.25C323.742 108.422 323.812 107.531 323.812 106.578V106.086C323.812 105.164 323.742 104.297 323.602 103.484C323.461 102.656 323.227 101.93 322.898 101.305C322.57 100.664 322.125 100.164 321.562 99.8047C321 99.4453 320.297 99.2656 319.453 99.2656C318.625 99.2656 317.93 99.4453 317.367 99.8047C316.82 100.164 316.383 100.664 316.055 101.305C315.727 101.93 315.492 102.656 315.352 103.484C315.211 104.297 315.141 105.164 315.141 106.086ZM342.633 116.023L349.195 93.6406H357.68L347.484 122.773C347.266 123.414 346.977 124.102 346.617 124.836C346.258 125.586 345.766 126.297 345.141 126.969C344.516 127.641 343.711 128.188 342.727 128.609C341.758 129.031 340.555 129.242 339.117 129.242C338.352 129.242 337.789 129.203 337.43 129.125C337.086 129.062 336.555 128.945 335.836 128.773V123.125C336.039 123.125 336.211 123.125 336.352 123.125C336.508 123.125 336.68 123.125 336.867 123.125C337.711 123.125 338.383 123.039 338.883 122.867C339.398 122.695 339.789 122.445 340.055 122.117C340.336 121.789 340.555 121.391 340.711 120.922L342.633 116.023ZM340.969 93.6406L345.961 111.383L346.828 119.75H341.531L332.508 93.6406H340.969ZM367.711 99.0078V119H359.812V93.6406H367.219L367.711 99.0078ZM366.75 105.453L364.945 105.5C364.945 103.719 365.156 102.078 365.578 100.578C366 99.0781 366.625 97.7734 367.453 96.6641C368.281 95.5547 369.297 94.6953 370.5 94.0859C371.719 93.4766 373.125 93.1719 374.719 93.1719C375.828 93.1719 376.836 93.3438 377.742 93.6875C378.648 94.0156 379.43 94.5391 380.086 95.2578C380.742 95.9609 381.242 96.8828 381.586 98.0234C381.945 99.1484 382.125 100.5 382.125 102.078V119H374.227V103.086C374.227 102.008 374.102 101.195 373.852 100.648C373.617 100.102 373.273 99.7344 372.82 99.5469C372.367 99.3594 371.812 99.2656 371.156 99.2656C370.469 99.2656 369.852 99.4219 369.305 99.7344C368.758 100.047 368.289 100.484 367.898 101.047C367.523 101.594 367.234 102.242 367.031 102.992C366.844 103.742 366.75 104.562 366.75 105.453ZM381.234 105.453L379.031 105.5C379.031 103.719 379.227 102.078 379.617 100.578C380.023 99.0781 380.625 97.7734 381.422 96.6641C382.234 95.5547 383.242 94.6953 384.445 94.0859C385.648 93.4766 387.047 93.1719 388.641 93.1719C389.797 93.1719 390.859 93.3438 391.828 93.6875C392.797 94.0312 393.633 94.5859 394.336 95.3516C395.039 96.1172 395.586 97.1328 395.977 98.3984C396.367 99.6484 396.562 101.195 396.562 103.039V119H388.641V103.039C388.641 101.992 388.516 101.203 388.266 100.672C388.031 100.125 387.688 99.7578 387.234 99.5703C386.781 99.3672 386.242 99.2656 385.617 99.2656C384.867 99.2656 384.219 99.4219 383.672 99.7344C383.125 100.047 382.664 100.484 382.289 101.047C381.93 101.594 381.664 102.242 381.492 102.992C381.32 103.742 381.234 104.562 381.234 105.453ZM413.367 119.469C411.305 119.469 409.461 119.148 407.836 118.508C406.211 117.852 404.836 116.953 403.711 115.812C402.602 114.672 401.75 113.359 401.156 111.875C400.578 110.391 400.289 108.82 400.289 107.164V106.273C400.289 104.414 400.547 102.695 401.062 101.117C401.578 99.5234 402.344 98.1328 403.359 96.9453C404.375 95.7578 405.648 94.8359 407.18 94.1797C408.711 93.5078 410.492 93.1719 412.523 93.1719C414.32 93.1719 415.93 93.4609 417.352 94.0391C418.773 94.6172 419.977 95.4453 420.961 96.5234C421.961 97.6016 422.719 98.9062 423.234 100.438C423.766 101.969 424.031 103.688 424.031 105.594V108.805H403.312V103.859H416.32V103.25C416.336 102.406 416.188 101.688 415.875 101.094C415.578 100.5 415.141 100.047 414.562 99.7344C413.984 99.4219 413.281 99.2656 412.453 99.2656C411.594 99.2656 410.883 99.4531 410.32 99.8281C409.773 100.203 409.344 100.719 409.031 101.375C408.734 102.016 408.523 102.758 408.398 103.602C408.273 104.445 408.211 105.336 408.211 106.273V107.164C408.211 108.102 408.336 108.953 408.586 109.719C408.852 110.484 409.227 111.141 409.711 111.688C410.211 112.219 410.805 112.633 411.492 112.93C412.195 113.227 412.992 113.375 413.883 113.375C414.961 113.375 416.023 113.172 417.07 112.766C418.117 112.359 419.016 111.688 419.766 110.75L423.352 115.016C422.836 115.75 422.102 116.461 421.148 117.148C420.211 117.836 419.086 118.398 417.773 118.836C416.461 119.258 414.992 119.469 413.367 119.469ZM435 99.0547V119H427.102V93.6406H434.508L435 99.0547ZM434.062 105.453L432.211 105.5C432.211 103.562 432.445 101.836 432.914 100.32C433.383 98.7891 434.047 97.4922 434.906 96.4297C435.766 95.3672 436.789 94.5625 437.977 94.0156C439.18 93.4531 440.516 93.1719 441.984 93.1719C443.156 93.1719 444.227 93.3438 445.195 93.6875C446.18 94.0312 447.023 94.5859 447.727 95.3516C448.445 96.1172 448.992 97.1328 449.367 98.3984C449.758 99.6484 449.953 101.195 449.953 103.039V119H442.008V103.016C442.008 102 441.867 101.227 441.586 100.695C441.305 100.148 440.898 99.7734 440.367 99.5703C439.836 99.3672 439.188 99.2656 438.422 99.2656C437.609 99.2656 436.922 99.4219 436.359 99.7344C435.797 100.047 435.344 100.484 435 101.047C434.672 101.594 434.43 102.242 434.273 102.992C434.133 103.742 434.062 104.562 434.062 105.453ZM467.695 93.6406V99.125H452.414V93.6406H467.695ZM455.625 87.3359H463.523V110.727C463.523 111.398 463.602 111.922 463.758 112.297C463.914 112.656 464.18 112.914 464.555 113.07C464.945 113.211 465.461 113.281 466.102 113.281C466.555 113.281 466.93 113.273 467.227 113.258C467.523 113.227 467.805 113.188 468.07 113.141V118.789C467.398 119.008 466.695 119.172 465.961 119.281C465.227 119.406 464.445 119.469 463.617 119.469C461.93 119.469 460.484 119.203 459.281 118.672C458.094 118.141 457.188 117.305 456.562 116.164C455.938 115.023 455.625 113.539 455.625 111.711V87.3359Z" fill="black"/>
<path d="M1134 0H1348C1356.28 0 1363 6.71573 1363 15V148C1363 156.284 1356.28 163 1348 163H1134V0Z" fill="#146C94"/>
<path d="M1212.5 117.5L1212.5 45.5L1284.5 45.5L1284.5 117.5L1212.5 117.5Z" fill="white" fill-opacity="0.01"/>
<path d="M1221.5 81.5125L1221.5 108.5L1275.5 108.5L1275.5 81.5" stroke="white" stroke-width="7.24" stroke-linecap="round" stroke-linejoin="round"/>
<path d="M1262 68L1248.5 54.5L1235 68" stroke="white" stroke-width="7.24" stroke-linecap="round" stroke-linejoin="round"/>
<path d="M1248.49 93.5L1248.49 54.5" stroke="white" stroke-width="7.24" stroke-linecap="round" stroke-linejoin="round"/>
</svg>
