<svg width="1363" height="163" viewBox="0 0 1363 163" fill="none" xmlns="http://www.w3.org/2000/svg">
<path d="M0 15C0 6.71573 6.71573 0 15 0H37V163H15C6.71573 163 0 156.284 0 148V15Z" fill="#146C94"/>
<rect width="1097" height="163" transform="translate(37)" fill="#F0F0F0"/>
<path d="M101.906 53.9219L94.3945 51.2383V48.0859L104.602 52.375V54.6367L101.906 53.9219ZM94.3945 56.1719L101.918 53.4297L104.602 52.7852V55.0352L94.3945 59.3242V56.1719ZM119.543 54.918H115.195V52.1758H119.543C120.215 52.1758 120.762 52.0664 121.184 51.8477C121.605 51.6211 121.914 51.3086 122.109 50.9102C122.305 50.5117 122.402 50.0625 122.402 49.5625C122.402 49.0547 122.305 48.582 122.109 48.1445C121.914 47.707 121.605 47.3555 121.184 47.0898C120.762 46.8242 120.215 46.6914 119.543 46.6914H116.414V61H112.898V43.9375H119.543C120.879 43.9375 122.023 44.1797 122.977 44.6641C123.938 45.1406 124.672 45.8008 125.18 46.6445C125.688 47.4883 125.941 48.4531 125.941 49.5391C125.941 50.6406 125.688 51.5938 125.18 52.3984C124.672 53.2031 123.938 53.8242 122.977 54.2617C122.023 54.6992 120.879 54.918 119.543 54.918ZM131.531 51.0859V61H128.156V48.3203H131.332L131.531 51.0859ZM135.352 48.2383L135.293 51.3672C135.129 51.3438 134.93 51.3242 134.695 51.3086C134.469 51.2852 134.262 51.2734 134.074 51.2734C133.598 51.2734 133.184 51.3359 132.832 51.4609C132.488 51.5781 132.199 51.7539 131.965 51.9883C131.738 52.2227 131.566 52.5078 131.449 52.8438C131.34 53.1797 131.277 53.5625 131.262 53.9922L130.582 53.7812C130.582 52.9609 130.664 52.207 130.828 51.5195C130.992 50.8242 131.23 50.2188 131.543 49.7031C131.863 49.1875 132.254 48.7891 132.715 48.5078C133.176 48.2266 133.703 48.0859 134.297 48.0859C134.484 48.0859 134.676 48.1016 134.871 48.1328C135.066 48.1562 135.227 48.1914 135.352 48.2383ZM136.055 54.7891V54.543C136.055 53.6133 136.188 52.7578 136.453 51.9766C136.719 51.1875 137.105 50.5039 137.613 49.9258C138.121 49.3477 138.746 48.8984 139.488 48.5781C140.23 48.25 141.082 48.0859 142.043 48.0859C143.004 48.0859 143.859 48.25 144.609 48.5781C145.359 48.8984 145.988 49.3477 146.496 49.9258C147.012 50.5039 147.402 51.1875 147.668 51.9766C147.934 52.7578 148.066 53.6133 148.066 54.543V54.7891C148.066 55.7109 147.934 56.5664 147.668 57.3555C147.402 58.1367 147.012 58.8203 146.496 59.4062C145.988 59.9844 145.363 60.4336 144.621 60.7539C143.879 61.0742 143.027 61.2344 142.066 61.2344C141.105 61.2344 140.25 61.0742 139.5 60.7539C138.758 60.4336 138.129 59.9844 137.613 59.4062C137.105 58.8203 136.719 58.1367 136.453 57.3555C136.188 56.5664 136.055 55.7109 136.055 54.7891ZM139.43 54.543V54.7891C139.43 55.3203 139.477 55.8164 139.57 56.2773C139.664 56.7383 139.812 57.1445 140.016 57.4961C140.227 57.8398 140.5 58.1094 140.836 58.3047C141.172 58.5 141.582 58.5977 142.066 58.5977C142.535 58.5977 142.938 58.5 143.273 58.3047C143.609 58.1094 143.879 57.8398 144.082 57.4961C144.285 57.1445 144.434 56.7383 144.527 56.2773C144.629 55.8164 144.68 55.3203 144.68 54.7891V54.543C144.68 54.0273 144.629 53.543 144.527 53.0898C144.434 52.6289 144.281 52.2227 144.07 51.8711C143.867 51.5117 143.598 51.2305 143.262 51.0273C142.926 50.8242 142.52 50.7227 142.043 50.7227C141.566 50.7227 141.16 50.8242 140.824 51.0273C140.496 51.2305 140.227 51.5117 140.016 51.8711C139.812 52.2227 139.664 52.6289 139.57 53.0898C139.477 53.543 139.43 54.0273 139.43 54.543ZM150.328 48.3203H153.715V61.7617C153.715 62.6992 153.543 63.4922 153.199 64.1406C152.855 64.7891 152.359 65.2812 151.711 65.6172C151.062 65.9531 150.277 66.1211 149.355 66.1211C149.066 66.1211 148.785 66.1055 148.512 66.0742C148.23 66.043 147.941 65.9922 147.645 65.9219L147.656 63.332C147.844 63.3633 148.027 63.3867 148.207 63.4023C148.379 63.4258 148.555 63.4375 148.734 63.4375C149.086 63.4375 149.379 63.3789 149.613 63.2617C149.848 63.1445 150.023 62.9609 150.141 62.7109C150.266 62.4688 150.328 62.1523 150.328 61.7617V48.3203ZM150.059 45.0156C150.059 44.5234 150.23 44.1172 150.574 43.7969C150.926 43.4766 151.387 43.3164 151.957 43.3164C152.535 43.3164 152.996 43.4766 153.34 43.7969C153.684 44.1172 153.855 44.5234 153.855 45.0156C153.855 45.5078 153.684 45.9141 153.34 46.2344C152.996 46.5547 152.535 46.7148 151.957 46.7148C151.387 46.7148 150.926 46.5547 150.574 46.2344C150.23 45.9141 150.059 45.5078 150.059 45.0156ZM162.234 61.2344C161.25 61.2344 160.367 61.0781 159.586 60.7656C158.805 60.4453 158.141 60.0039 157.594 59.4414C157.055 58.8789 156.641 58.2266 156.352 57.4844C156.062 56.7344 155.918 55.9375 155.918 55.0938V54.625C155.918 53.6641 156.055 52.7852 156.328 51.9883C156.602 51.1914 156.992 50.5 157.5 49.9141C158.016 49.3281 158.641 48.8789 159.375 48.5664C160.109 48.2461 160.938 48.0859 161.859 48.0859C162.758 48.0859 163.555 48.2344 164.25 48.5312C164.945 48.8281 165.527 49.25 165.996 49.7969C166.473 50.3438 166.832 51 167.074 51.7656C167.316 52.5234 167.438 53.3672 167.438 54.2969V55.7031H157.359V53.4531H164.121V53.1953C164.121 52.7266 164.035 52.3086 163.863 51.9414C163.699 51.5664 163.449 51.2695 163.113 51.0508C162.777 50.832 162.348 50.7227 161.824 50.7227C161.379 50.7227 160.996 50.8203 160.676 51.0156C160.355 51.2109 160.094 51.4844 159.891 51.8359C159.695 52.1875 159.547 52.6016 159.445 53.0781C159.352 53.5469 159.305 54.0625 159.305 54.625V55.0938C159.305 55.6016 159.375 56.0703 159.516 56.5C159.664 56.9297 159.871 57.3008 160.137 57.6133C160.41 57.9258 160.738 58.168 161.121 58.3398C161.512 58.5117 161.953 58.5977 162.445 58.5977C163.055 58.5977 163.621 58.4805 164.145 58.2461C164.676 58.0039 165.133 57.6406 165.516 57.1562L167.156 58.9375C166.891 59.3203 166.527 59.6875 166.066 60.0391C165.613 60.3906 165.066 60.6797 164.426 60.9062C163.785 61.125 163.055 61.2344 162.234 61.2344ZM174.598 58.5977C175.012 58.5977 175.379 58.5195 175.699 58.3633C176.02 58.1992 176.27 57.9727 176.449 57.6836C176.637 57.3867 176.734 57.0391 176.742 56.6406H179.918C179.91 57.5312 179.672 58.3242 179.203 59.0195C178.734 59.707 178.105 60.25 177.316 60.6484C176.527 61.0391 175.645 61.2344 174.668 61.2344C173.684 61.2344 172.824 61.0703 172.09 60.7422C171.363 60.4141 170.758 59.9609 170.273 59.3828C169.789 58.7969 169.426 58.1172 169.184 57.3438C168.941 56.5625 168.82 55.7266 168.82 54.8359V54.4961C168.82 53.5977 168.941 52.7617 169.184 51.9883C169.426 51.207 169.789 50.5273 170.273 49.9492C170.758 49.3633 171.363 48.9062 172.09 48.5781C172.816 48.25 173.668 48.0859 174.645 48.0859C175.684 48.0859 176.594 48.2852 177.375 48.6836C178.164 49.082 178.781 49.6523 179.227 50.3945C179.68 51.1289 179.91 52 179.918 53.0078H176.742C176.734 52.5859 176.645 52.2031 176.473 51.8594C176.309 51.5156 176.066 51.2422 175.746 51.0391C175.434 50.8281 175.047 50.7227 174.586 50.7227C174.094 50.7227 173.691 50.8281 173.379 51.0391C173.066 51.2422 172.824 51.5234 172.652 51.8828C172.48 52.2344 172.359 52.6367 172.289 53.0898C172.227 53.5352 172.195 54.0039 172.195 54.4961V54.8359C172.195 55.3281 172.227 55.8008 172.289 56.2539C172.352 56.707 172.469 57.1094 172.641 57.4609C172.82 57.8125 173.066 58.0898 173.379 58.293C173.691 58.4961 174.098 58.5977 174.598 58.5977ZM188.086 48.3203V50.7109H180.703V48.3203H188.086ZM182.531 45.1914H185.906V57.1797C185.906 57.5469 185.953 57.8281 186.047 58.0234C186.148 58.2188 186.297 58.3555 186.492 58.4336C186.688 58.5039 186.934 58.5391 187.23 58.5391C187.441 58.5391 187.629 58.5312 187.793 58.5156C187.965 58.4922 188.109 58.4688 188.227 58.4453L188.238 60.9297C187.949 61.0234 187.637 61.0977 187.301 61.1523C186.965 61.207 186.594 61.2344 186.188 61.2344C185.445 61.2344 184.797 61.1133 184.242 60.8711C183.695 60.6211 183.273 60.2227 182.977 59.6758C182.68 59.1289 182.531 58.4102 182.531 57.5195V45.1914ZM203.191 43.9375V61H199.688V43.9375H203.191ZM208.441 43.9375V46.6914H194.52V43.9375H208.441ZM213.797 48.3203V61H210.41V48.3203H213.797ZM210.199 45.0156C210.199 44.5234 210.371 44.1172 210.715 43.7969C211.059 43.4766 211.52 43.3164 212.098 43.3164C212.668 43.3164 213.125 43.4766 213.469 43.7969C213.82 44.1172 213.996 44.5234 213.996 45.0156C213.996 45.5078 213.82 45.9141 213.469 46.2344C213.125 46.5547 212.668 46.7148 212.098 46.7148C211.52 46.7148 211.059 46.5547 210.715 46.2344C210.371 45.9141 210.199 45.5078 210.199 45.0156ZM222.797 48.3203V50.7109H215.414V48.3203H222.797ZM217.242 45.1914H220.617V57.1797C220.617 57.5469 220.664 57.8281 220.758 58.0234C220.859 58.2188 221.008 58.3555 221.203 58.4336C221.398 58.5039 221.645 58.5391 221.941 58.5391C222.152 58.5391 222.34 58.5312 222.504 58.5156C222.676 58.4922 222.82 58.4688 222.938 58.4453L222.949 60.9297C222.66 61.0234 222.348 61.0977 222.012 61.1523C221.676 61.207 221.305 61.2344 220.898 61.2344C220.156 61.2344 219.508 61.1133 218.953 60.8711C218.406 60.6211 217.984 60.2227 217.688 59.6758C217.391 59.1289 217.242 58.4102 217.242 57.5195V45.1914ZM228.281 43V61H224.895V43H228.281ZM236.906 61.2344C235.922 61.2344 235.039 61.0781 234.258 60.7656C233.477 60.4453 232.812 60.0039 232.266 59.4414C231.727 58.8789 231.312 58.2266 231.023 57.4844C230.734 56.7344 230.59 55.9375 230.59 55.0938V54.625C230.59 53.6641 230.727 52.7852 231 51.9883C231.273 51.1914 231.664 50.5 232.172 49.9141C232.688 49.3281 233.312 48.8789 234.047 48.5664C234.781 48.2461 235.609 48.0859 236.531 48.0859C237.43 48.0859 238.227 48.2344 238.922 48.5312C239.617 48.8281 240.199 49.25 240.668 49.7969C241.145 50.3438 241.504 51 241.746 51.7656C241.988 52.5234 242.109 53.3672 242.109 54.2969V55.7031H232.031V53.4531H238.793V53.1953C238.793 52.7266 238.707 52.3086 238.535 51.9414C238.371 51.5664 238.121 51.2695 237.785 51.0508C237.449 50.832 237.02 50.7227 236.496 50.7227C236.051 50.7227 235.668 50.8203 235.348 51.0156C235.027 51.2109 234.766 51.4844 234.562 51.8359C234.367 52.1875 234.219 52.6016 234.117 53.0781C234.023 53.5469 233.977 54.0625 233.977 54.625V55.0938C233.977 55.6016 234.047 56.0703 234.188 56.5C234.336 56.9297 234.543 57.3008 234.809 57.6133C235.082 57.9258 235.41 58.168 235.793 58.3398C236.184 58.5117 236.625 58.5977 237.117 58.5977C237.727 58.5977 238.293 58.4805 238.816 58.2461C239.348 58.0039 239.805 57.6406 240.188 57.1562L241.828 58.9375C241.562 59.3203 241.199 59.6875 240.738 60.0391C240.285 60.3906 239.738 60.6797 239.098 60.9062C238.457 61.125 237.727 61.2344 236.906 61.2344Z" fill="#888888"/>
<path d="M114.117 84.875H122.344V107.164C122.344 109.82 121.789 112.07 120.68 113.914C119.57 115.742 118.016 117.125 116.016 118.062C114.016 119 111.664 119.469 108.961 119.469C106.289 119.469 103.938 119 101.906 118.062C99.8906 117.125 98.3125 115.742 97.1719 113.914C96.0469 112.07 95.4844 109.82 95.4844 107.164V84.875H103.734V107.164C103.734 108.57 103.938 109.719 104.344 110.609C104.75 111.484 105.344 112.125 106.125 112.531C106.906 112.938 107.852 113.141 108.961 113.141C110.086 113.141 111.031 112.938 111.797 112.531C112.562 112.125 113.141 111.484 113.531 110.609C113.922 109.719 114.117 108.57 114.117 107.164V84.875ZM136.266 84.875V119H128.062V84.875H136.266ZM172.523 84.875H180.75V107.164C180.75 109.82 180.195 112.07 179.086 113.914C177.977 115.742 176.422 117.125 174.422 118.062C172.422 119 170.07 119.469 167.367 119.469C164.695 119.469 162.344 119 160.312 118.062C158.297 117.125 156.719 115.742 155.578 113.914C154.453 112.07 153.891 109.82 153.891 107.164V84.875H162.141V107.164C162.141 108.57 162.344 109.719 162.75 110.609C163.156 111.484 163.75 112.125 164.531 112.531C165.312 112.938 166.258 113.141 167.367 113.141C168.492 113.141 169.438 112.938 170.203 112.531C170.969 112.125 171.547 111.484 171.938 110.609C172.328 109.719 172.523 108.57 172.523 107.164V84.875ZM193.078 84.875L198.656 96.2188L204.234 84.875H213.609L204.094 101.797L213.867 119H204.398L198.656 107.445L192.914 119H183.422L193.219 101.797L183.68 84.875H193.078Z" fill="black"/>
<path d="M1134 0H1348C1356.28 0 1363 6.71573 1363 15V148C1363 156.284 1356.28 163 1348 163H1134V0Z" fill="#146C94"/>
<path d="M1248.5 111.917C1244.51 111.917 1240.55 111.13 1236.86 109.601C1233.17 108.073 1229.82 105.832 1226.99 103.008C1221.29 97.3036 1218.08 89.567 1218.08 81.5C1218.08 73.433 1221.29 65.6964 1226.99 59.9922C1232.7 54.2879 1240.43 51.0833 1248.5 51.0833C1265.23 51.0833 1278.92 63.25 1278.92 78.4583C1278.92 83.2985 1276.99 87.9405 1273.57 91.363C1270.15 94.7856 1265.51 96.7083 1260.67 96.7083H1255.19C1254.28 96.7083 1253.67 97.3167 1253.67 98.2292C1253.67 98.5333 1253.97 98.8375 1253.97 99.1417C1255.19 100.663 1255.8 102.488 1255.8 104.313C1256.1 108.571 1252.76 111.917 1248.5 111.917ZM1248.5 57.1667C1242.05 57.1667 1235.86 59.7304 1231.29 64.2937C1226.73 68.8571 1224.17 75.0464 1224.17 81.5C1224.17 87.9536 1226.73 94.1429 1231.29 98.7063C1235.86 103.27 1242.05 105.833 1248.5 105.833C1249.41 105.833 1250.02 105.225 1250.02 104.313C1250.02 103.704 1249.72 103.4 1249.72 103.096C1248.5 101.575 1247.89 100.054 1247.89 98.2292C1247.89 93.9708 1251.24 90.625 1255.5 90.625H1260.67C1263.89 90.625 1266.99 89.3432 1269.27 87.0615C1271.55 84.7798 1272.83 81.6851 1272.83 78.4583C1272.83 66.5958 1261.88 57.1667 1248.5 57.1667ZM1231.77 75.4167C1234.2 75.4167 1236.33 77.5458 1236.33 79.9792C1236.33 82.4125 1234.2 84.5417 1231.77 84.5417C1229.34 84.5417 1227.21 82.4125 1227.21 79.9792C1227.21 77.5458 1229.34 75.4167 1231.77 75.4167ZM1240.9 63.25C1243.33 63.25 1245.46 65.3792 1245.46 67.8125C1245.46 70.2458 1243.33 72.375 1240.9 72.375C1238.46 72.375 1236.33 70.2458 1236.33 67.8125C1236.33 65.3792 1238.46 63.25 1240.9 63.25ZM1256.1 63.25C1258.54 63.25 1260.67 65.3792 1260.67 67.8125C1260.67 70.2458 1258.54 72.375 1256.1 72.375C1253.67 72.375 1251.54 70.2458 1251.54 67.8125C1251.54 65.3792 1253.67 63.25 1256.1 63.25ZM1265.23 75.4167C1267.66 75.4167 1269.79 77.5458 1269.79 79.9792C1269.79 82.4125 1267.66 84.5417 1265.23 84.5417C1262.8 84.5417 1260.67 82.4125 1260.67 79.9792C1260.67 77.5458 1262.8 75.4167 1265.23 75.4167Z" fill="white"/>
</svg>
